<svg width="579" height="546" viewBox="0 0 579 546" fill="none" xmlns="http://www.w3.org/2000/svg">
<path d="M493.534 266.491C380.106 202.55 196.824 202.55 84.13 266.491C-28.5641 330.432 -27.9604 434.087 85.4558 498.04C198.872 561.992 382.177 561.981 494.871 498.04C607.566 434.099 606.962 330.432 493.534 266.491Z" fill="#F5F5F5"/>
<path d="M61.2952 424.378C53.3285 419.894 40.461 419.894 32.5535 424.378C24.646 428.863 24.6933 436.145 32.6482 440.629C40.6031 445.114 53.4705 445.126 61.3899 440.629C69.3093 436.133 69.2501 428.875 61.2952 424.378Z" fill="#E0E0E0"/>
<path d="M49.3154 376.793L53.3402 379.104C54.2163 379.593 55.2078 379.85 56.2168 379.85C57.2257 379.85 58.2172 379.593 59.0933 379.104L301.03 242.715C301.379 242.519 301.669 242.236 301.871 241.895C302.072 241.554 302.178 241.167 302.178 240.774C302.178 240.38 302.072 239.993 301.871 239.653C301.669 239.312 301.379 239.029 301.03 238.832L296.923 236.52C296.047 236.024 295.053 235.762 294.04 235.762C293.028 235.762 292.033 236.024 291.158 236.52L49.3154 372.909C48.9664 373.106 48.6765 373.389 48.475 373.73C48.2735 374.071 48.1674 374.457 48.1674 374.851C48.1674 375.244 48.2735 375.631 48.475 375.972C48.6765 376.313 48.9664 376.596 49.3154 376.793Z" fill="#E0E0E0"/>
<path d="M75.4648 402.163L76.8498 402.949C77.1543 403.12 77.4992 403.209 77.8501 403.209C78.201 403.209 78.5459 403.12 78.8504 402.949L162.838 355.629C162.958 355.56 163.058 355.461 163.127 355.342C163.196 355.224 163.233 355.089 163.233 354.953C163.233 354.817 163.196 354.682 163.127 354.564C163.058 354.445 162.958 354.346 162.838 354.277L161.418 353.468C161.111 353.298 160.764 353.208 160.412 353.208C160.059 353.208 159.712 353.298 159.405 353.468L75.5003 400.857C75.3885 400.926 75.2957 401.021 75.2303 401.133C75.1649 401.245 75.1288 401.372 75.1253 401.501C75.1218 401.63 75.1509 401.758 75.2102 401.874C75.2694 401.989 75.3569 402.089 75.4648 402.163Z" fill="#E0E0E0"/>
<path d="M502.578 396.8L437.471 359.987C435.683 358.976 433.653 358.444 431.588 358.444C429.522 358.444 427.492 358.976 425.704 359.987L366.339 393.448L305.387 359.212C304.197 358.542 302.848 358.189 301.474 358.189C300.101 358.189 298.752 358.542 297.562 359.212L191.402 419.073C191.206 419.187 191.043 419.348 190.93 419.542C190.817 419.735 190.758 419.954 190.758 420.177C190.758 420.4 190.817 420.619 190.93 420.812C191.043 421.006 191.206 421.167 191.402 421.281L369.996 521.746C371.186 522.417 372.535 522.77 373.909 522.77C375.282 522.77 376.632 522.417 377.821 521.746L483.981 461.874C484.18 461.763 484.346 461.602 484.461 461.408C484.576 461.214 484.637 460.994 484.637 460.77C484.637 460.546 484.576 460.326 484.461 460.132C484.346 459.938 484.18 459.777 483.981 459.666L441.365 435.717L502.578 401.215C502.973 400.991 503.301 400.668 503.53 400.281C503.758 399.894 503.878 399.455 503.878 399.008C503.878 398.561 503.758 398.122 503.53 397.734C503.301 397.347 502.973 397.025 502.578 396.8Z" fill="#E0E0E0"/>
<path d="M546.377 427.961C537.996 423.234 524.43 423.234 516.096 427.961C507.762 432.689 507.81 440.364 516.191 445.091C524.572 449.818 538.15 449.818 546.483 445.091C554.817 440.364 554.758 432.747 546.377 427.961Z" fill="#E0E0E0"/>
<path d="M66.2435 398.557L46.9719 399.112L27.7003 398.557C26.8716 411.271 29.4049 424.217 32.9088 430.551C33.735 432.177 35.07 433.505 36.7205 434.342C42.4026 437.543 51.6004 437.543 57.247 434.342C58.9129 433.479 60.2435 432.106 61.035 430.435C64.5863 424.089 67.0722 411.202 66.2435 398.557Z" fill="white"/>
<path d="M60.5495 390.859C68.1019 395.113 68.1493 402.013 60.6442 406.266C53.1392 410.52 40.9346 410.531 33.4177 406.266C25.9008 402.001 25.8298 395.113 33.3349 390.859C40.8399 386.606 53.009 386.594 60.5495 390.859Z" fill="#EBEBEB"/>
<path d="M57.5665 392.547C63.4853 395.864 63.4853 401.25 57.6375 404.579C51.7897 407.908 42.2486 407.896 36.3298 404.579C30.411 401.262 30.411 395.864 36.2588 392.547C42.1066 389.229 51.6832 389.229 57.5665 392.547Z" fill="#E0E0E0"/>
<g opacity="0.15">
<path d="M57.5665 392.547C63.4853 395.864 63.4853 401.25 57.6375 404.579C51.7897 407.908 42.2486 407.896 36.3298 404.579C30.411 401.262 30.411 395.864 36.2588 392.547C42.1066 389.229 51.6832 389.229 57.5665 392.547Z" fill="black"/>
</g>
<path d="M37.1467 360.056C34.0097 356.242 30.3637 352.832 27.4872 348.844C25.534 346.117 23.9359 342.776 24.7172 339.54C25.18 338.059 26.0567 336.734 27.2487 335.713C28.4406 334.692 29.9007 334.016 31.4646 333.761C34.6283 333.297 37.8556 333.997 40.5204 335.726C43.1545 337.454 45.4682 339.608 47.3625 342.094C58.2024 355.504 63.3324 372.476 61.686 389.484C61.6461 391.444 61.0072 393.348 59.8512 394.951C59.1614 395.745 58.2528 396.33 57.233 396.635C56.2133 396.94 55.1253 396.953 54.0981 396.673C48.8422 395.147 49.5406 388.224 48.6765 384.144C47.4965 378.552 45.4656 373.163 42.6512 368.158C41.0592 365.308 39.2175 362.597 37.1467 360.056Z" fill="#8AA4DF"/>
<path opacity="0.2" d="M37.1467 360.056C34.0097 356.242 30.3637 352.832 27.4872 348.844C25.534 346.117 23.9359 342.776 24.7172 339.54C25.18 338.059 26.0567 336.734 27.2487 335.713C28.4406 334.692 29.9007 334.016 31.4646 333.761C34.6283 333.297 37.8556 333.997 40.5204 335.726C43.1545 337.454 45.4682 339.608 47.3625 342.094C58.2024 355.504 63.3324 372.476 61.686 389.484C61.6461 391.444 61.0072 393.348 59.8512 394.951C59.1614 395.745 58.2528 396.33 57.233 396.635C56.2133 396.94 55.1253 396.953 54.0981 396.673C48.8422 395.147 49.5406 388.224 48.6765 384.144C47.4965 378.552 45.4656 373.163 42.6512 368.158C41.0592 365.308 39.2175 362.597 37.1467 360.056Z" fill="white"/>
<path d="M54.4651 391.506C54.3646 391.488 54.2735 391.437 54.2068 391.361C54.1401 391.286 54.1017 391.19 54.0981 391.09C53.7311 382.861 50.9848 354.774 31.1686 338.835C31.1137 338.801 31.0668 338.755 31.031 338.702C30.9952 338.649 30.9714 338.589 30.9611 338.526C30.9507 338.463 30.9542 338.399 30.9711 338.338C30.988 338.276 31.0181 338.219 31.0593 338.17C31.1005 338.12 31.152 338.08 31.2103 338.052C31.2686 338.023 31.3324 338.007 31.3975 338.004C31.4626 338.002 31.5276 338.013 31.5881 338.036C31.6486 338.06 31.7034 338.096 31.7487 338.141C51.8726 354.323 54.6426 382.722 55.0096 391.044C55.0144 391.104 55.0068 391.164 54.9871 391.22C54.9674 391.277 54.9361 391.329 54.8951 391.373C54.8541 391.417 54.8043 391.453 54.7487 391.478C54.693 391.503 54.6328 391.517 54.5716 391.518L54.4651 391.506Z" fill="#F0F0F0"/>
<path d="M57.3653 392.396C56.9478 394.197 56.1623 395.898 55.0557 397.395C53.9492 398.893 52.5444 400.157 50.9256 401.111C47.8915 402.511 44.5183 403.06 41.1833 402.695C37.8048 402.318 34.4857 401.541 31.2989 400.383C29.7008 399.863 27.937 399.158 27.7476 397.228C27.7298 396.72 27.8266 396.214 28.0312 395.747C28.2358 395.279 28.5431 394.862 28.9313 394.523C29.253 394.214 29.5972 393.928 29.9612 393.668C30.1232 393.543 30.2432 393.374 30.3056 393.182C30.368 392.99 30.37 392.785 30.3114 392.592C30.2527 392.399 30.1361 392.227 29.9766 392.1C29.8171 391.972 29.622 391.894 29.4167 391.876C28.4712 391.823 27.5302 391.711 26.5993 391.541C24.4246 391.196 22.3824 390.295 20.6805 388.929C19.4408 387.859 18.4998 386.499 17.946 384.976C17.4725 383.681 17.3305 382.063 18.3367 381.092C18.9616 380.587 19.7214 380.266 20.5266 380.168C21.2369 380.017 21.9353 379.89 22.6456 379.786C22.8461 379.753 23.0303 379.657 23.1709 379.514C23.3116 379.37 23.4011 379.186 23.4263 378.989C23.4516 378.792 23.4111 378.592 23.311 378.42C23.2109 378.247 23.0564 378.11 22.8705 378.029L19.8756 376.816C19.0193 376.535 18.2414 376.064 17.6027 375.44C17.2205 374.861 16.969 374.209 16.8649 373.527C16.7608 372.846 16.8065 372.15 16.999 371.487C17.366 369.661 18.0052 367.893 18.4432 366.078C18.9703 364.28 19.0394 362.383 18.6445 360.553C24.2503 359.944 29.9224 360.316 35.3947 361.651C37.0434 361.976 38.6015 362.642 39.964 363.604C41.8343 365.061 42.3315 367.245 42.1184 369.615C42.1173 369.709 42.1483 369.802 42.2065 369.877C42.2647 369.952 42.3468 370.007 42.4401 370.032C42.5334 370.057 42.6326 370.051 42.7222 370.016C42.8117 369.98 42.8867 369.916 42.9352 369.834L44.8411 366.367C45.1242 365.874 45.5885 365.504 46.14 365.333C46.6915 365.161 47.2892 365.2 47.8123 365.442C49.4855 366.26 50.9714 367.4 52.1804 368.794C52.8504 369.537 53.3612 370.404 53.6824 371.343C54.0037 372.282 54.1289 373.274 54.0508 374.261C53.823 376.966 53.3556 379.646 52.6539 382.271C52.62 382.418 52.6322 382.572 52.6889 382.712C52.7456 382.852 52.8442 382.973 52.9719 383.058C53.0996 383.142 53.2504 383.188 53.4048 383.188C53.5592 383.187 53.7101 383.142 53.8377 383.057L53.9324 383.046C54.4456 382.661 55.0867 382.476 55.7317 382.526C57.4126 382.734 57.8506 384.41 57.9572 385.831C58.0278 388.035 57.8291 390.239 57.3653 392.396Z" fill="#8AA4DF"/>
<path opacity="0.2" d="M57.3653 392.396C56.9478 394.197 56.1623 395.898 55.0557 397.395C53.9492 398.893 52.5444 400.157 50.9256 401.111C47.8915 402.511 44.5183 403.06 41.1833 402.695C37.8048 402.318 34.4857 401.541 31.2989 400.383C29.7008 399.863 27.937 399.158 27.7476 397.228C27.7298 396.72 27.8266 396.214 28.0312 395.747C28.2358 395.279 28.5431 394.862 28.9313 394.523C29.253 394.214 29.5972 393.928 29.9612 393.668C30.1232 393.543 30.2432 393.374 30.3056 393.182C30.368 392.99 30.37 392.785 30.3114 392.592C30.2527 392.399 30.1361 392.227 29.9766 392.1C29.8171 391.972 29.622 391.894 29.4167 391.876C28.4712 391.823 27.5302 391.711 26.5993 391.541C24.4246 391.196 22.3824 390.295 20.6805 388.929C19.4408 387.859 18.4998 386.499 17.946 384.976C17.4725 383.681 17.3305 382.063 18.3367 381.092C18.9616 380.587 19.7214 380.266 20.5266 380.168C21.2369 380.017 21.9353 379.89 22.6456 379.786C22.8461 379.753 23.0303 379.657 23.1709 379.514C23.3116 379.37 23.4011 379.186 23.4263 378.989C23.4516 378.792 23.4111 378.592 23.311 378.42C23.2109 378.247 23.0564 378.11 22.8705 378.029L19.8756 376.816C19.0193 376.535 18.2414 376.064 17.6027 375.44C17.2205 374.861 16.969 374.209 16.8649 373.527C16.7608 372.846 16.8065 372.15 16.999 371.487C17.366 369.661 18.0052 367.893 18.4432 366.078C18.9703 364.28 19.0394 362.383 18.6445 360.553C24.2503 359.944 29.9224 360.316 35.3947 361.651C37.0434 361.976 38.6015 362.642 39.964 363.604C41.8343 365.061 42.3315 367.245 42.1184 369.615C42.1173 369.709 42.1483 369.802 42.2065 369.877C42.2647 369.952 42.3468 370.007 42.4401 370.032C42.5334 370.057 42.6326 370.051 42.7222 370.016C42.8117 369.98 42.8867 369.916 42.9352 369.834L44.8411 366.367C45.1242 365.874 45.5885 365.504 46.14 365.333C46.6915 365.161 47.2892 365.2 47.8123 365.442C49.4855 366.26 50.9714 367.4 52.1804 368.794C52.8504 369.537 53.3612 370.404 53.6824 371.343C54.0037 372.282 54.1289 373.274 54.0508 374.261C53.823 376.966 53.3556 379.646 52.6539 382.271C52.62 382.418 52.6322 382.572 52.6889 382.712C52.7456 382.852 52.8442 382.973 52.9719 383.058C53.0996 383.142 53.2504 383.188 53.4048 383.188C53.5592 383.187 53.7101 383.142 53.8377 383.057L53.9324 383.046C54.4456 382.661 55.0867 382.476 55.7317 382.526C57.4126 382.734 57.8506 384.41 57.9572 385.831C58.0278 388.035 57.8291 390.239 57.3653 392.396Z" fill="black"/>
<path opacity="0.2" d="M57.3653 392.396C56.9478 394.197 56.1623 395.898 55.0557 397.395C53.9492 398.893 52.5444 400.157 50.9256 401.111C47.8915 402.511 44.5183 403.06 41.1833 402.695C37.8048 402.318 34.4857 401.541 31.2989 400.383C29.7008 399.863 27.937 399.158 27.7476 397.228C27.7298 396.72 27.8266 396.214 28.0312 395.747C28.2358 395.279 28.5431 394.862 28.9313 394.523C29.253 394.214 29.5972 393.928 29.9612 393.668C30.1232 393.543 30.2432 393.374 30.3056 393.182C30.368 392.99 30.37 392.785 30.3114 392.592C30.2527 392.399 30.1361 392.227 29.9766 392.1C29.8171 391.972 29.622 391.894 29.4167 391.876C28.4712 391.823 27.5302 391.711 26.5993 391.541C24.4246 391.196 22.3824 390.295 20.6805 388.929C19.4408 387.859 18.4998 386.499 17.946 384.976C17.4725 383.681 17.3305 382.063 18.3367 381.092C18.9616 380.587 19.7214 380.266 20.5266 380.168C21.2369 380.017 21.9353 379.89 22.6456 379.786C22.8461 379.753 23.0303 379.657 23.1709 379.514C23.3116 379.37 23.4011 379.186 23.4263 378.989C23.4516 378.792 23.4111 378.592 23.311 378.42C23.2109 378.247 23.0564 378.11 22.8705 378.029L19.8756 376.816C19.0193 376.535 18.2414 376.064 17.6027 375.44C17.2205 374.861 16.969 374.209 16.8649 373.527C16.7608 372.846 16.8065 372.15 16.999 371.487C17.366 369.661 18.0052 367.893 18.4432 366.078C18.9703 364.28 19.0394 362.383 18.6445 360.553C24.2503 359.944 29.9224 360.316 35.3947 361.651C37.0434 361.976 38.6015 362.642 39.964 363.604C41.8343 365.061 42.3315 367.245 42.1184 369.615C42.1173 369.709 42.1483 369.802 42.2065 369.877C42.2647 369.952 42.3468 370.007 42.4401 370.032C42.5334 370.057 42.6326 370.051 42.7222 370.016C42.8117 369.98 42.8867 369.916 42.9352 369.834L44.8411 366.367C45.1242 365.874 45.5885 365.504 46.14 365.333C46.6915 365.161 47.2892 365.2 47.8123 365.442C49.4855 366.26 50.9714 367.4 52.1804 368.794C52.8504 369.537 53.3612 370.404 53.6824 371.343C54.0037 372.282 54.1289 373.274 54.0508 374.261C53.823 376.966 53.3556 379.646 52.6539 382.271C52.62 382.418 52.6322 382.572 52.6889 382.712C52.7456 382.852 52.8442 382.973 52.9719 383.058C53.0996 383.142 53.2504 383.188 53.4048 383.188C53.5592 383.187 53.7101 383.142 53.8377 383.057L53.9324 383.046C54.4456 382.661 55.0867 382.476 55.7317 382.526C57.4126 382.734 57.8506 384.41 57.9572 385.831C58.0278 388.035 57.8291 390.239 57.3653 392.396Z" fill="white"/>
<path d="M48.4869 400.672C47.4295 396.296 45.9183 392.036 43.9768 387.958C43.9767 387.895 43.9629 387.832 43.9364 387.774C43.9099 387.717 43.8712 387.665 43.8229 387.623L43.5033 386.952C44.0605 381.843 45.5901 376.88 48.0134 372.319C48.0551 372.269 48.085 372.209 48.101 372.146C48.117 372.083 48.1187 372.017 48.1061 371.953C48.0935 371.889 48.0667 371.828 48.0278 371.775C47.9889 371.722 47.9386 371.678 47.8805 371.646C47.8224 371.614 47.7579 371.594 47.6913 371.589C47.6248 371.583 47.5578 371.592 47.4951 371.614C47.4323 371.637 47.3752 371.672 47.3278 371.718C47.2804 371.764 47.2437 371.819 47.2203 371.88C44.9686 376.12 43.4791 380.706 42.8167 385.438C39.005 377.972 32.9205 369.257 23.5333 362.865C23.4341 362.797 23.3114 362.769 23.1918 362.789C23.0722 362.808 22.9652 362.873 22.894 362.969C22.8265 363.068 22.7999 363.189 22.8197 363.307C22.8394 363.425 22.904 363.531 23.0006 363.604C32.6956 370.181 38.8038 379.301 42.5208 386.871C37.5222 384.663 31.971 383.932 26.5519 384.768C26.4331 384.79 26.3281 384.857 26.2595 384.955C26.1908 385.052 26.1641 385.172 26.1849 385.288C26.2037 385.376 26.2484 385.457 26.3136 385.521C26.3788 385.584 26.4616 385.628 26.5519 385.646H26.7057C26.7886 385.646 35.5603 384.074 43.1363 388.212C45.0573 392.261 46.5525 396.49 47.5991 400.834C47.6193 400.922 47.6645 401.002 47.7294 401.065C47.7944 401.128 47.8765 401.173 47.9661 401.192H48.1437C48.258 401.165 48.3573 401.096 48.4211 400.999C48.485 400.902 48.5085 400.785 48.4869 400.672Z" fill="#F0F0F0"/>
<path d="M551.585 400.742L531.272 401.319L510.971 400.742C510.095 414.138 512.77 427.788 516.463 434.457C517.339 436.169 518.748 437.565 520.488 438.445C526.478 441.832 536.161 441.832 542.115 438.445C543.885 437.555 545.301 436.116 546.14 434.353C549.81 427.649 552.461 414.068 551.585 400.742Z" fill="white"/>
<path d="M545.596 392.628C553.551 397.112 553.598 404.382 545.69 408.809C537.783 413.236 524.915 413.294 516.961 408.809C509.006 404.325 508.958 397.054 516.866 392.628C524.773 388.201 537.629 388.131 545.596 392.628Z" fill="#EBEBEB"/>
<path d="M542.447 394.408C548.65 397.875 548.685 403.585 542.518 407.122C536.35 410.659 526.312 410.589 520.109 407.122C513.906 403.654 513.871 397.944 520.038 394.408C526.206 390.871 536.232 390.905 542.447 394.408Z" fill="#E0E0E0"/>
<g opacity="0.15">
<path d="M542.447 394.408C548.65 397.875 548.685 403.585 542.518 407.122C536.35 410.659 526.312 410.589 520.109 407.122C513.906 403.654 513.871 397.944 520.038 394.408C526.206 390.871 536.232 390.905 542.447 394.408Z" fill="black"/>
</g>
<path d="M564.678 316.111C518.902 330.744 518.511 360.646 528.798 381.994C531.402 386.294 539.286 388.617 546.14 362.137L534.113 363.639L548.129 356.704L551.763 346.082L540.079 346.926L554.912 340.834C557.637 332.403 560.898 324.146 564.678 316.111Z" fill="#8AA4DF"/>
<path opacity="0.2" d="M564.678 316.111C518.902 330.744 518.511 360.646 528.798 381.994C531.402 386.294 539.286 388.617 546.14 362.137L534.113 363.639L548.129 356.704L551.763 346.082L540.079 346.926L554.912 340.834C557.637 332.403 560.898 324.146 564.678 316.111Z" fill="black"/>
<path opacity="0.2" d="M564.678 316.111C518.902 330.744 518.511 360.646 528.798 381.994C531.402 386.294 539.286 388.617 546.14 362.137L534.113 363.639L548.129 356.704L551.763 346.082L540.079 346.926L554.912 340.834C557.637 332.403 560.898 324.146 564.678 316.111Z" fill="white"/>
<path d="M551.727 323.589C527.591 341.482 525.412 361.986 532.231 383.404C529.804 364.552 527.212 345.481 551.727 323.589Z" fill="white"/>
<path d="M487.189 346.487C532.314 352.693 537.783 380.468 531.793 401.967C530.112 406.405 523.163 409.838 512.273 386.282L523.732 385.739L509.527 381.555L504.33 372.25L515.351 371.094L500.506 367.823C496.52 360.451 492.072 353.325 487.189 346.487Z" fill="#8AA4DF"/>
<path opacity="0.2" d="M487.189 346.487C532.314 352.693 537.783 380.468 531.793 401.967C530.112 406.405 523.163 409.838 512.273 386.282L523.732 385.739L509.527 381.555L504.33 372.25L515.351 371.094L500.506 367.823C496.52 360.451 492.072 353.325 487.189 346.487Z" fill="white"/>
<path opacity="0.1" d="M487.189 346.487C532.314 352.693 537.783 380.468 531.793 401.967C530.112 406.405 523.163 409.838 512.273 386.282L523.732 385.739L509.527 381.555L504.33 372.25L515.351 371.094L500.506 367.823C496.52 360.451 492.072 353.325 487.189 346.487Z" fill="black"/>
<path d="M500.471 351.353C525.992 364.067 531.521 382.838 528.81 403.885C527.851 385.935 527.034 367.765 500.471 351.353Z" fill="white"/>
<path d="M577.877 356.901C536.505 357.559 528.384 381.994 531.32 402.036C532.326 406.22 538.197 410.069 550.71 390.038L540.458 388.293L553.764 386.074L559.517 378.26L549.692 376.111L563.447 374.793C567.871 368.542 572.691 362.566 577.877 356.901Z" fill="#8AA4DF"/>
<path d="M565.317 359.825C540.849 368.517 533.734 384.814 533.758 404.082C536.67 388.004 539.487 371.718 565.317 359.825Z" fill="white"/>
<path opacity="0.2" d="M577.877 356.901C536.505 357.559 528.384 381.994 531.32 402.036C532.326 406.22 538.197 410.069 550.71 390.038L540.458 388.293L553.764 386.074L559.517 378.26L549.692 376.111L563.447 374.793C567.871 368.542 572.691 362.566 577.877 356.901Z" fill="white"/>
<path d="M60.9342 331.076L60.5791 149.864C60.7317 147.057 61.5619 144.324 63.0019 141.89C64.442 139.455 66.4511 137.387 68.8654 135.855L299.498 6.13571C301.77 4.85273 303.842 4.72559 305.345 5.54624L296.668 0.633924C295.141 -0.313863 292.999 -0.232955 290.631 1.10782L59.9398 130.839C57.5265 132.369 55.5178 134.435 54.0777 136.867C52.6377 139.3 51.807 142.031 51.6535 144.836L52.0678 326.049C52.0678 328.476 52.9201 330.21 54.2815 331.111C54.4268 331.213 54.5813 331.302 54.7431 331.377L63.3136 336.243C61.8575 335.388 60.946 333.608 60.9342 331.076Z" fill="#8AA4DF"/>
<path opacity="0.4" d="M296.668 0.633924C295.141 -0.313863 292.999 -0.232955 290.631 1.10782L59.9398 130.839C57.2014 132.525 55.0029 134.928 53.5948 137.774L62.4612 142.779C63.8787 139.939 66.0751 137.538 68.8062 135.844L299.498 6.13571C301.77 4.85273 303.842 4.72559 305.345 5.54624L296.668 0.633924Z" fill="white"/>
<path opacity="0.3" d="M51.6535 144.836L52.0679 326.049C52.0679 328.476 52.9202 330.21 54.2815 331.111C54.4268 331.213 54.5813 331.302 54.7432 331.377L63.3136 336.243C61.8457 335.388 60.9461 333.608 60.9461 331.076L60.5791 149.864C60.6569 147.377 61.3212 144.94 62.5205 142.744L53.6541 137.739C52.4285 139.92 51.7433 142.351 51.6535 144.836Z" fill="white"/>
<path d="M60.5792 160.371L60.9699 331.076C60.9699 333.608 61.8932 335.388 63.3374 336.243C63.3761 336.277 63.4201 336.304 63.4676 336.324C64.9591 337.098 67.0189 336.948 69.2325 335.688L299.971 205.992C302.387 204.464 304.397 202.398 305.837 199.965C307.277 197.532 308.107 194.801 308.258 191.994L307.867 20.9998L60.5792 160.371Z" fill="#8AA4DF"/>
<path opacity="0.4" d="M60.5792 160.371L60.9699 331.076C60.9699 333.608 61.8932 335.388 63.3374 336.243C63.3761 336.277 63.4201 336.304 63.4676 336.324C64.9591 337.098 67.0189 336.948 69.2325 335.688L299.971 205.992C302.387 204.464 304.397 202.398 305.837 199.965C307.277 197.532 308.107 194.801 308.258 191.994L307.867 20.9998L60.5792 160.371Z" fill="black"/>
<path d="M307.831 10.7822C307.831 8.25089 306.908 6.45934 305.464 5.60402H305.405C303.901 4.78338 301.853 4.91052 299.557 6.1935L68.8656 135.855C66.4513 137.387 64.4421 139.455 63.0021 141.89C61.562 144.324 60.7318 147.057 60.5792 149.864V160.371L307.855 20.9998L307.831 10.7822Z" fill="#8AA4DF"/>
<g opacity="0.5">
<path d="M71.5053 143.207C72.7601 142.502 73.7781 143.068 73.7781 144.466C73.7352 145.231 73.5081 145.975 73.1152 146.638C72.7223 147.301 72.1748 147.863 71.5171 148.281C70.2742 148.986 69.2561 148.419 69.2443 147.021C69.2872 146.256 69.5143 145.512 69.9072 144.849C70.3001 144.187 70.8476 143.624 71.5053 143.207Z" fill="white"/>
<path d="M77.6963 139.716C78.951 139.011 79.9572 139.577 79.9691 140.976C79.928 141.742 79.7017 142.489 79.3088 143.154C78.9158 143.819 78.3673 144.383 77.7081 144.802C76.4533 145.507 75.4353 144.94 75.4353 143.53C75.4782 142.766 75.7053 142.022 76.0982 141.359C76.4911 140.696 77.0386 140.133 77.6963 139.716Z" fill="white"/>
<path d="M83.8756 136.225C85.1304 135.52 86.1484 136.087 86.1484 137.485C86.1096 138.251 85.8855 138.997 85.4946 139.662C85.1037 140.327 84.5569 140.892 83.8993 141.311C82.6445 142.016 81.6264 141.45 81.6264 140.04C81.6671 139.276 81.892 138.532 82.2829 137.869C82.6737 137.206 83.2195 136.643 83.8756 136.225Z" fill="white"/>
</g>
<g opacity="0.39">
<path d="M71.5053 143.207C72.7601 142.502 73.7781 143.068 73.7781 144.466C73.7352 145.231 73.5081 145.975 73.1152 146.638C72.7223 147.301 72.1748 147.863 71.5171 148.281C70.2742 148.986 69.2561 148.419 69.2443 147.021C69.2872 146.256 69.5143 145.512 69.9072 144.849C70.3001 144.187 70.8476 143.624 71.5053 143.207Z" fill="white"/>
<path d="M77.6963 139.716C78.951 139.011 79.9572 139.577 79.9691 140.976C79.928 141.742 79.7017 142.489 79.3088 143.154C78.9158 143.819 78.3673 144.383 77.7081 144.802C76.4533 145.507 75.4353 144.94 75.4353 143.53C75.4782 142.766 75.7053 142.022 76.0982 141.359C76.4911 140.696 77.0386 140.133 77.6963 139.716Z" fill="white"/>
<path d="M83.8756 136.225C85.1304 135.52 86.1484 136.087 86.1484 137.485C86.1096 138.251 85.8855 138.997 85.4946 139.662C85.1037 140.327 84.5569 140.892 83.8993 141.311C82.6445 142.016 81.6264 141.45 81.6264 140.04C81.6671 139.276 81.892 138.532 82.2829 137.869C82.6737 137.206 83.2195 136.643 83.8756 136.225Z" fill="white"/>
</g>
<path d="M236.226 176.24L268.673 157.955L268.661 153.944L236.214 172.23L236.226 176.24Z" fill="white"/>
<path d="M282.38 146.2L273.206 151.378L273.218 155.389L282.392 150.211L282.38 146.2Z" fill="white"/>
<path d="M221.547 194.456L296.692 152.095L296.68 148.084L221.535 190.446L221.547 194.456Z" fill="white"/>
<path d="M214.622 198.363L214.61 194.352L205.424 199.531L205.436 203.53L214.622 198.363Z" fill="white"/>
<path d="M231.42 174.934L187.159 199.889L187.171 203.9L231.443 178.945L231.42 174.934Z" fill="white"/>
<path d="M191.693 177.454L182.518 182.632L182.53 186.643L191.704 181.465L191.693 177.454Z" fill="white"/>
<path d="M180.909 207.425L180.897 203.414L151.918 219.758L151.93 223.768L180.909 207.425Z" fill="white"/>
<path d="M138.506 247.186L138.518 251.197L166.479 235.431L166.467 231.432L138.506 247.186Z" fill="white"/>
<path d="M198.547 207.425L198.535 203.414L151.942 229.675L151.954 233.686L198.547 207.425Z" fill="white"/>
<path d="M246.548 160.486L255.734 155.308L255.722 151.297L246.536 156.476L246.548 160.486Z" fill="#8AA4DF"/>
<path d="M212.799 175.501L212.811 179.511L239.434 164.497L239.422 160.486L212.799 175.501Z" fill="#8AA4DF"/>
<path d="M173.83 201.484L204.098 184.412L204.087 180.413L173.818 197.473L173.83 201.484Z" fill="#8AA4DF"/>
<path d="M165.058 206.431L165.046 202.42L138.423 217.423L138.435 221.434L165.058 206.431Z" fill="#8AA4DF"/>
<path d="M126.929 217.989L175.842 190.411L175.83 186.4L126.917 213.979L126.929 217.989Z" fill="white"/>
<path d="M203.98 144.732L203.968 140.721L125.887 184.736L125.899 188.747L203.98 144.732Z" fill="white"/>
<path d="M153.564 163.226L153.552 159.203L125.864 174.819L125.875 178.829L153.564 163.226Z" fill="white"/>
<path d="M161.542 144.767L125.828 164.89L125.84 168.912L161.554 148.789L161.542 144.767Z" fill="white"/>
<path d="M163.046 157.874L238.203 115.513L238.191 111.49L163.034 153.863L163.046 157.874Z" fill="white"/>
<path d="M189.787 128.84L170.124 139.924L170.148 143.935L189.799 132.862L189.787 128.84Z" fill="white"/>
<path d="M144.307 124.667L97.7375 150.928V154.938L144.318 128.678L144.307 124.667Z" fill="#8AA4DF"/>
<path d="M126.041 144.906L97.7612 160.845L97.773 164.855L126.053 148.916L126.041 144.906Z" fill="#8AA4DF"/>
<path d="M138.352 141.981L226.294 92.4075L226.282 88.3967L138.34 137.971L138.352 141.981Z" fill="#8AA4DF"/>
<path d="M262.837 71.7989L262.825 67.7881L234.959 83.5075L234.971 87.5068L262.837 71.7989Z" fill="#8AA4DF"/>
<path d="M285.316 59.1309V55.1202L271.371 62.9683L271.383 66.9791L285.316 59.1309Z" fill="#8AA4DF"/>
<path d="M139.678 147.148L111.931 162.798L111.943 166.809L139.69 151.159L139.678 147.148Z" fill="white"/>
<path d="M257.746 100.464L245.376 107.433L245.388 111.456L257.758 104.486L257.746 100.464Z" fill="white"/>
<path d="M296.491 82.6522L296.479 78.6299L264.032 96.9152L264.044 100.938L296.491 82.6522Z" fill="white"/>
<path d="M228.093 151.02L228.081 146.998L152.427 189.648L152.439 193.659L228.093 151.02Z" fill="#8AA4DF"/>
<path d="M143.798 194.514L112.073 212.395L112.085 216.417L143.809 198.525L143.798 194.514Z" fill="#8AA4DF"/>
<path d="M127.876 193.555L112.037 202.478L112.049 206.5L127.888 197.577L127.876 193.555Z" fill="#8AA4DF"/>
<path d="M244.382 211.401L253.568 206.223L253.556 202.201L244.37 207.379L244.382 211.401Z" fill="#8AA4DF"/>
<path d="M238.214 214.88L238.203 210.858L208.774 227.456L208.786 231.466L238.214 214.88Z" fill="#8AA4DF"/>
<path d="M296.799 187.764L167.686 260.547L167.698 264.558L296.811 191.786L296.799 187.764Z" fill="#8AA4DF"/>
<path d="M202.631 230.912L167.662 250.63L167.674 254.641L202.642 234.934L202.631 230.912Z" fill="#8AA4DF"/>
<path d="M138.589 276.949L138.601 280.971L161.163 268.245L161.152 264.234L138.589 276.949Z" fill="#8AA4DF"/>
<path d="M161.116 254.306L126.148 274.024L126.16 278.047L161.128 258.328L161.116 254.306Z" fill="#8AA4DF"/>
<path d="M144.484 253.751L126.124 264.107L126.136 268.13L144.496 257.773L144.484 253.751Z" fill="#8AA4DF"/>
<g opacity="0.3">
<path d="M246.548 160.486L255.734 155.308L255.722 151.297L246.536 156.476L246.548 160.486Z" fill="white"/>
<path d="M212.799 175.501L212.811 179.511L239.434 164.497L239.422 160.486L212.799 175.501Z" fill="white"/>
<path d="M173.83 201.484L204.098 184.412L204.087 180.413L173.818 197.473L173.83 201.484Z" fill="white"/>
<path d="M165.058 206.431L165.046 202.42L138.423 217.423L138.435 221.434L165.058 206.431Z" fill="white"/>
</g>
<g opacity="0.3">
<path d="M144.307 124.667L97.7376 150.928V154.938L144.319 128.678L144.307 124.667Z" fill="white"/>
<path d="M126.041 144.906L97.7611 160.845L97.7729 164.855L126.053 148.916L126.041 144.906Z" fill="white"/>
<path d="M138.352 141.981L226.294 92.4075L226.282 88.3967L138.34 137.971L138.352 141.981Z" fill="white"/>
<path d="M262.837 71.7989L262.825 67.7881L234.959 83.5075L234.971 87.5068L262.837 71.7989Z" fill="white"/>
<path d="M285.316 59.1309V55.1201L271.371 62.9683L271.383 66.979L285.316 59.1309Z" fill="white"/>
</g>
<g opacity="0.3">
<path d="M228.093 151.02L228.081 146.998L152.427 189.648L152.439 193.659L228.093 151.02Z" fill="white"/>
<path d="M143.798 194.514L112.073 212.395L112.085 216.417L143.809 198.525L143.798 194.514Z" fill="white"/>
<path d="M127.876 193.555L112.037 202.478L112.049 206.5L127.888 197.577L127.876 193.555Z" fill="white"/>
</g>
<g opacity="0.3">
<path d="M244.382 211.401L253.568 206.223L253.556 202.201L244.37 207.379L244.382 211.401Z" fill="white"/>
<path d="M238.214 214.88L238.203 210.858L208.774 227.456L208.786 231.466L238.214 214.88Z" fill="white"/>
<path d="M296.799 187.764L167.686 260.547L167.698 264.558L296.811 191.786L296.799 187.764Z" fill="white"/>
<path d="M202.631 230.912L167.662 250.63L167.674 254.641L202.642 234.934L202.631 230.912Z" fill="white"/>
<path d="M138.589 276.949L138.601 280.971L161.163 268.245L161.152 264.234L138.589 276.949Z" fill="white"/>
<path d="M161.116 254.306L126.147 274.024L126.159 278.047L161.128 258.328L161.116 254.306Z" fill="white"/>
<path d="M144.484 253.751L126.124 264.107L126.136 268.129L144.496 257.773L144.484 253.751Z" fill="white"/>
</g>
<path d="M77.0809 198.548L77.1154 208.488L77.0809 198.548Z" fill="white"/>
<path d="M77.1163 212.303L85.9709 207.309L77.1163 212.303L77.1518 222.231L77.1163 212.303Z" fill="white"/>
<path d="M85.8881 175.998L77.0335 180.991L85.8881 175.998Z" fill="white"/>
<path d="M82.1473 181.916L77.0453 184.794L77.069 194.734L77.0453 184.794L82.1473 181.916Z" fill="white"/>
<path d="M85.9235 189.741L77.0689 194.734L85.9235 189.741Z" fill="white"/>
<path d="M85.959 203.495L77.1163 208.488L85.959 203.495Z" fill="white"/>
<path d="M82.4552 286.912L77.3414 289.801L77.3769 299.73L77.3414 289.801L82.4552 286.912Z" fill="white"/>
<path d="M85.9355 193.555L77.0809 198.548L77.1164 208.488L85.9591 203.495L85.9355 193.555Z" fill="white"/>
<path d="M77.1518 222.231L86.0064 217.238L85.9709 207.309L77.1163 212.303L77.1518 222.231Z" fill="white"/>
<path d="M86.1248 257.311L77.2703 262.304L77.294 272.233L86.1485 267.24L86.1248 257.311Z" fill="white"/>
<path d="M77.3412 285.976L86.1839 280.994L86.1603 271.054L77.3057 276.047L77.3412 285.976Z" fill="white"/>
<path d="M86.0775 243.556L77.223 248.55L77.2585 258.49L86.113 253.497L86.0775 243.556Z" fill="white"/>
<path d="M88.9184 238.748L74.3581 246.966L74.5712 318.293L89.1314 310.086L88.9184 238.748ZM86.1602 271.054V280.994L77.3057 285.976V276.047L86.1602 271.054ZM77.2228 248.55L86.0773 243.556V253.497L77.2228 258.478V248.55ZM77.2228 262.304L86.0773 257.311V267.24L77.2228 272.233V262.304ZM77.3293 299.73V289.801L82.4432 286.912L86.1839 284.808V294.737L77.3293 299.73ZM77.3293 313.473V303.544L86.1839 298.551V308.48L77.3293 313.473Z" fill="#8AA4DF"/>
<path d="M88.6935 161.249L74.1332 169.456L74.3463 240.794L88.9066 232.588L88.6935 161.249ZM76.9979 171.039L85.8524 166.046V175.986L76.9979 180.979V171.039ZM76.9979 184.782L82.0999 181.904L85.8524 179.8V189.729L76.9979 194.722V184.782ZM76.9979 198.537L85.8524 193.543V203.484L77.1518 208.488L76.9979 198.537ZM76.9979 212.291L85.8524 207.298V217.238L77.1518 222.231L76.9979 212.291ZM76.9979 226.034L85.8524 221.041V230.981L77.1518 235.974L76.9979 226.034Z" fill="#8AA4DF"/>
<path opacity="0.3" d="M88.9184 238.748L74.3581 246.966L74.5712 318.293L89.1314 310.086L88.9184 238.748ZM86.1602 271.054V280.994L77.3057 285.976V276.047L86.1602 271.054ZM77.2228 248.55L86.0773 243.556V253.497L77.2228 258.478V248.55ZM77.2228 262.304L86.0773 257.311V267.24L77.2228 272.233V262.304ZM77.3293 299.73V289.801L82.4432 286.912L86.1839 284.808V294.737L77.3293 299.73ZM77.3293 313.473V303.544L86.1839 298.551V308.48L77.3293 313.473Z" fill="white"/>
<path opacity="0.3" d="M88.6935 161.249L74.1332 169.456L74.3463 240.794L88.9066 232.588L88.6935 161.249ZM76.9979 171.039L85.8524 166.046V175.986L76.9979 180.979V171.039ZM76.9979 184.782L82.0999 181.904L85.8524 179.8V189.729L76.9979 194.722V184.782ZM76.9979 198.537L85.8524 193.543V203.484L77.1518 208.488L76.9979 198.537ZM76.9979 212.291L85.8524 207.298V217.238L77.1518 222.231L76.9979 212.291ZM76.9979 226.034L85.8524 221.041V230.981L77.1518 235.974L76.9979 226.034Z" fill="white"/>
<path d="M85.9235 189.741L85.8998 179.812L82.1473 181.916L77.0453 184.794L77.069 194.734L85.9235 189.741Z" fill="white"/>
<path d="M88.6934 161.249L88.6816 155.713L74.1213 163.919L74.1331 169.456L88.6934 161.249Z" fill="white"/>
<path d="M85.888 175.998L85.8525 166.057L76.998 171.051L77.0335 180.991L85.888 175.998Z" fill="white"/>
<path d="M86.0182 221.052L77.1637 226.045L77.1874 235.986L86.0419 230.992L86.0182 221.052Z" fill="white"/>
<path d="M86.2314 294.737L86.1959 284.808L82.4552 286.912L77.3414 289.801L77.3769 299.73L86.2314 294.737Z" fill="white"/>
<path d="M77.3885 303.544L77.4122 313.473L86.2668 308.491L86.2431 298.551L77.3885 303.544Z" fill="white"/>
<path d="M261.653 97.1579V93.3206C261.701 92.4933 261.948 91.6888 262.374 90.9719C262.8 90.2551 263.392 89.6461 264.103 89.1942L334.833 49.3178C335.088 49.1376 335.389 49.0303 335.702 49.0079C336.016 48.9854 336.33 49.0487 336.609 49.1907L338.976 50.8782C338.976 50.8782 337.414 51.8375 337.414 51.8722H337.26V57.2931L263.997 98.5681L261.653 97.1579Z" fill="#8AA4DF"/>
<path opacity="0.7" d="M261.653 97.1579V93.3206C261.701 92.4933 261.948 91.6888 262.374 90.9719C262.8 90.2551 263.392 89.6461 264.103 89.1942L334.833 49.3178C335.088 49.1376 335.389 49.0303 335.702 49.0079C336.016 48.9854 336.33 49.0487 336.609 49.1907L338.976 50.8782C338.976 50.8782 337.414 51.8375 337.414 51.8722H337.26V57.2931L263.997 98.5681L261.653 97.1579Z" fill="white"/>
<path d="M263.997 98.5681L337.283 57.2469L337.425 106.335C337.384 107.162 337.143 107.967 336.721 108.684C336.299 109.401 335.709 110.011 334.999 110.462L265.358 149.76L265.997 150.535L264.813 152.176L262.446 150.488C262.224 150.313 262.05 150.088 261.939 149.832C261.827 149.576 261.782 149.298 261.807 149.02L261.653 97.2042L263.997 98.5681Z" fill="#37474F"/>
<path d="M266.423 90.8471C265.711 91.2944 265.119 91.901 264.694 92.6166C264.27 93.3322 264.027 94.1362 263.985 94.9619V98.5681L339.604 55.9293V52.3346C339.604 50.8205 338.503 50.2079 337.153 50.9707L266.423 90.8471Z" fill="#8AA4DF"/>
<g opacity="0.5">
<path d="M266.423 90.8471C265.711 91.2944 265.119 91.901 264.694 92.6166C264.27 93.3322 264.027 94.1362 263.985 94.9619V98.5681L339.604 55.9293V52.3346C339.604 50.8205 338.503 50.2079 337.153 50.9707L266.423 90.8471Z" fill="white"/>
</g>
<path d="M263.997 98.5681L264.139 150.581C264.139 152.095 265.251 152.708 266.601 151.945L337.331 112.091C338.04 111.641 338.631 111.034 339.055 110.319C339.478 109.604 339.723 108.801 339.769 107.977L339.615 55.9639L263.997 98.5681Z" fill="#455A64"/>
<path d="M314.78 112.993L314.792 115.166L335.78 103.33V101.157L314.78 112.993Z" fill="#8AA4DF"/>
<path d="M267.808 107.179L267.82 109.352L321.835 78.8957V76.7227L267.808 107.179Z" fill="#8AA4DF"/>
<path d="M314.673 76.0639L314.685 78.2369L335.673 66.4011V64.2281L314.673 76.0639Z" fill="#8AA4DF"/>
<g opacity="0.5">
<path d="M314.78 112.993L314.792 115.166L335.78 103.33V101.157L314.78 112.993Z" fill="white"/>
<path d="M267.809 107.179L267.82 109.352L321.835 78.8958V76.7228L267.809 107.179Z" fill="white"/>
<path d="M314.674 76.0639L314.685 78.2369L335.674 66.4011V64.2281L314.674 76.0639Z" fill="white"/>
<path d="M314.745 99.539L314.756 101.712L335.745 89.8762L335.733 87.7032L314.745 99.539Z" fill="white"/>
<path d="M321.03 86.6052L321.042 88.7782L335.721 80.5024L335.709 78.3294L321.03 86.6052Z" fill="white"/>
<path d="M294.929 128.886V131.059L321.942 115.825V113.663L294.929 128.886Z" fill="white"/>
<path d="M288.169 123.28L288.181 125.453L321.918 106.439L321.907 104.255L288.169 123.28Z" fill="white"/>
<path d="M305.133 90.2114V92.3843L321.847 82.9643V80.7913L305.133 90.2114Z" fill="white"/>
<path d="M280.688 114.045L280.7 116.218L321.883 92.997L321.871 90.824L280.688 114.045Z" fill="white"/>
<path d="M267.88 130.654L267.891 132.827L321.906 102.371L321.895 100.198L267.88 130.654Z" fill="white"/>
</g>
<path d="M80.5256 312.791V308.387C80.5765 307.437 80.8574 306.512 81.345 305.689C81.8327 304.865 82.5133 304.166 83.3311 303.648L164.513 257.889C164.806 257.679 165.152 257.552 165.514 257.524C165.876 257.495 166.238 257.566 166.561 257.727L169.308 259.657L167.52 260.813H167.331V266.974L83.2009 314.363L80.5256 312.791Z" fill="#8AA4DF"/>
<path opacity="0.3" d="M80.5256 312.791V308.387C80.5765 307.437 80.8574 306.512 81.345 305.689C81.8327 304.865 82.5133 304.166 83.3311 303.648L164.513 257.889C164.806 257.679 165.152 257.552 165.514 257.524C165.876 257.495 166.238 257.566 166.561 257.727L169.308 259.657L167.52 260.813H167.331V266.974L83.2009 314.363L80.5256 312.791Z" fill="white"/>
<path d="M83.2009 314.363L167.343 266.974L167.508 323.332C167.455 324.28 167.173 325.202 166.685 326.024C166.198 326.845 165.518 327.543 164.703 328.06L84.7634 373.137L85.4974 374.027L84.1597 375.9L81.4252 373.97C81.172 373.765 80.9738 373.504 80.848 373.208C80.7221 372.912 80.6724 372.59 80.7031 372.271L80.5256 312.791L83.2009 314.363Z" fill="#37474F"/>
<path d="M85.9946 305.544C85.1797 306.062 84.501 306.759 84.0136 307.581C83.5262 308.402 83.2438 309.324 83.1891 310.271V314.363L169.994 265.425V261.298C169.994 259.553 168.728 258.86 167.189 259.727L85.9946 305.544Z" fill="#8AA4DF"/>
<g opacity="0.1">
<path d="M85.9946 305.544C85.1797 306.062 84.501 306.759 84.0136 307.581C83.5262 308.402 83.2438 309.324 83.1891 310.271V314.363L169.994 265.425V261.298C169.994 259.553 168.728 258.86 167.189 259.727L85.9946 305.544Z" fill="white"/>
</g>
<path d="M83.2008 314.363L83.3784 374.108C83.3784 375.854 84.645 376.547 86.1957 375.68L167.39 329.909C168.203 329.391 168.88 328.693 169.366 327.871C169.851 327.05 170.131 326.129 170.184 325.182L170.006 265.425L83.2008 314.363Z" fill="#455A64"/>
<path d="M87.7109 361.752L87.7228 364.249L111.812 350.668V348.171L87.7109 361.752Z" fill="#8AA4DF"/>
<path d="M87.6635 346.31L87.6754 348.807L111.777 335.226L111.765 332.729L87.6635 346.31Z" fill="#8AA4DF"/>
<path d="M87.6635 335.7L87.6754 338.196L104.52 328.695L104.508 326.199L87.6635 335.7Z" fill="#8AA4DF"/>
<path d="M104.568 357.175L104.58 359.66L135.582 342.184L135.57 339.699L104.568 357.175Z" fill="#8AA4DF"/>
<path d="M104.651 346.484V348.969L143.383 327.147L143.372 324.65L104.651 346.484Z" fill="#8AA4DF"/>
<path d="M103.23 320.293L103.242 322.789L122.431 311.97L122.419 309.474L103.23 320.293Z" fill="#8AA4DF"/>
<path d="M104.674 330.394L104.686 332.891L151.954 306.249L151.942 303.752L104.674 330.394Z" fill="#8AA4DF"/>
<path d="M104.651 341.999V344.496L166.668 309.532L166.656 307.047L104.651 341.999Z" fill="#8AA4DF"/>
<path d="M103.147 315.831L103.159 318.328L165.164 283.363V280.867L103.147 315.831Z" fill="#8AA4DF"/>
<path d="M87.5926 319.356V321.853L111.694 308.272L111.682 305.775L87.5926 319.356Z" fill="#8AA4DF"/>
<g opacity="0.5">
<path d="M87.7108 361.752L87.7227 364.249L111.812 350.668V348.171L87.7108 361.752Z" fill="white"/>
<path d="M87.6635 346.31L87.6753 348.807L111.777 335.226L111.765 332.729L87.6635 346.31Z" fill="white"/>
<path d="M87.6635 335.7L87.6753 338.196L104.52 328.695L104.508 326.199L87.6635 335.7Z" fill="white"/>
<path d="M104.568 357.175L104.58 359.66L135.582 342.184L135.571 339.699L104.568 357.175Z" fill="white"/>
<path d="M104.651 346.484V348.969L143.383 327.147L143.372 324.65L104.651 346.484Z" fill="white"/>
<path d="M103.23 320.293L103.242 322.789L122.431 311.97L122.419 309.474L103.23 320.293Z" fill="white"/>
<path d="M104.674 330.394L104.686 332.891L151.954 306.249L151.942 303.752L104.674 330.394Z" fill="white"/>
<path d="M104.651 341.999V344.496L166.668 309.532L166.656 307.047L104.651 341.999Z" fill="white"/>
<path d="M103.147 315.831L103.159 318.328L165.165 283.363V280.867L103.147 315.831Z" fill="white"/>
<path d="M87.5926 319.356V321.853L111.694 308.272L111.682 305.775L87.5926 319.356Z" fill="white"/>
</g>
<path d="M314.745 99.539L314.757 101.712L335.745 89.8762L335.733 87.7032L314.745 99.539Z" fill="#8AA4DF"/>
<path d="M321.03 86.6051L321.042 88.7781L335.721 80.5023L335.709 78.3293L321.03 86.6051Z" fill="#8AA4DF"/>
<path d="M294.928 128.886V131.059L321.942 115.825V113.663L294.928 128.886Z" fill="#8AA4DF"/>
<path d="M288.169 123.28L288.181 125.453L321.918 106.439L321.906 104.255L288.169 123.28Z" fill="#8AA4DF"/>
<path d="M305.132 90.2113V92.3843L321.847 82.9642V80.7913L305.132 90.2113Z" fill="#8AA4DF"/>
<path d="M280.688 114.045L280.7 116.218L321.883 92.9969L321.871 90.8239L280.688 114.045Z" fill="#8AA4DF"/>
<path d="M267.879 130.654L267.891 132.827L321.906 102.371L321.894 100.198L267.879 130.654Z" fill="#8AA4DF"/>
<path d="M431.351 300.449H439.838C439.838 300.449 449.687 363.593 450.362 375.695C450.343 375.881 450.274 376.06 450.162 376.212C450.05 376.364 449.898 376.485 449.723 376.561C449.251 376.795 448.73 376.917 448.202 376.917C447.673 376.917 447.152 376.795 446.681 376.561C446.528 376.491 446.395 376.386 446.292 376.255C446.189 376.125 446.119 375.972 446.089 375.81C444.858 368.586 431.351 300.449 431.351 300.449Z" fill="#37474F"/>
<path opacity="0.3" d="M439.839 300.449C439.839 300.449 440.265 303.166 440.928 307.535C439.578 310.378 436.642 313.476 433.955 313.534C432.902 308.228 431.363 300.449 431.363 300.449H439.839Z" fill="black"/>
<path d="M440.856 353.398H432.381C432.381 353.398 422.532 416.542 421.845 428.655C421.862 428.841 421.931 429.018 422.043 429.169C422.156 429.32 422.309 429.438 422.484 429.51C422.956 429.749 423.48 429.874 424.012 429.874C424.543 429.874 425.067 429.749 425.539 429.51C425.689 429.438 425.821 429.332 425.924 429.202C426.027 429.072 426.097 428.92 426.13 428.759C427.35 421.535 440.856 353.398 440.856 353.398Z" fill="#37474F"/>
<path opacity="0.3" d="M432.381 353.398C432.381 353.398 431.954 356.115 431.28 360.495C433.776 361.484 436.435 362.025 439.128 362.09C440.182 356.773 440.856 353.398 440.856 353.398H432.381Z" fill="black"/>
<path d="M477.837 326.051H486.313C486.313 326.051 496.162 389.195 496.837 401.296C496.818 401.482 496.75 401.659 496.64 401.811C496.53 401.963 496.382 402.084 496.209 402.163C495.736 402.397 495.213 402.519 494.682 402.519C494.152 402.519 493.629 402.397 493.155 402.163C493.008 402.086 492.879 401.979 492.777 401.85C492.675 401.72 492.602 401.571 492.563 401.412C491.344 394.188 477.837 326.051 477.837 326.051Z" fill="#37474F"/>
<path opacity="0.3" d="M486.313 326.051C486.313 326.051 486.739 328.768 487.414 333.137C486.064 335.98 483.117 339.078 480.43 339.135C479.376 333.83 477.837 326.051 477.837 326.051H486.313Z" fill="black"/>
<path d="M390.689 325.184H382.213C382.213 325.184 372.364 388.328 371.689 400.383C371.708 400.57 371.777 400.748 371.889 400.901C372.002 401.053 372.153 401.174 372.328 401.25C372.8 401.484 373.321 401.605 373.85 401.605C374.378 401.605 374.899 401.484 375.371 401.25C375.525 401.179 375.66 401.073 375.763 400.94C375.866 400.807 375.935 400.652 375.963 400.487C377.182 393.321 390.689 325.184 390.689 325.184Z" fill="#37474F"/>
<path opacity="0.3" d="M382.213 325.184C382.213 325.184 381.787 327.901 381.124 332.27C382.568 333.946 385.741 336.523 388.44 336.581C389.481 331.276 390.689 325.184 390.689 325.184H382.213Z" fill="black"/>
<path d="M483.354 269.958L479.637 315.996L484.159 319.313L488.231 271.9L483.354 269.958Z" fill="#37474F"/>
<path d="M435.553 243.628L431.836 289.654L436.37 292.983L440.43 245.559L435.553 243.628Z" fill="#37474F"/>
<path d="M424.13 283.644C424.13 283.644 395.802 291.434 373.974 311.927V320.318C377.999 325.034 408.646 348.347 440.856 358.022C462.33 348.371 483.637 332.189 487.343 327.704V319.313C479.246 303.859 424.13 283.644 424.13 283.644Z" fill="#8AA4DF"/>
<path opacity="0.2" d="M373.974 311.962V320.353C377.999 325.069 408.646 348.382 440.856 358.056V349.665C408.646 339.991 377.999 316.677 373.974 311.962Z" fill="white"/>
<path opacity="0.2" d="M440.857 349.665V358.056C462.33 348.371 483.638 332.189 487.343 327.704V319.313C483.638 323.74 462.33 339.991 440.857 349.665Z" fill="black"/>
<path d="M498.683 260.527C498.681 259.864 498.488 259.216 498.127 258.654C479.246 229.758 440.123 220.835 431.434 223.02L427.385 227.008V247.732C457.571 251.477 483.46 270.698 493.913 285.516L495.31 284.984C496.306 284.598 497.162 283.93 497.765 283.064C498.369 282.199 498.693 281.177 498.695 280.13V260.527H498.683Z" fill="#8AA4DF"/>
<path opacity="0.1" d="M498.683 260.527C498.689 261.282 498.455 262.021 498.015 262.641C497.574 263.262 496.947 263.735 496.221 263.994L493.913 264.803V285.516L495.309 284.984C496.306 284.598 497.161 283.93 497.765 283.064C498.368 282.199 498.692 281.177 498.695 280.13V260.527H498.683Z" fill="black"/>
<path opacity="0.3" d="M493.913 264.803L496.221 263.994C496.947 263.735 497.574 263.262 498.015 262.641C498.455 262.021 498.689 261.282 498.683 260.527C498.681 259.864 498.488 259.216 498.127 258.654C479.246 229.758 440.123 220.835 431.434 223.02L427.385 227.008C436.086 225.447 479.104 233.839 493.913 264.803Z" fill="white"/>
<path opacity="0.3" d="M427.385 227.008V247.732C457.571 251.477 483.46 270.698 493.913 285.516V264.803C479.104 233.839 436.086 225.447 427.385 227.008Z" fill="black"/>
<path d="M370.873 449.483L372.056 456.349C377.632 453.76 379.431 450.836 379.431 450.836C379.573 445.565 379.502 440.144 379.431 437.509C377.951 440.71 374.696 442.872 372.684 445.831C371.93 446.972 371.322 448.198 370.873 449.483Z" fill="#8AA4DF"/>
<path d="M369.073 455.609L372.044 456.349L370.861 449.483C370.139 451.46 369.653 453.552 369.073 455.609Z" fill="#8AA4DF"/>
<path opacity="0.2" d="M370.873 449.483L372.056 456.349C377.632 453.76 379.431 450.836 379.431 450.836C379.573 445.565 379.502 440.144 379.431 437.509C377.951 440.71 374.696 442.872 372.684 445.831C371.93 446.972 371.322 448.198 370.873 449.483Z" fill="black"/>
<path opacity="0.3" d="M369.073 455.609L372.044 456.349L370.861 449.483C370.139 451.46 369.653 453.552 369.073 455.609Z" fill="black"/>
<path d="M379.715 429.903C379.128 428.087 378.355 426.332 377.407 424.667C377.324 427.487 376.429 430.227 374.826 432.573C372.814 435.729 370.091 438.457 368.209 441.658C365.842 445.565 364.658 450.165 361.568 453.54C360.048 455.179 358.158 456.45 356.048 457.252C353.938 458.055 351.666 458.367 349.411 458.164C347.722 458.11 346.122 457.408 344.96 456.21C344.488 455.619 344.23 454.891 344.226 454.141C342.711 455.733 341.033 457.17 339.219 458.429C337.183 459.805 334.756 461.261 334.425 463.654C334.369 464.654 334.616 465.648 335.133 466.513C335.651 467.378 336.417 468.076 337.337 468.52C339.186 469.378 341.208 469.82 343.255 469.814C347.627 470.199 352.035 469.831 356.277 468.728C360.562 467.596 364.273 464.968 366.706 461.342C367.762 459.53 368.558 457.586 369.073 455.563C369.653 453.506 370.139 451.414 370.872 449.437C371.326 448.152 371.938 446.925 372.695 445.785C374.72 442.826 377.963 440.664 379.443 437.463C379.526 437.289 379.621 437.127 379.692 436.954C380.464 434.666 380.472 432.197 379.715 429.903Z" fill="#8AA4DF"/>
<path d="M349.411 458.175C351.666 458.378 353.938 458.066 356.048 457.264C358.158 456.461 360.048 455.19 361.568 453.552C364.646 450.177 365.865 445.576 368.209 441.67C370.139 438.468 372.814 435.74 374.826 432.585C376.429 430.238 377.324 427.499 377.407 424.679C377.951 422.633 379.017 420.206 378.78 419.767C373.003 419.27 369.156 417.86 362.681 416.97C359.369 426.217 355.568 435.291 351.293 444.155C349.417 447.796 347.026 451.161 344.191 454.153C344.195 454.903 344.453 455.63 344.924 456.222C345.504 456.819 346.199 457.299 346.969 457.634C347.738 457.969 348.568 458.153 349.411 458.175Z" fill="#FFA8A7"/>
<path d="M387.41 387.993C386.699 398.915 383.858 406.821 381.657 421.72C381.657 421.72 368.268 425.615 359.923 419.928L359.58 396.985L387.41 387.993Z" fill="#37474F"/>
<path d="M329.109 433.729L330.293 440.583C335.869 437.994 337.668 435.07 337.668 435.07C337.81 429.799 337.751 424.378 337.668 421.743C336.188 424.945 332.933 427.118 330.921 430.065C330.165 431.209 329.557 432.44 329.109 433.729Z" fill="#8AA4DF"/>
<path d="M327.381 439.844L330.34 440.583L329.157 433.729C328.387 435.694 327.902 437.798 327.381 439.844Z" fill="#8AA4DF"/>
<path opacity="0.2" d="M329.109 433.729L330.293 440.583C335.869 437.994 337.668 435.07 337.668 435.07C337.81 429.799 337.751 424.378 337.668 421.743C336.188 424.945 332.933 427.118 330.921 430.065C330.165 431.209 329.557 432.44 329.109 433.729Z" fill="black"/>
<path opacity="0.3" d="M327.381 439.844L330.34 440.583L329.157 433.729C328.387 435.694 327.902 437.798 327.381 439.844Z" fill="black"/>
<path d="M337.952 414.138C337.374 412.319 336.605 410.565 335.656 408.902C335.569 411.722 334.67 414.462 333.063 416.808C331.063 419.975 328.328 422.691 326.458 425.904C324.09 429.799 322.906 434.4 319.805 437.786C318.288 439.425 316.4 440.697 314.292 441.499C312.184 442.302 309.913 442.613 307.66 442.409C305.969 442.36 304.369 441.657 303.209 440.456C302.737 439.863 302.476 439.137 302.463 438.387C300.953 439.985 299.275 441.422 297.456 442.675C295.431 444.062 292.993 445.519 292.661 447.911C292.609 448.911 292.857 449.904 293.374 450.768C293.891 451.633 294.656 452.331 295.573 452.777C297.423 453.635 299.445 454.077 301.492 454.072C305.865 454.445 310.271 454.074 314.514 452.974C318.796 451.842 322.503 449.213 324.931 445.588C325.986 443.776 326.783 441.832 327.298 439.809C327.878 437.763 328.364 435.659 329.086 433.694C329.54 432.404 330.157 431.173 330.92 430.03C332.933 427.083 336.188 424.91 337.668 421.708C337.757 421.543 337.836 421.374 337.905 421.2C338.693 418.911 338.71 416.436 337.952 414.138Z" fill="#8AA4DF"/>
<path d="M307.659 442.398C309.913 442.602 312.183 442.29 314.292 441.488C316.4 440.685 318.288 439.414 319.805 437.775C322.894 434.388 324.102 429.788 326.458 425.893C328.375 422.679 331.062 419.963 333.063 416.796C334.67 414.451 335.569 411.711 335.655 408.89C336.188 406.844 337.265 404.417 337.017 403.978C331.24 403.481 327.393 402.071 320.929 401.181C317.613 410.429 313.808 419.503 309.53 428.366C307.656 432.009 305.265 435.374 302.427 438.364C302.44 439.114 302.702 439.84 303.173 440.433C303.751 441.034 304.444 441.517 305.215 441.854C305.985 442.192 306.816 442.376 307.659 442.398Z" fill="#FFA8A7"/>
<path d="M349.873 375.198C347.292 385.843 343.101 393.171 338.366 407.492C338.366 407.492 324.481 409.121 317.248 402.129L323.475 364.737L349.873 375.198Z" fill="#37474F"/>
<path d="M434.855 345.677C442.857 342.314 479.116 324.687 455.121 290.475L395.637 282.141C393.684 300.369 376.531 312.308 376.531 312.308L434.855 345.677Z" fill="#37474F"/>
<path d="M422.934 301.062C434.438 300.398 445.551 296.743 455.121 290.475C452.485 285.901 449.405 281.585 445.923 277.587L392.819 282.21C392.299 286.51 391.904 290.748 391.636 294.925C401.379 299.494 412.14 301.604 422.934 301.062Z" fill="#FFA8A7"/>
<path d="M389.635 210.121C389.398 208.759 389.434 207.366 389.742 206.018C390.014 204.862 393.376 197.927 392.926 197.487C390.076 194.666 388.308 190.972 387.92 187.027C387.532 183.082 388.547 179.127 390.795 175.827C389.555 175.395 388.498 174.572 387.791 173.488C387.084 172.404 386.767 171.121 386.89 169.841C387.014 168.561 387.571 167.358 388.473 166.422C389.376 165.486 390.572 164.871 391.872 164.673C394.015 164.315 396.158 165.112 398.3 165.563C401.956 166.211 405.701 166.211 409.357 165.563C413.014 165.043 416.66 164.269 420.354 164.003C424.056 163.611 427.801 164.132 431.244 165.517C432.958 166.219 434.485 167.296 435.706 168.665C436.927 170.034 437.81 171.657 438.288 173.411C443.769 172.36 450.125 176.729 451.143 182.092C452.161 187.455 448.989 192.494 449.474 197.776C450.006 201.353 451.66 204.68 454.209 207.3C456.577 210.017 459.43 212.328 461.916 214.952C468.773 222.216 472.864 231.561 473.505 241.421C473.836 246.923 472.984 252.69 469.835 257.267C463.656 266.26 447.071 268.514 436.879 268.132C426.425 267.728 416.313 264.385 407.758 258.504C401.84 254.459 396.501 248.437 396.714 241.421C396.809 238.115 398.135 234.994 399.082 231.804C400.029 228.614 400.419 225.066 398.845 222.141C397.27 219.217 393.755 217.403 391.648 214.64C390.61 213.316 389.919 211.765 389.635 210.121Z" fill="#263238"/>
<path d="M404.16 236.74C405.823 237.856 407.83 238.378 409.842 238.219C414.75 238.222 419.592 237.115 423.989 234.986C428.386 232.856 432.219 229.761 435.186 225.944L429.551 225.459V207.774L409.984 215.149V225.366H404.965C403.945 226.611 403.145 228.014 402.597 229.516C401.721 232.001 402.1 235.098 404.16 236.74Z" fill="#FFA8A7"/>
<path d="M428.178 208.283C425.006 215.287 418.708 221.298 409.984 222.292V215.149L428.178 208.283Z" fill="#F28F8F"/>
<path d="M426.071 194.159C425.805 195.635 425.734 197.138 425.858 198.632C426.018 199.764 426.549 200.814 427.373 201.625C427.773 202.012 428.264 202.295 428.803 202.451C429.343 202.606 429.913 202.628 430.463 202.515C430.107 201.019 430.37 199.446 431.194 198.137C432.018 196.828 433.337 195.89 434.865 195.525C436.394 195.16 438.008 195.398 439.358 196.187C440.707 196.976 441.684 198.253 442.076 199.741C442.335 200.783 442.358 201.867 442.141 202.917C441.924 203.968 441.473 204.959 440.821 205.821C439.506 207.541 437.795 208.935 435.825 209.89C434.701 210.252 433.482 210.219 432.38 209.797C431.277 209.375 430.361 208.59 429.788 207.578C423.976 214.779 413.831 220.177 404.326 219.402C401.72 219.269 399.209 218.406 397.093 216.917C393.542 214.201 393.234 210.098 392.784 206.052C392.113 200.927 392.153 195.737 392.902 190.622C394.086 183.571 397.282 176.636 402.893 172.047C406.149 187.385 420.555 193.026 426.071 194.159Z" fill="#FFA8A7"/>
<path d="M406.279 192.413L399.768 200.238L405.817 202.273L406.279 192.413Z" fill="#F28F8F"/>
<path d="M411.428 206.087L406.361 207.659C406.689 208.24 407.2 208.702 407.819 208.975C408.438 209.248 409.131 209.318 409.794 209.173C410.387 208.919 410.873 208.474 411.17 207.912C411.467 207.35 411.558 206.706 411.428 206.087Z" fill="#F28F8F"/>
<path opacity="0.3" d="M411.428 206.087L406.361 207.659C406.689 208.24 407.2 208.702 407.819 208.975C408.438 209.248 409.131 209.318 409.794 209.173C410.387 208.919 410.873 208.474 411.17 207.912C411.467 207.35 411.558 206.706 411.428 206.087Z" fill="black"/>
<path d="M408.078 209.081C408.613 209.271 409.194 209.303 409.747 209.173C410.215 208.993 410.618 208.684 410.908 208.284C411.199 207.884 411.363 207.409 411.381 206.919C410.703 206.82 410.011 206.946 409.416 207.277C408.744 207.683 408.263 208.331 408.078 209.081Z" fill="#F28F8F"/>
<path d="M415.24 194.043C415.223 194.392 415.101 194.729 414.888 195.01C414.676 195.291 414.382 195.505 414.046 195.624C413.709 195.742 413.344 195.761 412.996 195.677C412.648 195.593 412.334 195.411 412.093 195.152C411.851 194.894 411.694 194.572 411.64 194.226C411.586 193.881 411.639 193.527 411.79 193.21C411.942 192.894 412.187 192.628 412.493 192.447C412.799 192.266 413.154 192.178 413.512 192.194C413.75 192.203 413.984 192.258 414.201 192.356C414.417 192.454 414.611 192.593 414.772 192.765C414.933 192.937 415.057 193.139 415.137 193.358C415.218 193.578 415.253 193.81 415.24 194.043Z" fill="#263238"/>
<path d="M400.111 192.806C400.095 193.156 399.972 193.492 399.76 193.773C399.547 194.055 399.254 194.268 398.917 194.387C398.58 194.506 398.215 194.524 397.868 194.44C397.52 194.356 397.206 194.174 396.964 193.916C396.723 193.657 396.565 193.335 396.512 192.989C396.458 192.644 396.51 192.29 396.662 191.974C396.814 191.657 397.058 191.392 397.365 191.211C397.671 191.03 398.025 190.941 398.383 190.957C398.622 190.966 398.856 191.021 399.072 191.119C399.289 191.217 399.483 191.356 399.644 191.528C399.805 191.7 399.929 191.902 400.009 192.121C400.089 192.341 400.124 192.574 400.111 192.806Z" fill="#263238"/>
<path d="M398.679 185.709L394.548 188.241C394.398 187.748 394.405 187.222 394.568 186.733C394.731 186.244 395.041 185.814 395.459 185.501C395.962 185.239 396.531 185.12 397.1 185.156C397.669 185.193 398.216 185.385 398.679 185.709Z" fill="#263238"/>
<path d="M414.139 186.183L418.022 189.061C418.217 188.584 418.259 188.06 418.143 187.558C418.026 187.057 417.757 186.602 417.371 186.253C416.893 185.947 416.336 185.779 415.765 185.766C415.194 185.754 414.63 185.899 414.139 186.183Z" fill="#263238"/>
<path d="M457.346 291.295C447.237 276.454 446.633 266.063 451.676 257.302C453.215 254.644 452.954 243.917 452.516 236.069C452.388 233.655 451.369 231.367 449.648 229.63C447.927 227.892 445.62 226.821 443.153 226.615L435.186 225.944C432.219 229.761 428.386 232.856 423.989 234.986C419.592 237.115 414.75 238.222 409.842 238.219C406.882 238.219 403.615 237.699 402.432 234.162C402.108 233.182 402.022 232.141 402.183 231.122C402.571 228.99 403.531 226.996 404.965 225.343H400.099C394.252 230.417 383.195 250.956 382.509 262.006C382.166 267.554 386.545 270.282 389.611 272.004C389.611 272.004 391.671 280.188 388.605 295.375C403.497 305.685 438.264 306.76 457.346 291.295Z" fill="#8AA4DF"/>
<path opacity="0.2" d="M432.57 261.937C429.831 265.779 425.83 268.593 421.23 269.913C416.63 271.233 411.706 270.98 407.273 269.196C409.151 270.979 411.457 272.274 413.98 272.961C416.504 273.647 419.163 273.704 421.715 273.125C426.817 271.866 431.067 266.803 432.57 261.937Z" fill="black"/>
<path d="M429.552 223.76V225.459L419.928 264.757C419.928 264.757 420.898 285.539 433.766 309.072C448.35 311.754 460.116 303.963 463.206 300.091C454.375 288.348 448.527 265.416 448.527 265.416L447.024 226.776L430.724 225.678L429.552 223.76Z" fill="#455A64"/>
<path d="M429.552 225.459V223.76L434.156 231.781C434.417 232.236 434.525 232.76 434.466 233.278C434.407 233.796 434.182 234.283 433.825 234.671L428.64 240.334L431.304 242.808C431.729 243.202 432.003 243.727 432.081 244.295C432.158 244.863 432.034 245.439 431.73 245.929L419.892 264.792L429.552 225.459Z" fill="#455A64"/>
<path opacity="0.3" d="M429.552 225.459V223.76L434.156 231.781C434.417 232.236 434.525 232.76 434.466 233.278C434.407 233.796 434.182 234.283 433.825 234.671L428.64 240.334L431.304 242.808C431.729 243.202 432.003 243.727 432.081 244.295C432.158 244.863 432.034 245.439 431.73 245.929L419.892 264.792L429.552 225.459Z" fill="white"/>
<path opacity="0.2" d="M436.5 234.301L425.396 281.528L423.088 282.338L424.094 275.946C426.35 261.606 430.521 247.617 436.5 234.336V234.301Z" fill="black"/>
<path opacity="0.2" d="M448.586 289.192L450.812 273.137C449.332 268.514 448.527 265.335 448.527 265.335L448.172 256.412L428.131 297.202C428.865 298.982 429.658 300.796 430.499 302.657L437.471 301.097C440.342 300.448 442.943 298.961 444.928 296.835C446.913 294.708 448.189 292.043 448.586 289.192Z" fill="black"/>
<path d="M390.973 297.791C390.902 284.545 390.973 269.173 392.31 260.642C396.678 241.421 402.384 234.232 407.238 225.366H409.984V222.292L405.628 225.366H400.1C380.047 248.425 380.141 261.116 379.976 264.792C379.81 268.467 380.579 291.942 380.579 291.942L390.973 297.791Z" fill="#455A64"/>
<path d="M398.407 230.475C398.051 230.728 397.767 231.066 397.583 231.457C397.398 231.847 397.319 232.277 397.353 232.706L397.72 237.329L393.163 239.063C392.655 239.257 392.224 239.603 391.93 240.052C391.637 240.5 391.496 241.028 391.529 241.559L392.713 259.036C397.022 241.051 402.538 234 407.249 225.389H409.996V222.315L398.407 230.475Z" fill="#455A64"/>
<g opacity="0.3">
<path d="M398.407 230.475C398.051 230.728 397.767 231.066 397.583 231.457C397.398 231.847 397.319 232.277 397.353 232.706L397.72 237.329L393.163 239.063C392.655 239.257 392.224 239.603 391.93 240.052C391.637 240.5 391.496 241.028 391.529 241.559L392.713 259.036C397.022 241.051 402.538 234 407.249 225.389H409.996V222.315L398.407 230.475Z" fill="white"/>
</g>
<path d="M203.477 310.667V423.488L207.561 421.188V308.355L203.477 310.667Z" fill="#455A64"/>
<path d="M203.476 310.667V423.488L199.392 421.188V308.355L203.476 310.667Z" fill="#37474F"/>
<path d="M207.561 340.754L303.197 286.845V282.557L207.561 336.465V340.754Z" fill="#455A64"/>
<path d="M207.561 331.934L299.113 280.257L303.197 282.557L207.561 336.465V331.934Z" fill="#37474F"/>
<path d="M470.202 348.671V461.492L474.286 459.192V346.359L470.202 348.671Z" fill="#455A64"/>
<path d="M470.202 348.671V461.492L466.118 459.192V346.359L470.202 348.671Z" fill="#37474F"/>
<path d="M370.482 404.903V517.724L374.566 515.424V402.591L370.482 404.903Z" fill="#455A64"/>
<path d="M370.482 404.903V517.724L366.398 515.424V402.591L370.482 404.903Z" fill="#37474F"/>
<path d="M374.566 434.989L470.202 381.081V376.793L374.566 430.701V434.989Z" fill="#455A64"/>
<path d="M374.566 426.17L466.118 374.492L470.202 376.793L374.566 430.701V426.17Z" fill="#37474F"/>
<g opacity="0.2">
<path d="M470.202 348.671V461.492L474.286 459.192V346.359L470.202 348.671Z" fill="white"/>
<path d="M470.202 348.671V461.492L466.118 459.192V346.359L470.202 348.671Z" fill="white"/>
<path d="M370.482 404.903V517.724L374.566 515.424V402.591L370.482 404.903Z" fill="white"/>
<path d="M370.482 404.903V517.724L366.398 515.424V402.591L370.482 404.903Z" fill="white"/>
<path d="M374.566 434.989L470.202 381.081V376.793L374.566 430.701V434.989Z" fill="white"/>
<path d="M374.566 426.17L466.118 374.492L470.202 376.793L374.566 430.701V426.17Z" fill="white"/>
</g>
<g opacity="0.2">
<path d="M203.477 310.667V423.488L207.561 421.188V308.355L203.477 310.667Z" fill="white"/>
<path d="M203.476 310.667V423.488L199.392 421.188V308.355L203.476 310.667Z" fill="white"/>
<path d="M207.561 340.754L303.197 286.845V282.557L207.561 336.465V340.754Z" fill="white"/>
<path d="M207.561 331.934L299.113 280.257L303.197 282.557L207.561 336.465V331.934Z" fill="white"/>
</g>
<path d="M370.482 394.015L199.381 297.791L303.185 239.248L474.286 335.471L370.482 394.015Z" fill="#8AA4DF"/>
<path d="M370.482 404.903L199.381 308.355V297.791L370.482 394.015V404.903Z" fill="#8AA4DF"/>
<path d="M370.482 394.003L474.286 335.46V346.359L370.482 404.903V394.003Z" fill="#8AA4DF"/>
<path opacity="0.4" d="M370.482 394.015L199.381 297.791L303.185 239.248L474.286 335.471L370.482 394.015Z" fill="white"/>
<path opacity="0.3" d="M370.482 394.003L474.286 335.46V346.359L370.482 404.903V394.003Z" fill="white"/>
<path opacity="0.2" d="M370.482 404.903L199.381 308.355V297.791L370.482 394.015V404.903Z" fill="white"/>
<path opacity="0.05" d="M379.111 364.552C376.344 363.179 373.284 362.463 370.18 362.463C367.076 362.463 364.015 363.179 361.248 364.552C356.336 367.349 356.359 371.869 361.308 374.654C364.073 376.033 367.134 376.752 370.239 376.752C373.344 376.752 376.405 376.033 379.171 374.654C384.083 371.869 384.059 367.349 379.111 364.552Z" fill="black"/>
<path d="M383.397 347.007L369.831 347.388L356.253 347.007C355.673 355.953 357.437 365.072 359.923 369.534C360.505 370.68 361.446 371.615 362.61 372.204C364.849 373.315 367.325 373.895 369.837 373.895C372.349 373.895 374.825 373.315 377.064 372.204C378.247 371.608 379.192 370.644 379.751 369.465C382.213 364.98 383.989 355.907 383.397 347.007Z" fill="white"/>
<path d="M379.396 341.574C384.711 344.579 384.746 349.434 379.455 352.439C374.163 355.444 365.581 355.433 360.254 352.439C354.927 349.445 354.915 344.579 360.254 341.574C365.593 338.569 374.08 338.581 379.396 341.574Z" fill="#EBEBEB"/>
<path d="M377.289 342.765C381.444 345.076 381.467 348.902 377.289 351.237C374.971 352.394 372.404 352.997 369.801 352.997C367.198 352.997 364.632 352.394 362.314 351.237C358.171 348.925 358.147 345.111 362.314 342.765C364.635 341.617 367.2 341.019 369.801 341.019C372.403 341.019 374.968 341.617 377.289 342.765Z" fill="#E0E0E0"/>
<g opacity="0.15">
<path d="M377.289 342.765C381.444 345.076 381.467 348.902 377.289 351.237C374.971 352.394 372.404 352.997 369.801 352.997C367.198 352.997 364.632 352.394 362.314 351.237C358.171 348.925 358.147 345.111 362.314 342.765C364.635 341.617 367.2 341.019 369.801 341.019C372.403 341.019 374.968 341.617 377.289 342.765Z" fill="black"/>
</g>
<path d="M368.694 347.377C369.782 348.27 371.072 348.897 372.458 349.204C373.844 349.512 375.285 349.492 376.661 349.145C377.985 348.751 379.187 348.042 380.16 347.082C381.134 346.121 381.847 344.94 382.237 343.643C380.628 342.897 379.156 341.898 377.88 340.684C379.916 340.191 382.054 340.267 384.048 340.904C384.608 340.053 384.944 339.08 385.025 338.071C385.105 337.062 384.928 336.05 384.509 335.125C382.196 334.118 379.592 333.942 377.158 334.628C378.168 333.765 379.35 333.114 380.629 332.716C381.908 332.319 383.257 332.182 384.592 332.316C384.784 328.518 384.176 324.722 382.805 321.162C377.75 321.416 372.837 323.543 371.192 325.08C371.112 326.847 371.3 328.615 371.748 330.328C371.093 330.002 370.532 329.52 370.118 328.926C369.704 328.332 369.45 327.645 369.381 326.93C366.22 327.704 364.859 329.241 364.362 330.397C364.826 332.593 365.861 334.635 367.369 336.327C366.416 335.964 365.552 335.41 364.833 334.702C364.113 333.993 363.553 333.145 363.19 332.212C360.278 339.054 360.834 346.718 368.694 347.377Z" fill="#8AA4DF"/>
<path opacity="0.2" d="M368.694 347.377C369.782 348.27 371.072 348.897 372.458 349.204C373.844 349.512 375.285 349.492 376.661 349.145C377.985 348.751 379.187 348.042 380.16 347.082C381.134 346.121 381.847 344.94 382.237 343.643C380.628 342.897 379.156 341.898 377.88 340.684C379.916 340.191 382.054 340.267 384.048 340.904C384.608 340.053 384.944 339.08 385.025 338.071C385.105 337.062 384.928 336.05 384.509 335.125C382.196 334.118 379.592 333.942 377.158 334.628C378.168 333.765 379.35 333.114 380.629 332.716C381.908 332.319 383.257 332.182 384.592 332.316C384.784 328.518 384.176 324.722 382.805 321.162C377.75 321.416 372.837 323.543 371.192 325.08C371.112 326.847 371.3 328.615 371.748 330.328C371.093 330.002 370.532 329.52 370.118 328.926C369.704 328.332 369.45 327.645 369.381 326.93C366.22 327.704 364.859 329.241 364.362 330.397C364.826 332.593 365.861 334.635 367.369 336.327C366.416 335.964 365.552 335.41 364.833 334.702C364.113 333.993 363.553 333.145 363.19 332.212C360.278 339.054 360.834 346.718 368.694 347.377Z" fill="black"/>
<path opacity="0.3" d="M368.694 347.377C369.782 348.27 371.072 348.897 372.458 349.204C373.844 349.512 375.285 349.492 376.661 349.145C377.985 348.751 379.187 348.042 380.16 347.082C381.134 346.121 381.847 344.94 382.237 343.643C380.628 342.897 379.156 341.898 377.88 340.684C379.916 340.191 382.054 340.267 384.048 340.904C384.608 340.053 384.944 339.08 385.025 338.071C385.105 337.062 384.928 336.05 384.509 335.125C382.196 334.118 379.592 333.942 377.158 334.628C378.168 333.765 379.35 333.114 380.629 332.716C381.908 332.319 383.257 332.182 384.592 332.316C384.784 328.518 384.176 324.722 382.805 321.162C377.75 321.416 372.837 323.543 371.192 325.08C371.112 326.847 371.3 328.615 371.748 330.328C371.093 330.002 370.532 329.52 370.118 328.926C369.704 328.332 369.45 327.645 369.381 326.93C366.22 327.704 364.859 329.241 364.362 330.397C364.826 332.593 365.861 334.635 367.369 336.327C366.416 335.964 365.552 335.41 364.833 334.702C364.113 333.993 363.553 333.145 363.19 332.212C360.278 339.054 360.834 346.718 368.694 347.377Z" fill="white"/>
<path d="M368.517 348.116C368.439 348.108 368.368 348.071 368.318 348.013C368.267 347.955 368.241 347.88 368.244 347.804C368.73 341.563 372.388 331.264 381.112 322.769C381.137 322.741 381.169 322.72 381.203 322.705C381.238 322.69 381.275 322.682 381.313 322.682C381.351 322.682 381.389 322.69 381.423 322.705C381.458 322.72 381.489 322.741 381.514 322.769C381.543 322.795 381.565 322.826 381.581 322.861C381.596 322.896 381.604 322.933 381.604 322.971C381.604 323.009 381.596 323.046 381.581 323.081C381.565 323.116 381.543 323.147 381.514 323.173C372.92 331.553 369.31 341.667 368.836 347.85C368.833 347.888 368.823 347.925 368.805 347.959C368.787 347.993 368.763 348.024 368.733 348.048C368.703 348.073 368.669 348.092 368.632 348.103C368.595 348.115 368.556 348.119 368.517 348.116Z" fill="#F5F5F5"/>
<path d="M370.908 350.682C369.895 351.501 368.697 352.074 367.413 352.351C366.129 352.629 364.795 352.604 363.523 352.279C362.25 351.953 361.076 351.337 360.096 350.481C359.115 349.624 358.358 348.552 357.887 347.353C359.343 346.704 360.677 345.816 361.828 344.73C359.902 344.284 357.888 344.343 355.993 344.903C355.418 344.189 355.042 343.344 354.899 342.447C354.756 341.55 354.851 340.633 355.176 339.783C357.38 338.892 359.827 338.749 362.124 339.378C360.075 337.822 357.502 337.076 354.915 337.286C354.474 333.936 354.806 330.532 355.886 327.323C360.716 327.612 365.486 329.565 367.144 330.94C367.327 332.482 367.263 334.042 366.954 335.564C367.538 335.295 368.034 334.872 368.385 334.343C368.736 333.815 368.93 333.2 368.943 332.57C371.973 333.287 373.335 334.662 373.867 335.714C373.579 337.65 372.733 339.466 371.429 340.95C372.278 340.655 373.049 340.177 373.682 339.55C374.316 338.924 374.796 338.166 375.087 337.332C378.283 343.389 378.212 350.15 370.908 350.682Z" fill="#8AA4DF"/>
<path opacity="0.3" d="M370.908 350.682C369.895 351.501 368.697 352.074 367.413 352.351C366.129 352.629 364.795 352.604 363.523 352.279C362.25 351.953 361.076 351.337 360.096 350.481C359.115 349.624 358.358 348.552 357.887 347.353C359.343 346.704 360.677 345.816 361.828 344.73C359.902 344.284 357.888 344.343 355.993 344.903C355.418 344.189 355.042 343.344 354.899 342.447C354.756 341.55 354.851 340.633 355.176 339.783C357.38 338.892 359.827 338.749 362.124 339.378C360.075 337.822 357.502 337.076 354.915 337.286C354.474 333.936 354.806 330.532 355.886 327.323C360.716 327.612 365.486 329.565 367.144 330.94C367.327 332.482 367.263 334.042 366.954 335.564C367.538 335.295 368.034 334.872 368.385 334.343C368.736 333.815 368.93 333.2 368.943 332.57C371.973 333.287 373.335 334.662 373.867 335.714C373.579 337.65 372.733 339.466 371.429 340.95C372.278 340.655 373.049 340.177 373.682 339.55C374.316 338.924 374.796 338.166 375.087 337.332C378.283 343.389 378.212 350.15 370.908 350.682Z" fill="white"/>
<path d="M371.097 351.399C371.029 351.397 370.962 351.372 370.911 351.327C370.859 351.283 370.824 351.223 370.813 351.156C369.985 345.724 365.936 336.708 357.271 329.195C357.217 329.141 357.187 329.069 357.187 328.993C357.187 328.917 357.217 328.845 357.271 328.791C357.298 328.763 357.33 328.741 357.365 328.726C357.401 328.711 357.439 328.703 357.478 328.703C357.517 328.703 357.556 328.711 357.591 328.726C357.627 328.741 357.659 328.763 357.685 328.791C366.469 336.419 370.577 345.585 371.417 351.121C371.427 351.196 371.407 351.272 371.36 351.333C371.314 351.393 371.245 351.434 371.168 351.445L371.097 351.399Z" fill="white"/>
<path d="M286.21 293.757L326.541 270.86C327.825 270.227 329.245 269.897 330.684 269.897C332.123 269.897 333.542 270.227 334.827 270.86L401.366 308.379C401.818 308.58 402.212 308.889 402.512 309.276C402.811 309.664 403.008 310.118 403.083 310.598V313.094C403.106 313.267 403.106 313.442 403.083 313.614C403.077 313.633 403.077 313.653 403.083 313.672C403.012 313.868 402.916 314.054 402.798 314.227V314.285C402.656 314.485 402.489 314.668 402.301 314.828C402.075 315.025 401.829 315.199 401.567 315.348L361.225 338.234C360.849 338.44 360.453 338.607 360.041 338.731C359.899 338.789 359.757 338.823 359.603 338.87C359.449 338.916 359.212 338.974 359.011 339.008C358.81 339.043 358.538 339.101 358.301 339.124H358.123C357.796 339.141 357.468 339.141 357.141 339.124H356.987C356.655 339.124 356.324 339.124 356.004 339.124H355.862C355.544 339.088 355.227 339.034 354.915 338.962H354.75C354.477 338.895 354.208 338.814 353.945 338.719H353.791C353.483 338.606 353.186 338.467 352.903 338.303L286.222 300.75C285.954 300.598 285.701 300.424 285.464 300.23L285.275 300.022C285.154 299.904 285.039 299.781 284.931 299.652C284.883 299.57 284.84 299.485 284.801 299.398C284.723 299.281 284.655 299.157 284.6 299.028C284.6 298.947 284.6 298.854 284.6 298.762C284.587 298.639 284.587 298.515 284.6 298.392V296.08C284.64 295.59 284.809 295.119 285.091 294.711C285.373 294.304 285.759 293.975 286.21 293.757Z" fill="#E0E0E0"/>
<path d="M290.152 296.092L354.797 332.536L355.057 332.663H355.188C355.318 332.663 355.436 332.744 355.697 332.801C355.814 332.831 355.932 332.854 356.052 332.871H356.3C356.509 332.885 356.719 332.885 356.928 332.871H356.975C357.196 332.886 357.417 332.886 357.638 332.871L358.052 332.801L358.585 332.663C358.738 332.624 358.886 332.566 359.023 332.489L379.822 320.677L313.058 283.089L290.152 296.092Z" fill="#E0E0E0"/>
<path d="M351.648 286.071L339.491 293.006C339.291 293.101 339.122 293.248 339.004 293.432C338.886 293.616 338.823 293.829 338.823 294.046C338.823 294.263 338.886 294.476 339.004 294.66C339.122 294.844 339.291 294.992 339.491 295.086L357.673 305.339C357.983 305.512 358.334 305.603 358.692 305.603C359.049 305.603 359.4 305.512 359.71 305.339L371.867 298.404C372.067 298.309 372.236 298.161 372.354 297.977C372.472 297.793 372.535 297.581 372.535 297.363C372.535 297.146 372.472 296.934 372.354 296.75C372.236 296.566 372.067 296.418 371.867 296.323L353.672 286.071C353.365 285.897 353.016 285.806 352.66 285.806C352.305 285.806 351.956 285.897 351.648 286.071Z" fill="#E0E0E0"/>
<path opacity="0.2" d="M290.152 296.092L354.797 332.536L355.057 332.663H355.188C355.318 332.663 355.436 332.744 355.697 332.801C355.814 332.831 355.932 332.854 356.052 332.871H356.3C356.509 332.885 356.719 332.885 356.928 332.871H356.975C357.196 332.886 357.417 332.886 357.638 332.871L358.052 332.801L358.585 332.663C358.738 332.624 358.886 332.566 359.023 332.489L379.822 320.677L313.058 283.089L290.152 296.092Z" fill="black"/>
<path opacity="0.2" d="M351.648 286.071L339.491 293.006C339.291 293.101 339.122 293.248 339.004 293.432C338.886 293.616 338.823 293.829 338.823 294.046C338.823 294.263 338.886 294.476 339.004 294.66C339.122 294.844 339.291 294.992 339.491 295.086L357.673 305.339C357.983 305.512 358.334 305.603 358.692 305.603C359.049 305.603 359.4 305.512 359.71 305.339L371.867 298.404C372.067 298.309 372.236 298.161 372.354 297.977C372.472 297.793 372.535 297.581 372.535 297.363C372.535 297.146 372.472 296.934 372.354 296.75C372.236 296.566 372.067 296.418 371.867 296.323L353.672 286.071C353.365 285.897 353.016 285.806 352.66 285.806C352.305 285.806 351.956 285.897 351.648 286.071Z" fill="black"/>
<path d="M381.656 296.288C377.963 301.155 381.005 308.818 385.764 309.696C393.79 305.269 388.061 297.017 381.656 296.288Z" fill="#263238"/>
<path d="M364.61 298.173L357.141 301.351C356.778 301.505 356.474 301.766 356.273 302.098C356.071 302.43 355.981 302.816 356.016 303.2C356.058 303.657 356.272 304.083 356.619 304.393C356.965 304.703 357.417 304.875 357.887 304.876H364.989L364.61 298.173Z" fill="#F28F8F"/>
<path d="M375.359 299.259L368.706 296.242C367.895 295.872 366.987 295.752 366.104 295.896C365.22 296.041 364.402 296.444 363.758 297.051L359.023 301.478C358.388 302.075 357.993 302.875 357.91 303.732L357.437 308.459C357.41 308.858 357.527 309.252 357.767 309.575C358.007 309.898 358.355 310.129 358.751 310.228C358.994 310.287 359.247 310.295 359.494 310.25C359.74 310.206 359.974 310.11 360.179 309.97C360.384 309.83 360.557 309.648 360.684 309.437C360.811 309.227 360.891 308.992 360.917 308.748L361.331 304.611L363.806 301.917L362.444 303.986C362.08 304.532 361.898 305.174 361.923 305.824L362.042 309.384C362.06 309.939 362.234 310.478 362.545 310.943C362.856 311.408 363.292 311.78 363.806 312.019L369.57 314.713C370.057 314.94 370.596 315.04 371.133 315.001C371.671 314.963 372.189 314.788 372.636 314.493C373.513 313.917 374.351 313.288 375.146 312.609C375.333 312.386 375.453 312.116 375.491 311.83C375.528 311.544 375.483 311.253 375.359 310.991L377.999 309.118L431.197 300.23L418.377 283.967L375.359 299.259Z" fill="#FFA8A7"/>
<path d="M375.359 311.037C374.235 311.609 372.955 311.82 371.701 311.638C371.95 310.479 371.994 309.286 371.831 308.113C372.443 308.884 372.813 309.811 372.897 310.783C373.66 311.153 374.533 311.243 375.359 311.037Z" fill="#F28F8F"/>
<path d="M447.024 226.695C444.629 226.529 442.252 227.204 440.322 228.598C438.392 229.993 437.036 232.016 436.5 234.301L425.396 281.528L418.377 284.013L381.68 296.288C387.93 300.912 385.788 309.696 385.788 309.696L431.221 300.276C435.091 299.626 438.667 297.84 441.471 295.155C444.275 292.471 446.175 289.016 446.917 285.25L456.21 238.358C456.48 236.992 456.449 235.586 456.121 234.233C455.793 232.88 455.174 231.61 454.306 230.507C453.438 229.405 452.339 228.495 451.084 227.838C449.829 227.181 448.445 226.791 447.024 226.695Z" fill="#455A64"/>
<path opacity="0.1" d="M425.396 281.528C430.297 281.528 434.144 286.475 434.63 288.302C435.589 278.65 429.895 278.269 425.799 279.818L425.396 281.528Z" fill="black"/>
<path d="M397.412 225.308C389.377 225.128 381.566 227.9 375.525 233.076L347.919 256.713C346.136 258.241 344.578 260.003 343.291 261.949L328.896 283.713L343.326 293.064L358.715 271.345L381.372 255.903C383.302 249.234 388.084 239.144 400.099 225.32L397.412 225.308Z" fill="#455A64"/>
<path opacity="0.2" d="M374.376 260.712L381.372 255.95C382.9 250.656 386.25 243.236 393.553 233.446C384.836 240.746 378.225 250.146 374.376 260.712Z" fill="black"/>
<path d="M275.296 247.87L276.894 247.096C277.179 246.974 277.49 246.92 277.8 246.938C278.111 246.956 278.413 247.046 278.681 247.2L345.682 285.239C346.724 285.828 347.617 286.637 348.297 287.607C348.977 288.577 349.427 289.683 349.612 290.844L356.502 333.61C356.569 334.028 356.495 334.455 356.292 334.828C356.09 335.201 355.768 335.5 355.377 335.679L353.838 336.419C353.559 336.528 353.257 336.571 352.958 336.547C352.658 336.523 352.368 336.432 352.11 336.28L285.109 298.242C284.077 297.651 283.192 296.844 282.518 295.878C281.845 294.913 281.399 293.813 281.215 292.659L274.325 249.893C274.254 249.499 274.309 249.094 274.483 248.732C274.656 248.37 274.94 248.069 275.296 247.87Z" fill="#E0E0E0"/>
<path d="M311.886 287.019C313.585 288.057 315.051 289.42 316.194 291.028C317.338 292.635 318.135 294.452 318.538 296.369C318.976 299.71 316.715 300.993 313.472 299.12C311.774 298.079 310.309 296.712 309.165 295.103C308.022 293.494 307.224 291.676 306.819 289.758C306.381 286.429 308.654 285.192 311.886 287.019Z" fill="white"/>
<path opacity="0.3" d="M355.176 334.281L348.286 291.515C348.101 290.353 347.651 289.247 346.971 288.277C346.291 287.307 345.398 286.498 344.356 285.909L277.355 247.87C277.05 247.697 276.703 247.605 276.349 247.605C275.996 247.605 275.648 247.697 275.343 247.87L276.941 247.096C277.226 246.974 277.537 246.92 277.848 246.938C278.158 246.956 278.46 247.046 278.728 247.2L345.729 285.239C346.771 285.828 347.665 286.637 348.345 287.607C349.025 288.577 349.474 289.683 349.659 290.844L356.549 333.61C356.616 334.028 356.542 334.455 356.339 334.828C356.137 335.201 355.816 335.5 355.424 335.679L353.885 336.419C354.32 336.262 354.685 335.964 354.92 335.574C355.155 335.185 355.245 334.728 355.176 334.281Z" fill="black"/>
</svg>
