<svg width="105" height="26" viewBox="0 0 105 26" fill="none" xmlns="http://www.w3.org/2000/svg">
<path d="M12.209 0.752539C11.7138 -0.250851 10.283 -0.250841 9.7878 0.752539L7.42988 5.53026L2.15735 6.2964C1.05005 6.4573 0.607909 7.81809 1.40916 8.59909L5.2244 12.318L4.32374 17.5693C4.13459 18.6721 5.29213 19.5131 6.28252 18.9924L10.9984 16.5131L15.7143 18.9924C16.7047 19.5131 17.8622 18.6721 17.6731 17.5693L16.7724 12.318L20.5877 8.59909C21.3889 7.81809 20.9468 6.4573 19.8395 6.2964L14.567 5.53026L12.209 0.752539ZM8.74008 6.26482L10.9984 1.68893L13.2568 6.26482C13.4534 6.66327 13.8335 6.93943 14.2732 7.00333L19.323 7.73709L15.6689 11.299C15.3508 11.6091 15.2056 12.0559 15.2807 12.4939L16.1433 17.5233L11.6266 15.1487C11.2333 14.9419 10.7635 14.9419 10.3702 15.1487L5.85353 17.5233L6.71614 12.4939C6.79125 12.0559 6.64606 11.6091 6.32788 11.299L2.67382 7.73709L7.72361 7.00333C8.16332 6.93943 8.54344 6.66327 8.74008 6.26482ZM0.164379 1.43141C-0.0943822 1.75485 -0.0419411 2.22682 0.281509 2.48558L2.78151 4.48558C3.10495 4.74434 3.57692 4.6919 3.83568 4.36845C4.09444 4.045 4.042 3.57304 3.71855 3.31428L1.21855 1.31428C0.895099 1.05552 0.423129 1.10796 0.164379 1.43141ZM21.8357 15.8685C22.0945 15.545 22.042 15.073 21.7186 14.8143L19.2186 12.8143C18.8951 12.5555 18.4232 12.608 18.1644 12.9314C17.9056 13.2549 17.9581 13.7268 18.2815 13.9856L20.7815 15.9856C21.105 16.2443 21.5769 16.1919 21.8357 15.8685ZM0.281509 14.8143C-0.0419411 15.073 -0.0943822 15.545 0.164379 15.8685C0.423129 16.1919 0.895099 16.2443 1.21855 15.9856L3.71855 13.9856C4.042 13.7268 4.09444 13.2549 3.83568 12.9314C3.57692 12.608 3.10495 12.5555 2.78151 12.8143L0.281509 14.8143ZM21.8357 1.43141C22.0945 1.75485 22.042 2.22682 21.7186 2.48558L19.2186 4.48558C18.8951 4.74434 18.4232 4.6919 18.1644 4.36845C17.9056 4.045 17.9581 3.57304 18.2815 3.31428L20.7815 1.31428C21.105 1.05552 21.5769 1.10796 21.8357 1.43141Z" fill="#212121"/>
<path d="M29.321 16V5.09091H35.8622V6.26278H30.642V9.94886H35.3722V11.1207H30.642V16H29.321ZM40.3619 16.1918C39.8435 16.1918 39.373 16.0941 38.9504 15.8988C38.5278 15.6999 38.1922 15.4141 37.9436 15.0412C37.695 14.6648 37.5708 14.2102 37.5708 13.6776C37.5708 13.2088 37.6631 12.8288 37.8477 12.5376C38.0324 12.2429 38.2792 12.0121 38.5882 11.8452C38.8971 11.6783 39.238 11.554 39.6109 11.4723C39.9873 11.3871 40.3655 11.3196 40.7455 11.2699C41.2426 11.206 41.6457 11.158 41.9546 11.1261C42.2671 11.0906 42.4944 11.032 42.6365 10.9503C42.782 10.8686 42.8548 10.7266 42.8548 10.5241V10.4815C42.8548 9.95597 42.711 9.54759 42.4234 9.25639C42.1393 8.9652 41.7078 8.8196 41.129 8.8196C40.5289 8.8196 40.0583 8.95099 39.7174 9.21378C39.3765 9.47656 39.1368 9.7571 38.9983 10.0554L37.8051 9.62926C38.0182 9.1321 38.3023 8.74503 38.6574 8.46804C39.0161 8.1875 39.4067 7.99219 39.8293 7.8821C40.2554 7.76847 40.6744 7.71165 41.0864 7.71165C41.3492 7.71165 41.651 7.74361 41.9919 7.80753C42.3364 7.8679 42.6684 7.99396 42.988 8.18572C43.3112 8.37749 43.5793 8.6669 43.7923 9.05398C44.0054 9.44105 44.1119 9.95952 44.1119 10.6094V16H42.8548V14.892H42.7909C42.7057 15.0696 42.5637 15.2596 42.3648 15.462C42.1659 15.6644 41.9014 15.8366 41.5711 15.9787C41.2409 16.1207 40.8378 16.1918 40.3619 16.1918ZM40.5537 15.0625C41.0509 15.0625 41.4699 14.9648 41.8108 14.7695C42.1553 14.5742 42.4145 14.3221 42.5885 14.0131C42.7661 13.7042 42.8548 13.3793 42.8548 13.0384V11.8878C42.8016 11.9517 42.6844 12.0103 42.5033 12.0636C42.3257 12.1133 42.1198 12.1577 41.8854 12.1967C41.6546 12.2322 41.4291 12.2642 41.2089 12.2926C40.9923 12.3175 40.8165 12.3388 40.6816 12.3565C40.3548 12.3991 40.0494 12.4684 39.7654 12.5643C39.4848 12.6566 39.2575 12.7969 39.0835 12.9851C38.9131 13.1697 38.8279 13.4219 38.8279 13.7415C38.8279 14.1783 38.9894 14.5085 39.3126 14.7322C39.6393 14.9524 40.053 15.0625 40.5537 15.0625ZM52.8038 7.81818L49.7782 16H48.4998L45.4743 7.81818H46.8379L49.0964 14.3381H49.1816L51.4402 7.81818H52.8038ZM57.494 16.1705C56.7553 16.1705 56.1072 15.9947 55.5497 15.6431C54.9957 15.2915 54.5625 14.7997 54.25 14.1676C53.9411 13.5355 53.7866 12.7969 53.7866 11.9517C53.7866 11.0994 53.9411 10.3555 54.25 9.71982C54.5625 9.08416 54.9957 8.59055 55.5497 8.23899C56.1072 7.88743 56.7553 7.71165 57.494 7.71165C58.2326 7.71165 58.8789 7.88743 59.4329 8.23899C59.9904 8.59055 60.4237 9.08416 60.7326 9.71982C61.0451 10.3555 61.2013 11.0994 61.2013 11.9517C61.2013 12.7969 61.0451 13.5355 60.7326 14.1676C60.4237 14.7997 59.9904 15.2915 59.4329 15.6431C58.8789 15.9947 58.2326 16.1705 57.494 16.1705ZM57.494 15.0412C58.055 15.0412 58.5167 14.8974 58.8789 14.6097C59.2411 14.3221 59.5092 13.9439 59.6832 13.4751C59.8572 13.0064 59.9442 12.4986 59.9442 11.9517C59.9442 11.4048 59.8572 10.8952 59.6832 10.4229C59.5092 9.95064 59.2411 9.56889 58.8789 9.2777C58.5167 8.98651 58.055 8.84091 57.494 8.84091C56.9329 8.84091 56.4712 8.98651 56.109 9.2777C55.7468 9.56889 55.4787 9.95064 55.3047 10.4229C55.1307 10.8952 55.0437 11.4048 55.0437 11.9517C55.0437 12.4986 55.1307 13.0064 55.3047 13.4751C55.4787 13.9439 55.7468 14.3221 56.109 14.6097C56.4712 14.8974 56.9329 15.0412 57.494 15.0412ZM63.1203 16V7.81818H64.3348V9.05398H64.42C64.5692 8.64915 64.839 8.32067 65.2297 8.06854C65.6203 7.81641 66.0606 7.69034 66.5507 7.69034C66.643 7.69034 66.7584 7.69212 66.8969 7.69567C67.0354 7.69922 67.1402 7.70455 67.2112 7.71165V8.99006C67.1686 8.9794 67.0709 8.96342 66.9182 8.94212C66.7691 8.91726 66.6111 8.90483 66.4442 8.90483C66.0464 8.90483 65.6913 8.98828 65.3788 9.15518C65.0699 9.31854 64.8248 9.54581 64.6437 9.837C64.4662 10.1246 64.3774 10.4531 64.3774 10.8224V16H63.1203ZM68.7013 16V7.81818H69.9585V16H68.7013ZM69.3406 6.45455C69.0955 6.45455 68.8842 6.37109 68.7067 6.20419C68.5327 6.03729 68.4457 5.83665 68.4457 5.60227C68.4457 5.3679 68.5327 5.16726 68.7067 5.00035C68.8842 4.83345 69.0955 4.75 69.3406 4.75C69.5856 4.75 69.7951 4.83345 69.9691 5.00035C70.1467 5.16726 70.2354 5.3679 70.2354 5.60227C70.2354 5.83665 70.1467 6.03729 69.9691 6.20419C69.7951 6.37109 69.5856 6.45455 69.3406 6.45455ZM75.8192 7.81818V8.88352H71.5791V7.81818H75.8192ZM72.8149 5.85795H74.072V13.6562C74.072 14.0114 74.1235 14.2777 74.2265 14.4553C74.333 14.6293 74.468 14.7464 74.6313 14.8068C74.7982 14.8636 74.974 14.892 75.1586 14.892C75.2971 14.892 75.4108 14.8849 75.4996 14.8707C75.5883 14.853 75.6594 14.8388 75.7126 14.8281L75.9683 15.9574C75.8831 15.9893 75.7641 16.0213 75.6114 16.0533C75.4587 16.0888 75.2652 16.1065 75.0308 16.1065C74.6757 16.1065 74.3277 16.0302 73.9868 15.8775C73.6494 15.7248 73.3689 15.4922 73.1452 15.1797C72.925 14.8672 72.8149 14.473 72.8149 13.9972V5.85795ZM81.0526 16.1705C80.2643 16.1705 79.5843 15.9964 79.0125 15.6484C78.4443 15.2969 78.0058 14.8068 77.6968 14.1783C77.3914 13.5462 77.2387 12.8111 77.2387 11.973C77.2387 11.1349 77.3914 10.3963 77.6968 9.7571C78.0058 9.11435 78.4355 8.61364 78.9859 8.25497C79.5399 7.89276 80.1862 7.71165 80.9248 7.71165C81.3509 7.71165 81.7718 7.78267 82.1872 7.92472C82.6027 8.06676 82.9809 8.29759 83.3218 8.61719C83.6627 8.93324 83.9344 9.35227 84.1368 9.87429C84.3392 10.3963 84.4404 11.0391 84.4404 11.8026V12.3352H78.1336V11.2486H83.162C83.162 10.7869 83.0697 10.375 82.885 10.0128C82.7039 9.65057 82.4447 9.3647 82.1073 9.15518C81.7735 8.94567 81.3794 8.84091 80.9248 8.84091C80.4241 8.84091 79.9909 8.9652 79.6251 9.21378C79.2629 9.45881 78.9841 9.77841 78.7888 10.1726C78.5935 10.5668 78.4958 10.9893 78.4958 11.4403V12.1648C78.4958 12.7827 78.6024 13.3065 78.8154 13.7362C79.032 14.1623 79.3321 14.4872 79.7156 14.7109C80.0992 14.9311 80.5448 15.0412 81.0526 15.0412C81.3829 15.0412 81.6812 14.995 81.9475 14.9027C82.2174 14.8068 82.45 14.6648 82.6453 14.4766C82.8406 14.2848 82.9916 14.0469 83.0981 13.7628L84.3126 14.1037C84.1847 14.5156 83.9699 14.8778 83.6681 15.1903C83.3662 15.4993 82.9933 15.7408 82.5494 15.9148C82.1056 16.0852 81.6066 16.1705 81.0526 16.1705ZM92.1482 9.65057L91.0189 9.97017C90.9479 9.78196 90.8431 9.59908 90.7046 9.42152C90.5697 9.24041 90.385 9.09126 90.1507 8.97408C89.9163 8.85689 89.6162 8.7983 89.2504 8.7983C88.7497 8.7983 88.3325 8.91371 87.9987 9.14453C87.6684 9.3718 87.5033 9.66122 87.5033 10.0128C87.5033 10.3253 87.6169 10.5721 87.8442 10.7532C88.0715 10.9343 88.4266 11.0852 88.9095 11.206L90.124 11.5043C90.8556 11.6818 91.4007 11.9535 91.7593 12.3192C92.118 12.6815 92.2973 13.1484 92.2973 13.7202C92.2973 14.1889 92.1624 14.608 91.8925 14.9773C91.6262 15.3466 91.2533 15.6378 90.7739 15.8509C90.2945 16.0639 89.7369 16.1705 89.1013 16.1705C88.2668 16.1705 87.5761 15.9893 87.0292 15.6271C86.4823 15.2649 86.1361 14.7358 85.9905 14.0398L87.1837 13.7415C87.2973 14.1818 87.5122 14.5121 87.8282 14.7322C88.1478 14.9524 88.5651 15.0625 89.08 15.0625C89.6659 15.0625 90.1311 14.9382 90.4756 14.6896C90.8236 14.4375 90.9976 14.1357 90.9976 13.7841C90.9976 13.5 90.8982 13.2621 90.6993 13.0703C90.5004 12.875 90.195 12.7294 89.7831 12.6335L88.4195 12.3139C87.6702 12.1364 87.1198 11.8612 86.7682 11.4883C86.4202 11.1119 86.2462 10.6413 86.2462 10.0767C86.2462 9.61506 86.3758 9.20668 86.635 8.85156C86.8978 8.49645 87.2547 8.21768 87.7057 8.01527C88.1602 7.81286 88.6752 7.71165 89.2504 7.71165C90.0601 7.71165 90.6958 7.8892 91.1574 8.24432C91.6226 8.59943 91.9529 9.06818 92.1482 9.65057Z" fill="black"/>
</svg>
