<svg width="106" height="25" viewBox="0 0 106 25" fill="none" xmlns="http://www.w3.org/2000/svg">
<path d="M6.20693 0C6.66749 0 7.1153 0.14129 7.49094 0.40235L7.64734 0.5215L10.022 2.5H17.75C18.8867 2.5 19.8266 3.34297 19.9785 4.43788L19.9948 4.59595L20 4.75V13.75C20 14.9409 19.0748 15.9156 17.904 15.9948L17.75 16H2.25C1.05914 16 0.0843599 15.0748 0.0051899 13.904L0 13.75V2.25C0 1.05914 0.92516 0.0843599 2.09595 0.0051899L2.25 0H6.20693ZM7.64734 5.9785C7.29353 6.2733 6.85906 6.4515 6.40335 6.4914L6.20693 6.5L1.5 6.499V13.75C1.5 14.1297 1.78215 14.4435 2.14823 14.4932L2.25 14.5H17.75C18.1297 14.5 18.4435 14.2178 18.4932 13.8518L18.5 13.75V4.75C18.5 4.3703 18.2178 4.05651 17.8518 4.00685L17.75 4H10.021L7.64734 5.9785ZM6.20693 1.5H2.25C1.8703 1.5 1.55651 1.78215 1.50685 2.14823L1.5 2.25V4.999L6.20693 5C6.34729 5 6.4841 4.96063 6.60221 4.88738L6.68706 4.82617L8.578 3.249L6.68706 1.67383C6.57923 1.58398 6.44893 1.52664 6.31129 1.5073L6.20693 1.5Z" fill="#212121"/>
<path d="M28.321 14V3.09091H34.8622V4.26278H29.642V7.94886H34.3722V9.12074H29.642V14H28.321ZM39.6776 14.1705C38.9389 14.1705 38.2908 13.9947 37.7333 13.6431C37.1793 13.2915 36.7461 12.7997 36.4336 12.1676C36.1246 11.5355 35.9702 10.7969 35.9702 9.9517C35.9702 9.09943 36.1246 8.35547 36.4336 7.71982C36.7461 7.08416 37.1793 6.59055 37.7333 6.23899C38.2908 5.88743 38.9389 5.71165 39.6776 5.71165C40.4162 5.71165 41.0625 5.88743 41.6165 6.23899C42.174 6.59055 42.6072 7.08416 42.9162 7.71982C43.2287 8.35547 43.3849 9.09943 43.3849 9.9517C43.3849 10.7969 43.2287 11.5355 42.9162 12.1676C42.6072 12.7997 42.174 13.2915 41.6165 13.6431C41.0625 13.9947 40.4162 14.1705 39.6776 14.1705ZM39.6776 13.0412C40.2386 13.0412 40.7003 12.8974 41.0625 12.6097C41.4247 12.3221 41.6928 11.9439 41.8668 11.4751C42.0408 11.0064 42.1278 10.4986 42.1278 9.9517C42.1278 9.40483 42.0408 8.89524 41.8668 8.42294C41.6928 7.95064 41.4247 7.56889 41.0625 7.2777C40.7003 6.98651 40.2386 6.84091 39.6776 6.84091C39.1165 6.84091 38.6548 6.98651 38.2926 7.2777C37.9304 7.56889 37.6623 7.95064 37.4883 8.42294C37.3143 8.89524 37.2273 9.40483 37.2273 9.9517C37.2273 10.4986 37.3143 11.0064 37.4883 11.4751C37.6623 11.9439 37.9304 12.3221 38.2926 12.6097C38.6548 12.8974 39.1165 13.0412 39.6776 13.0412ZM46.561 3.09091V14H45.3039V3.09091H46.561ZM51.9529 14.1705C51.2711 14.1705 50.6692 13.9982 50.1472 13.6538C49.6252 13.3058 49.2168 12.8157 48.9221 12.1836C48.6273 11.5479 48.4799 10.7969 48.4799 9.9304C48.4799 9.07102 48.6273 8.32528 48.9221 7.69318C49.2168 7.06108 49.627 6.5728 50.1525 6.22834C50.6781 5.88388 51.2853 5.71165 51.9743 5.71165C52.5069 5.71165 52.9277 5.80043 53.2367 5.97798C53.5492 6.15199 53.7871 6.35085 53.9505 6.57457C54.1174 6.79474 54.247 6.97585 54.3393 7.1179H54.4458V3.09091H55.7029V14H54.4885V12.7429H54.3393C54.247 12.892 54.1156 13.0803 53.9451 13.3075C53.7747 13.5312 53.5314 13.7319 53.2154 13.9094C52.8993 14.0835 52.4785 14.1705 51.9529 14.1705ZM52.1234 13.0412C52.6277 13.0412 53.0538 12.9098 53.4018 12.647C53.7498 12.3807 54.0144 12.0131 54.1955 11.5444C54.3766 11.0721 54.4672 10.527 54.4672 9.90909C54.4672 9.2983 54.3784 8.76385 54.2008 8.30575C54.0233 7.84411 53.7605 7.48544 53.4125 7.22976C53.0645 6.97053 52.6348 6.84091 52.1234 6.84091C51.5907 6.84091 51.1468 6.97763 50.7917 7.25107C50.4402 7.52095 50.1756 7.88849 49.998 8.35369C49.824 8.81534 49.737 9.33381 49.737 9.90909C49.737 10.4915 49.8258 11.0206 50.0034 11.4964C50.1845 11.9687 50.4508 12.3452 50.8024 12.6257C51.1575 12.9027 51.5978 13.0412 52.1234 13.0412ZM61.6103 14.1705C60.8219 14.1705 60.1419 13.9964 59.5701 13.6484C59.002 13.2969 58.5634 12.8068 58.2544 12.1783C57.949 11.5462 57.7963 10.8111 57.7963 9.97301C57.7963 9.13494 57.949 8.39631 58.2544 7.7571C58.5634 7.11435 58.9931 6.61364 59.5435 6.25497C60.0975 5.89276 60.7438 5.71165 61.4824 5.71165C61.9086 5.71165 62.3294 5.78267 62.7449 5.92472C63.1603 6.06676 63.5385 6.29759 63.8794 6.61719C64.2203 6.93324 64.492 7.35227 64.6944 7.87429C64.8968 8.39631 64.998 9.03906 64.998 9.80256V10.3352H58.6912V9.24858H63.7196C63.7196 8.78693 63.6273 8.375 63.4426 8.01278C63.2615 7.65057 63.0023 7.3647 62.665 7.15518C62.3311 6.94567 61.937 6.84091 61.4824 6.84091C60.9817 6.84091 60.5485 6.9652 60.1827 7.21378C59.8205 7.45881 59.5417 7.77841 59.3464 8.17258C59.1511 8.56676 59.0534 8.98935 59.0534 9.44034V10.1648C59.0534 10.7827 59.16 11.3065 59.373 11.7362C59.5897 12.1623 59.8897 12.4872 60.2733 12.7109C60.6568 12.9311 61.1025 13.0412 61.6103 13.0412C61.9405 13.0412 62.2388 12.995 62.5051 12.9027C62.775 12.8068 63.0076 12.6648 63.2029 12.4766C63.3983 12.2848 63.5492 12.0469 63.6557 11.7628L64.8702 12.1037C64.7424 12.5156 64.5275 12.8778 64.2257 13.1903C63.9238 13.4993 63.551 13.7408 63.1071 13.9148C62.6632 14.0852 62.1642 14.1705 61.6103 14.1705ZM66.9103 14V5.81818H68.1248V7.05398H68.21C68.3592 6.64915 68.6291 6.32067 69.0197 6.06854C69.4103 5.81641 69.8507 5.69034 70.3407 5.69034C70.4331 5.69034 70.5485 5.69212 70.687 5.69567C70.8255 5.69922 70.9302 5.70455 71.0012 5.71165V6.99006C70.9586 6.9794 70.861 6.96342 70.7083 6.94212C70.5591 6.91726 70.4011 6.90483 70.2342 6.90483C69.8365 6.90483 69.4814 6.98828 69.1689 7.15518C68.8599 7.31854 68.6149 7.54581 68.4338 7.837C68.2562 8.12464 68.1674 8.45312 68.1674 8.82244V14H66.9103ZM78.2868 7.65057L77.1576 7.97017C77.0866 7.78196 76.9818 7.59908 76.8433 7.42152C76.7084 7.24041 76.5237 7.09126 76.2893 6.97408C76.055 6.85689 75.7549 6.7983 75.3891 6.7983C74.8884 6.7983 74.4711 6.91371 74.1373 7.14453C73.8071 7.3718 73.642 7.66122 73.642 8.01278C73.642 8.32528 73.7556 8.57209 73.9829 8.7532C74.2101 8.9343 74.5653 9.08523 75.0482 9.20597L76.2627 9.50426C76.9942 9.68182 77.5393 9.95348 77.898 10.3192C78.2567 10.6815 78.436 11.1484 78.436 11.7202C78.436 12.1889 78.301 12.608 78.0312 12.9773C77.7648 13.3466 77.392 13.6378 76.9126 13.8509C76.4331 14.0639 75.8756 14.1705 75.24 14.1705C74.4055 14.1705 73.7148 13.9893 73.1679 13.6271C72.621 13.2649 72.2748 12.7358 72.1292 12.0398L73.3224 11.7415C73.436 12.1818 73.6508 12.5121 73.9669 12.7322C74.2865 12.9524 74.7037 13.0625 75.2187 13.0625C75.8046 13.0625 76.2698 12.9382 76.6143 12.6896C76.9623 12.4375 77.1363 12.1357 77.1363 11.7841C77.1363 11.5 77.0368 11.2621 76.838 11.0703C76.6391 10.875 76.3337 10.7294 75.9218 10.6335L74.5581 10.3139C73.8089 10.1364 73.2584 9.86115 72.9069 9.48828C72.5589 9.11186 72.3849 8.64134 72.3849 8.0767C72.3849 7.61506 72.5145 7.20668 72.7737 6.85156C73.0365 6.49645 73.3934 6.21768 73.8444 6.01527C74.2989 5.81286 74.8138 5.71165 75.3891 5.71165C76.1988 5.71165 76.8344 5.8892 77.2961 6.24432C77.7613 6.59943 78.0915 7.06818 78.2868 7.65057Z" fill="black"/>
</svg>
