<svg width="110" height="26" viewBox="0 0 110 26" fill="none" xmlns="http://www.w3.org/2000/svg">
<path d="M7.5495 0.529934C8.3874 -0.176646 9.6126 -0.176646 10.4505 0.529944L17.2005 6.22204C17.7074 6.64956 18 7.27894 18 7.9421V17.7448C18 18.7113 17.2165 19.4948 16.25 19.4948H12.75C11.7835 19.4948 11 18.7113 11 17.7448V12.2448C11 12.1068 10.8881 11.9948 10.75 11.9948H7.25C7.1119 11.9948 6.99999 12.1068 6.99999 12.2448V17.7448C6.99999 18.7113 6.2165 19.4948 5.25 19.4948H1.75C0.7835 19.4948 0 18.7113 0 17.7448V7.9421C0 7.27894 0.29255 6.64956 0.79952 6.22204L7.5495 0.529934ZM9.4835 1.67664C9.2042 1.44111 8.7958 1.44111 8.5165 1.67664L1.76651 7.36875C1.59752 7.51125 1.5 7.72105 1.5 7.9421V17.7448C1.5 17.8829 1.61193 17.9948 1.75 17.9948H5.25C5.38807 17.9948 5.49999 17.8829 5.49999 17.7448V12.2448C5.49999 11.2783 6.2835 10.4948 7.25 10.4948H10.75C11.7165 10.4948 12.5 11.2783 12.5 12.2448V17.7448C12.5 17.8829 12.6119 17.9948 12.75 17.9948H16.25C16.3881 17.9948 16.5 17.8829 16.5 17.7448V7.9421C16.5 7.72105 16.4025 7.51125 16.2335 7.36875L9.4835 1.67664Z" fill="#212121"/>
<path d="M28.321 17V6.09091H29.642V10.9489H35.4588V6.09091H36.7798V17H35.4588V12.1207H29.642V17H28.321ZM42.5779 17.1705C41.8393 17.1705 41.1912 16.9947 40.6337 16.6431C40.0797 16.2915 39.6465 15.7997 39.334 15.1676C39.025 14.5355 38.8706 13.7969 38.8706 12.9517C38.8706 12.0994 39.025 11.3555 39.334 10.7198C39.6465 10.0842 40.0797 9.59055 40.6337 9.23899C41.1912 8.88743 41.8393 8.71165 42.5779 8.71165C43.3166 8.71165 43.9629 8.88743 44.5169 9.23899C45.0744 9.59055 45.5076 10.0842 45.8166 10.7198C46.1291 11.3555 46.2853 12.0994 46.2853 12.9517C46.2853 13.7969 46.1291 14.5355 45.8166 15.1676C45.5076 15.7997 45.0744 16.2915 44.5169 16.6431C43.9629 16.9947 43.3166 17.1705 42.5779 17.1705ZM42.5779 16.0412C43.139 16.0412 43.6007 15.8974 43.9629 15.6097C44.3251 15.3221 44.5932 14.9439 44.7672 14.4751C44.9412 14.0064 45.0282 13.4986 45.0282 12.9517C45.0282 12.4048 44.9412 11.8952 44.7672 11.4229C44.5932 10.9506 44.3251 10.5689 43.9629 10.2777C43.6007 9.98651 43.139 9.84091 42.5779 9.84091C42.0169 9.84091 41.5552 9.98651 41.193 10.2777C40.8308 10.5689 40.5627 10.9506 40.3887 11.4229C40.2147 11.8952 40.1277 12.4048 40.1277 12.9517C40.1277 13.4986 40.2147 14.0064 40.3887 14.4751C40.5627 14.9439 40.8308 15.3221 41.193 15.6097C41.5552 15.8974 42.0169 16.0412 42.5779 16.0412ZM48.2043 17V8.81818H49.4188V10.0966H49.5253C49.6958 9.6598 49.971 9.32067 50.3509 9.07919C50.7309 8.83416 51.1872 8.71165 51.7199 8.71165C52.2597 8.71165 52.7089 8.83416 53.0676 9.07919C53.4298 9.32067 53.7121 9.6598 53.9145 10.0966H53.9997C54.2093 9.67401 54.5235 9.33842 54.9426 9.08984C55.3616 8.83771 55.8641 8.71165 56.45 8.71165C57.1816 8.71165 57.7799 8.9407 58.2451 9.39879C58.7103 9.85334 58.9429 10.5618 58.9429 11.5241V17H57.6858V11.5241C57.6858 10.9205 57.5207 10.489 57.1904 10.2298C56.8602 9.97053 56.4713 9.84091 56.0239 9.84091C55.4486 9.84091 55.0029 10.0149 54.6869 10.3629C54.3708 10.7074 54.2128 11.1442 54.2128 11.6733V17H52.9344V11.3963C52.9344 10.9311 52.7835 10.5565 52.4816 10.2724C52.1798 9.98473 51.7909 9.84091 51.3151 9.84091C50.9884 9.84091 50.683 9.92791 50.3989 10.1019C50.1183 10.2759 49.8911 10.5174 49.7171 10.8263C49.5466 11.1317 49.4614 11.4851 49.4614 11.8864V17H48.2043ZM64.6718 17.1705C63.8834 17.1705 63.2034 16.9964 62.6317 16.6484C62.0635 16.2969 61.6249 15.8068 61.316 15.1783C61.0106 14.5462 60.8579 13.8111 60.8579 12.973C60.8579 12.1349 61.0106 11.3963 61.316 10.7571C61.6249 10.1143 62.0546 9.61364 62.605 9.25497C63.159 8.89276 63.8053 8.71165 64.5439 8.71165C64.9701 8.71165 65.3909 8.78267 65.8064 8.92472C66.2219 9.06676 66.6001 9.29759 66.941 9.61719C67.2819 9.93324 67.5535 10.3523 67.7559 10.8743C67.9584 11.3963 68.0596 12.0391 68.0596 12.8026V13.3352H61.7528V12.2486H66.7812C66.7812 11.7869 66.6888 11.375 66.5042 11.0128C66.3231 10.6506 66.0638 10.3647 65.7265 10.1552C65.3927 9.94567 64.9985 9.84091 64.5439 9.84091C64.0432 9.84091 63.61 9.9652 63.2442 10.2138C62.882 10.4588 62.6032 10.7784 62.4079 11.1726C62.2126 11.5668 62.115 11.9893 62.115 12.4403V13.1648C62.115 13.7827 62.2215 14.3065 62.4346 14.7362C62.6512 15.1623 62.9513 15.4872 63.3348 15.7109C63.7183 15.9311 64.164 16.0412 64.6718 16.0412C65.002 16.0412 65.3003 15.995 65.5667 15.9027C65.8366 15.8068 66.0692 15.6648 66.2645 15.4766C66.4598 15.2848 66.6107 15.0469 66.7172 14.7628L67.9317 15.1037C67.8039 15.5156 67.589 15.8778 67.2872 16.1903C66.9854 16.4993 66.6125 16.7408 66.1686 16.9148C65.7247 17.0852 65.2258 17.1705 64.6718 17.1705Z" fill="black"/>
</svg>
