<svg width="503" height="482" viewBox="0 0 503 482" fill="none" xmlns="http://www.w3.org/2000/svg">
<path d="M216.985 482C322.791 482 408.564 476.724 408.564 470.215C408.564 463.706 322.791 458.43 216.985 458.43C111.179 458.43 25.4064 463.706 25.4064 470.215C25.4064 476.724 111.179 482 216.985 482Z" fill="#8AA4DF"/>
<path opacity="0.8" d="M216.985 482C322.791 482 408.564 476.724 408.564 470.215C408.564 463.706 322.791 458.43 216.985 458.43C111.179 458.43 25.4064 463.706 25.4064 470.215C25.4064 476.724 111.179 482 216.985 482Z" fill="white"/>
<path d="M360.948 22.0817H168.316C155.016 22.0817 144.235 32.7274 144.235 45.8596V447.428C144.235 460.561 155.016 471.206 168.316 471.206H360.948C374.247 471.206 385.028 460.561 385.028 447.428V45.8596C385.028 32.7274 374.247 22.0817 360.948 22.0817Z" fill="#263238"/>
<path d="M374.32 71.3997H154.931V421.888H374.32V71.3997Z" fill="white" stroke="#263238" stroke-width="1.33739" stroke-miterlimit="10"/>
<path d="M298.257 213.323C316.828 194.985 316.828 165.254 298.257 146.917C279.686 128.579 249.577 128.579 231.006 146.917C212.435 165.254 212.435 194.985 231.006 213.323C249.577 231.66 279.686 231.66 298.257 213.323Z" fill="#8AA4DF"/>
<path d="M327.064 399.848H202.212C201.931 399.85 201.652 399.797 201.392 399.691C201.132 399.586 200.896 399.432 200.697 399.236C200.497 399.04 200.339 398.808 200.231 398.552C200.123 398.295 200.068 398.021 200.068 397.743C200.066 397.465 200.121 397.189 200.228 396.931C200.335 396.674 200.493 396.44 200.692 396.243C200.892 396.046 201.129 395.89 201.39 395.784C201.65 395.678 201.93 395.625 202.212 395.626H327.064C327.345 395.626 327.623 395.681 327.883 395.788C328.142 395.894 328.378 396.05 328.576 396.247C328.774 396.444 328.931 396.677 329.037 396.934C329.143 397.191 329.197 397.466 329.196 397.743C329.196 398.301 328.971 398.837 328.571 399.232C328.172 399.626 327.629 399.848 327.064 399.848Z" fill="#8AA4DF"/>
<path d="M331.129 253.473H198.135C195.39 253.473 193.165 255.67 193.165 258.38V273.861C193.165 276.571 195.39 278.768 198.135 278.768H331.129C333.874 278.768 336.099 276.571 336.099 273.861V258.38C336.099 255.67 333.874 253.473 331.129 253.473Z" fill="#8AA4DF"/>
<path d="M331.129 300.784H198.135C195.39 300.784 193.165 302.981 193.165 305.691V321.172C193.165 323.882 195.39 326.079 198.135 326.079H331.129C333.874 326.079 336.099 323.882 336.099 321.172V305.691C336.099 302.981 333.874 300.784 331.129 300.784Z" fill="#8AA4DF"/>
<path d="M288.31 203.543L274.317 195.588V189.016C276.343 186.596 277.811 183.769 278.618 180.731C279.099 180.9 279.607 180.987 280.118 180.988C281.853 180.988 282.956 175.677 283.142 171.884C285.162 167.662 282.41 165.19 282.41 165.19C282.41 165.19 283.551 164.064 284.307 159.548C285.063 155.032 281.642 156.917 278.977 152.781C276.313 148.644 274.404 144.141 265.654 144.141C263.243 144.062 260.864 144.702 258.826 145.977C256.789 147.251 255.186 149.102 254.228 151.288C252.049 151.295 249.879 151.546 247.758 152.034C245.081 152.781 244.325 161.433 246.606 164.822C247.626 166.675 248.171 168.747 248.192 170.856C247.585 170.121 246.953 169.926 246.606 171.59C245.85 175.347 248.898 180.609 248.898 180.609L250.472 180.169C251.265 183.415 252.795 186.44 254.946 189.016V195.588L240.954 203.543C239.32 204.474 237.963 205.814 237.019 207.427C236.075 209.04 235.577 210.87 235.575 212.733V217.286C243.897 223.634 254.116 227.077 264.632 227.077C275.148 227.077 285.367 223.634 293.688 217.286V212.733C293.689 210.87 293.193 209.039 292.248 207.425C291.304 205.811 289.945 204.472 288.31 203.543V203.543Z" fill="#263238"/>
<path d="M211.272 319.789C210.951 319.784 210.644 319.657 210.416 319.434C210.295 319.326 210.197 319.194 210.131 319.047C210.065 318.899 210.031 318.739 210.032 318.577C210.036 318.357 210.1 318.141 210.218 317.953L212.449 314.429L208.099 314.563C207.935 314.574 207.771 314.549 207.617 314.492C207.463 314.435 207.323 314.347 207.207 314.233C207.004 314.009 206.893 313.719 206.893 313.419C206.893 313.119 207.004 312.829 207.207 312.605C207.321 312.487 207.46 312.395 207.614 312.336C207.768 312.277 207.934 312.252 208.099 312.263L212.387 312.422L210.181 308.91C210.061 308.718 209.997 308.498 209.995 308.273C209.994 308.112 210.028 307.952 210.094 307.804C210.16 307.656 210.257 307.524 210.379 307.417C210.607 307.193 210.914 307.066 211.234 307.062C211.446 307.063 211.652 307.124 211.83 307.236C212.008 307.349 212.149 307.509 212.238 307.698L214.358 311.479L216.452 307.722C216.551 307.522 216.704 307.352 216.895 307.231C217.085 307.111 217.304 307.043 217.53 307.037C217.687 307.038 217.842 307.071 217.985 307.134C218.128 307.198 218.256 307.29 218.361 307.404C218.588 307.637 218.713 307.95 218.708 308.273C218.707 308.483 218.652 308.69 218.547 308.873L216.303 312.422L220.654 312.263C220.819 312.252 220.984 312.277 221.138 312.336C221.293 312.395 221.432 312.487 221.546 312.605C221.757 312.822 221.873 313.112 221.868 313.413C221.867 313.716 221.752 314.009 221.546 314.233C221.429 314.347 221.289 314.435 221.135 314.492C220.982 314.549 220.817 314.574 220.654 314.563L216.279 314.429L218.46 317.917C218.582 318.111 218.647 318.336 218.646 318.565C218.646 318.89 218.515 319.201 218.283 319.43C218.05 319.66 217.735 319.789 217.406 319.789C217.194 319.786 216.987 319.722 216.811 319.605C216.635 319.487 216.497 319.322 216.415 319.128L214.345 315.457L212.288 319.128C212.197 319.32 212.053 319.483 211.874 319.6C211.695 319.717 211.486 319.782 211.272 319.789V319.789Z" fill="#263238"/>
<path d="M231.374 319.789C231.053 319.784 230.746 319.657 230.519 319.434C230.397 319.326 230.299 319.194 230.233 319.047C230.167 318.899 230.133 318.739 230.135 318.577C230.138 318.357 230.203 318.141 230.32 317.953L232.551 314.429L228.214 314.563C228.048 314.571 227.883 314.545 227.727 314.489C227.572 314.432 227.43 314.345 227.309 314.233C227.144 314.065 227.035 313.853 226.994 313.623C226.954 313.393 226.984 313.156 227.082 312.944C227.18 312.731 227.34 312.553 227.541 312.431C227.743 312.31 227.977 312.251 228.214 312.263L232.489 312.422L230.283 308.91C230.163 308.718 230.099 308.498 230.097 308.273C230.096 308.112 230.13 307.952 230.196 307.804C230.262 307.656 230.36 307.524 230.482 307.417C230.709 307.193 231.016 307.066 231.337 307.062C231.548 307.063 231.754 307.124 231.932 307.236C232.11 307.349 232.251 307.509 232.341 307.698L234.46 311.479L236.554 307.722C236.654 307.522 236.807 307.352 236.997 307.231C237.187 307.111 237.407 307.043 237.633 307.037C237.789 307.037 237.945 307.069 238.088 307.132C238.231 307.196 238.359 307.288 238.463 307.404C238.578 307.519 238.669 307.654 238.73 307.803C238.792 307.952 238.823 308.112 238.822 308.273C238.818 308.485 238.758 308.691 238.649 308.873L236.406 312.422L240.768 312.287C240.931 312.276 241.095 312.301 241.247 312.361C241.399 312.42 241.536 312.512 241.648 312.63C241.859 312.846 241.975 313.137 241.97 313.438C241.969 313.741 241.855 314.033 241.648 314.257C241.534 314.371 241.396 314.46 241.244 314.517C241.092 314.573 240.93 314.598 240.768 314.588L236.381 314.453L238.562 317.941C238.684 318.136 238.749 318.36 238.748 318.59C238.748 318.914 238.617 319.225 238.385 319.455C238.153 319.684 237.837 319.813 237.509 319.813C237.296 319.811 237.089 319.747 236.913 319.629C236.737 319.512 236.599 319.346 236.517 319.153L234.447 315.481L232.39 319.153C232.295 319.34 232.151 319.498 231.972 319.61C231.793 319.722 231.586 319.784 231.374 319.789V319.789Z" fill="#263238"/>
<path d="M251.488 319.789C251.163 319.788 250.852 319.66 250.621 319.434C250.499 319.326 250.402 319.194 250.335 319.047C250.269 318.899 250.236 318.739 250.237 318.577C250.241 318.357 250.305 318.141 250.423 317.953L252.653 314.429L248.316 314.563C248.082 314.573 247.851 314.513 247.652 314.392C247.453 314.271 247.295 314.094 247.198 313.884C247.101 313.674 247.069 313.441 247.107 313.213C247.145 312.985 247.251 312.774 247.411 312.605C247.528 312.487 247.67 312.396 247.826 312.337C247.982 312.278 248.149 312.252 248.316 312.263L252.592 312.422L250.385 308.91C250.265 308.718 250.201 308.498 250.2 308.273C250.204 308.112 250.239 307.954 250.305 307.807C250.371 307.66 250.466 307.527 250.584 307.417C250.815 307.19 251.126 307.063 251.451 307.062C251.66 307.065 251.864 307.127 252.039 307.239C252.215 307.352 252.355 307.511 252.443 307.698L254.562 311.479L256.657 307.722C256.756 307.522 256.909 307.352 257.099 307.231C257.289 307.111 257.509 307.043 257.735 307.037C257.892 307.037 258.047 307.069 258.19 307.132C258.333 307.196 258.461 307.288 258.565 307.404C258.68 307.519 258.771 307.654 258.833 307.803C258.894 307.952 258.926 308.112 258.925 308.273C258.92 308.485 258.86 308.691 258.751 308.873L256.508 312.422L260.87 312.263C261.031 312.247 261.193 312.265 261.345 312.316C261.498 312.367 261.638 312.45 261.755 312.559C261.873 312.668 261.965 312.801 262.026 312.948C262.087 313.096 262.116 313.254 262.11 313.413C262.112 313.715 262.002 314.007 261.8 314.233C261.683 314.347 261.543 314.435 261.39 314.492C261.236 314.549 261.071 314.574 260.908 314.563L256.533 314.429L258.702 317.917C258.824 318.111 258.888 318.336 258.887 318.565C258.883 318.726 258.848 318.884 258.782 319.031C258.716 319.178 258.621 319.311 258.503 319.422C258.395 319.536 258.265 319.628 258.12 319.691C257.975 319.754 257.819 319.787 257.66 319.789C257.45 319.785 257.245 319.721 257.071 319.603C256.897 319.486 256.761 319.321 256.681 319.128L254.599 315.457L252.542 319.128C252.449 319.326 252.3 319.494 252.114 319.611C251.927 319.729 251.71 319.79 251.488 319.789V319.789Z" fill="#263238"/>
<path d="M271.591 319.789C271.266 319.788 270.954 319.66 270.723 319.434C270.49 319.208 270.356 318.9 270.351 318.577C270.348 318.357 270.408 318.141 270.525 317.953L272.756 314.429L268.418 314.563C268.253 314.571 268.087 314.545 267.932 314.489C267.776 314.432 267.634 314.345 267.513 314.233C267.311 314.009 267.2 313.719 267.2 313.419C267.2 313.119 267.311 312.829 267.513 312.605C267.633 312.491 267.775 312.402 267.93 312.343C268.086 312.284 268.252 312.257 268.418 312.263L272.706 312.422L270.513 308.91C270.393 308.718 270.328 308.498 270.327 308.273C270.331 308.112 270.367 307.954 270.432 307.807C270.498 307.66 270.593 307.527 270.711 307.417C270.942 307.19 271.253 307.063 271.578 307.062C271.79 307.063 271.996 307.124 272.174 307.236C272.351 307.349 272.493 307.509 272.582 307.698L274.689 311.479L276.784 307.722C276.883 307.522 277.036 307.352 277.226 307.231C277.416 307.111 277.636 307.043 277.862 307.037C278.019 307.037 278.174 307.069 278.317 307.132C278.46 307.196 278.588 307.288 278.692 307.404C278.807 307.519 278.898 307.654 278.96 307.803C279.021 307.952 279.053 308.112 279.052 308.273C279.047 308.485 278.987 308.691 278.878 308.873L276.635 312.422L280.997 312.263C281.158 312.247 281.32 312.265 281.472 312.316C281.625 312.367 281.765 312.45 281.882 312.559C282 312.668 282.092 312.801 282.153 312.948C282.214 313.096 282.243 313.254 282.237 313.413C282.239 313.715 282.129 314.007 281.927 314.233C281.81 314.347 281.67 314.435 281.517 314.492C281.363 314.549 281.199 314.574 281.035 314.563L276.66 314.429L278.829 317.917C278.951 318.111 279.015 318.336 279.014 318.565C279.016 318.727 278.982 318.887 278.916 319.034C278.85 319.182 278.752 319.314 278.63 319.422C278.522 319.536 278.392 319.628 278.247 319.691C278.102 319.754 277.946 319.787 277.788 319.789C277.577 319.785 277.372 319.721 277.198 319.603C277.024 319.486 276.888 319.321 276.808 319.128L274.726 315.457L272.669 319.128C272.575 319.33 272.422 319.501 272.23 319.618C272.039 319.736 271.816 319.795 271.591 319.789Z" fill="#263238"/>
<path d="M291.693 319.789C291.368 319.788 291.056 319.66 290.826 319.434C290.634 319.242 290.511 318.993 290.478 318.725C290.444 318.457 290.501 318.186 290.64 317.953L292.858 314.429L288.52 314.563C288.355 314.571 288.19 314.545 288.034 314.489C287.879 314.432 287.736 314.345 287.616 314.233C287.414 314.009 287.302 313.719 287.302 313.419C287.302 313.119 287.414 312.829 287.616 312.605C287.735 312.491 287.877 312.402 288.033 312.343C288.188 312.284 288.354 312.257 288.52 312.263L292.808 312.422L290.602 308.91C290.482 308.718 290.418 308.498 290.417 308.273C290.421 307.95 290.555 307.642 290.788 307.417C291.019 307.19 291.331 307.063 291.656 307.062C291.867 307.063 292.074 307.124 292.251 307.236C292.429 307.349 292.571 307.509 292.66 307.698L294.767 311.479L296.861 307.722C296.961 307.522 297.114 307.352 297.304 307.231C297.494 307.111 297.713 307.043 297.939 307.037C298.098 307.036 298.255 307.069 298.4 307.132C298.546 307.195 298.676 307.288 298.782 307.404C299.01 307.637 299.134 307.95 299.129 308.273C299.125 308.485 299.065 308.691 298.956 308.873L296.712 312.422L301.075 312.263C301.235 312.247 301.397 312.265 301.55 312.316C301.703 312.367 301.842 312.45 301.96 312.559C302.077 312.668 302.17 312.801 302.231 312.948C302.292 313.096 302.32 313.254 302.314 313.413C302.317 313.715 302.207 314.007 302.004 314.233C301.888 314.347 301.748 314.435 301.594 314.492C301.44 314.549 301.276 314.574 301.112 314.563L296.737 314.429L298.906 317.917C299.028 318.111 299.093 318.336 299.092 318.565C299.093 318.727 299.06 318.887 298.993 319.034C298.927 319.182 298.83 319.314 298.708 319.422C298.6 319.536 298.47 319.628 298.325 319.691C298.18 319.754 298.023 319.788 297.865 319.789C297.654 319.785 297.449 319.721 297.275 319.603C297.101 319.486 296.966 319.321 296.886 319.128L294.804 315.457L292.747 319.128C292.654 319.326 292.505 319.494 292.318 319.611C292.131 319.729 291.914 319.79 291.693 319.789Z" fill="#263238"/>
<path d="M311.795 319.789C311.474 319.784 311.168 319.657 310.94 319.434C310.818 319.326 310.721 319.194 310.655 319.047C310.588 318.899 310.555 318.739 310.556 318.577C310.56 318.357 310.624 318.141 310.742 317.953L312.96 314.429L308.623 314.563C308.463 314.575 308.303 314.554 308.152 314.502C308.001 314.449 307.863 314.366 307.746 314.258C307.63 314.15 307.537 314.019 307.475 313.873C307.412 313.728 307.381 313.571 307.383 313.413C307.382 313.263 307.412 313.115 307.469 312.976C307.526 312.838 307.611 312.712 307.718 312.605C307.832 312.487 307.971 312.395 308.125 312.336C308.28 312.277 308.445 312.252 308.61 312.263L312.898 312.422L310.692 308.91C310.572 308.718 310.508 308.498 310.506 308.273C310.511 307.95 310.645 307.642 310.878 307.417C311.109 307.19 311.421 307.063 311.746 307.062C311.957 307.063 312.163 307.124 312.341 307.236C312.519 307.349 312.66 307.509 312.75 307.698L314.856 311.479L316.963 307.722C317.062 307.524 317.213 307.355 317.4 307.235C317.588 307.114 317.805 307.046 318.029 307.037C318.188 307.036 318.345 307.069 318.49 307.132C318.635 307.195 318.766 307.288 318.872 307.404C319.099 307.637 319.224 307.95 319.219 308.273C319.218 308.483 319.163 308.69 319.058 308.873L316.815 312.422L321.165 312.263C321.33 312.252 321.495 312.277 321.65 312.336C321.804 312.395 321.943 312.487 322.057 312.605C322.268 312.822 322.384 313.112 322.379 313.413C322.378 313.716 322.264 314.009 322.057 314.233C321.94 314.347 321.8 314.435 321.647 314.492C321.493 314.549 321.329 314.574 321.165 314.563L316.79 314.429L318.959 317.917C319.081 318.111 319.145 318.336 319.145 318.565C319.14 318.888 319.006 319.196 318.773 319.422C318.547 319.649 318.24 319.781 317.918 319.789C317.707 319.785 317.502 319.721 317.328 319.603C317.154 319.486 317.018 319.321 316.939 319.128L314.856 315.457L312.799 319.128C312.71 319.319 312.569 319.482 312.392 319.599C312.215 319.715 312.008 319.781 311.795 319.789Z" fill="#263238"/>
<g style="mix-blend-mode:multiply">
<path d="M374.32 71.8647H154.931V85.4364H374.32V71.8647Z" fill="#8AA4DF"/>
</g>
<path d="M288.483 46.863H240.768C239.907 46.863 239.081 46.5252 238.472 45.9239C237.863 45.3226 237.521 44.5071 237.521 43.6567V43.6567C237.521 42.8064 237.863 41.9908 238.472 41.3895C239.081 40.7882 239.907 40.4504 240.768 40.4504H288.483C289.344 40.4504 290.17 40.7882 290.779 41.3895C291.388 41.9908 291.73 42.8064 291.73 43.6567V43.6567C291.73 44.5071 291.388 45.3226 290.779 45.9239C290.17 46.5252 289.344 46.863 288.483 46.863V46.863Z" fill="#8AA4DF" stroke="#263238" stroke-width="1.33739" stroke-linecap="round" stroke-linejoin="round"/>
<path d="M277.639 441.689C277.641 439.146 276.88 436.66 275.451 434.545C274.022 432.43 271.99 430.782 269.611 429.808C267.233 428.833 264.615 428.578 262.09 429.073C259.565 429.569 257.245 430.793 255.424 432.591C253.603 434.388 252.364 436.679 251.862 439.173C251.36 441.667 251.619 444.251 252.605 446.6C253.592 448.948 255.262 450.955 257.404 452.366C259.546 453.777 262.063 454.529 264.638 454.526C268.085 454.523 271.39 453.17 273.827 450.763C276.265 448.356 277.636 445.093 277.639 441.689Z" fill="#8AA4DF"/>
<path d="M271.231 435.178H258.045V448.199H271.231V435.178Z" fill="#8AA4DF" stroke="#263238" stroke-width="1.33739" stroke-linecap="round" stroke-linejoin="round"/>
<path d="M421.713 293.931C421.713 293.931 404.437 250.584 419.817 245.432C435.829 240.06 435.123 268.684 434.503 282.635C433.202 312.446 429.868 317.99 427.377 310.708L421.713 293.931ZM416.52 327.743C421.267 333.862 422.606 327.523 414.042 298.899C410.026 285.438 401.301 258.209 387.916 268.427C375.064 278.217 405.651 313.707 405.651 313.707L416.52 327.743ZM407.349 352.586C411.873 356.551 411.96 351.546 401.214 330.876C396.17 321.196 385.499 301.604 376.762 311.296C368.372 320.646 396.963 343.371 396.963 343.371L407.349 352.586ZM397.434 382.128C401.958 386.105 402.045 381.088 391.3 360.43C386.255 350.75 375.585 331.145 366.847 340.85C358.506 350.224 387.011 372.95 387.011 372.95L397.434 382.128ZM426.063 321.992C418.826 324.782 424.576 327.817 454.804 327.731C468.982 327.731 497.933 327.095 491.761 311.541C485.85 296.598 442.795 315.628 442.795 315.628L426.063 321.992ZM417.822 341.866C410.162 343.175 415.194 347.287 444.839 353.137C458.733 355.89 487.225 360.969 484.313 344.57C481.524 328.759 435.495 338.965 435.495 338.965L417.822 341.866ZM408.601 366.133C402.082 367.063 406.246 370.649 431.169 376.278C442.857 378.922 466.838 383.878 464.756 369.89C462.773 356.429 423.609 364.041 423.609 364.041L408.601 366.133ZM401.599 388.614C395.216 390.217 399.74 393.35 425.146 396.336C437.044 397.731 461.422 400.154 457.865 386.46C454.432 373.317 416.31 384.955 416.31 384.955L401.599 388.614ZM438.953 297.602C435.235 305.826 442.956 304.577 469.205 281.962C481.499 271.352 506.162 249.153 486.63 238.102C467.879 227.48 447.715 278.731 447.715 278.731L438.953 297.602ZM402.565 417.899C398.637 420.163 402.491 421.044 420.511 417.495C428.963 415.843 446.153 412.171 440.341 404.927C434.714 397.951 411.662 412.637 411.662 412.637L402.565 417.899Z" fill="#8AA4DF"/>
<path opacity="0.3" d="M421.713 293.931C421.713 293.931 404.437 250.584 419.817 245.432C435.829 240.06 435.123 268.684 434.503 282.635C433.202 312.446 429.868 317.99 427.377 310.708L421.713 293.931ZM416.52 327.743C421.267 333.862 422.606 327.523 414.042 298.899C410.026 285.438 401.301 258.209 387.916 268.427C375.064 278.217 405.651 313.707 405.651 313.707L416.52 327.743ZM407.349 352.586C411.873 356.551 411.96 351.546 401.214 330.876C396.17 321.196 385.499 301.604 376.762 311.296C368.372 320.646 396.963 343.371 396.963 343.371L407.349 352.586ZM397.434 382.128C401.958 386.105 402.045 381.088 391.3 360.43C386.255 350.75 375.585 331.145 366.847 340.85C358.506 350.224 387.011 372.95 387.011 372.95L397.434 382.128ZM426.063 321.992C418.826 324.782 424.576 327.817 454.804 327.731C468.982 327.731 497.933 327.095 491.761 311.541C485.85 296.598 442.795 315.628 442.795 315.628L426.063 321.992ZM417.822 341.866C410.162 343.175 415.194 347.287 444.839 353.137C458.733 355.89 487.225 360.969 484.313 344.57C481.524 328.759 435.495 338.965 435.495 338.965L417.822 341.866ZM408.601 366.133C402.082 367.063 406.246 370.649 431.169 376.278C442.857 378.922 466.838 383.878 464.756 369.89C462.773 356.429 423.609 364.041 423.609 364.041L408.601 366.133ZM401.599 388.614C395.216 390.217 399.74 393.35 425.146 396.336C437.044 397.731 461.422 400.154 457.865 386.46C454.432 373.317 416.31 384.955 416.31 384.955L401.599 388.614ZM438.953 297.602C435.235 305.826 442.956 304.577 469.205 281.962C481.499 271.352 506.162 249.153 486.63 238.102C467.879 227.48 447.715 278.731 447.715 278.731L438.953 297.602ZM402.565 417.899C398.637 420.163 402.491 421.044 420.511 417.495C428.963 415.843 446.153 412.171 440.341 404.927C434.714 397.951 411.662 412.637 411.662 412.637L402.565 417.899Z" fill="white"/>
<path d="M429.335 314.111L426.323 264.633ZM419.804 330.436L400.768 287.885ZM468.932 318.063L423.312 324.525ZM409.939 353.369L385.239 322.077ZM414.277 343.775L448.309 345.464ZM406.221 367.773L432.247 370.318ZM399.938 383.021L387.011 363.82ZM398.45 389.801L429.05 390.082ZM392.254 446.486C392.459 446.47 392.649 446.376 392.784 446.222C392.918 446.068 392.986 445.869 392.973 445.666C391.027 416.81 402.33 369.547 420.461 330.754C432.049 305.96 477.471 257.23 477.955 256.74C478.101 256.596 478.183 256.4 478.183 256.195C478.183 255.991 478.101 255.795 477.955 255.651C477.883 255.58 477.798 255.523 477.705 255.485C477.611 255.446 477.511 255.427 477.409 255.427C477.308 255.427 477.208 255.446 477.114 255.485C477.02 255.523 476.935 255.58 476.864 255.651C476.405 256.14 430.797 305.055 419.11 330.069C400.644 369.804 389.49 416.21 391.473 445.764C391.488 445.959 391.577 446.141 391.721 446.275C391.866 446.408 392.056 446.484 392.254 446.486V446.486ZM429.323 314.869C429.528 314.857 429.719 314.765 429.856 314.614C429.993 314.462 430.064 314.264 430.054 314.062L427.092 264.56C427.087 264.459 427.062 264.36 427.018 264.269C426.974 264.178 426.913 264.097 426.836 264.029C426.76 263.962 426.671 263.911 426.575 263.878C426.478 263.845 426.376 263.831 426.274 263.838C426.069 263.851 425.877 263.942 425.74 264.094C425.603 264.245 425.532 264.443 425.543 264.646L428.554 314.123C428.564 314.318 428.649 314.501 428.792 314.636C428.935 314.77 429.125 314.845 429.323 314.845V314.869ZM420.077 331.133C420.263 331.05 420.408 330.899 420.482 330.711C420.556 330.524 420.553 330.315 420.474 330.13L401.425 287.579C401.343 287.394 401.189 287.249 400.999 287.175C400.808 287.102 400.596 287.106 400.409 287.188C400.221 287.269 400.074 287.42 400 287.608C399.925 287.796 399.93 288.006 400.012 288.191L419.048 330.742C419.108 330.878 419.207 330.995 419.332 331.077C419.457 331.16 419.604 331.205 419.755 331.207C419.883 331.213 420.011 331.188 420.127 331.133H420.077ZM423.374 325.259L468.969 318.822C469.08 318.82 469.188 318.795 469.287 318.748C469.387 318.701 469.475 318.635 469.547 318.552C469.618 318.469 469.671 318.373 469.702 318.268C469.733 318.164 469.742 318.054 469.727 317.947C469.712 317.839 469.674 317.735 469.616 317.643C469.557 317.551 469.48 317.472 469.389 317.411C469.297 317.351 469.194 317.31 469.085 317.291C468.977 317.273 468.865 317.277 468.759 317.305L423.163 323.742C422.959 323.755 422.769 323.847 422.634 323.998C422.499 324.15 422.431 324.348 422.444 324.549C422.457 324.751 422.551 324.938 422.704 325.071C422.858 325.205 423.058 325.272 423.262 325.259H423.374ZM410.373 353.981C410.535 353.856 410.64 353.672 410.666 353.47C410.691 353.269 410.635 353.065 410.509 352.904L385.797 321.551C385.67 321.389 385.483 321.283 385.278 321.256C385.072 321.23 384.864 321.285 384.7 321.41C384.536 321.535 384.428 321.72 384.401 321.923C384.375 322.126 384.431 322.331 384.557 322.493L409.32 353.895C409.391 353.987 409.483 354.061 409.589 354.112C409.694 354.163 409.81 354.189 409.927 354.189C410.112 354.18 410.288 354.106 410.423 353.981H410.373ZM448.991 345.5C448.998 345.298 448.924 345.101 448.784 344.952C448.645 344.803 448.452 344.714 448.247 344.705L414.277 343.004C414.086 343.017 413.907 343.099 413.773 343.234C413.639 343.368 413.56 343.547 413.551 343.736C413.541 343.925 413.603 344.11 413.723 344.257C413.843 344.404 414.014 344.503 414.203 344.534L448.235 346.235C448.44 346.241 448.64 346.168 448.79 346.031C448.941 345.893 449.031 345.703 449.041 345.5H448.991ZM432.966 370.392C432.978 370.291 432.97 370.189 432.941 370.092C432.913 369.994 432.864 369.904 432.8 369.825C432.735 369.746 432.655 369.681 432.565 369.633C432.474 369.586 432.375 369.557 432.272 369.547L406.246 367.014C406.145 367.004 406.043 367.014 405.946 367.043C405.849 367.072 405.758 367.12 405.68 367.183C405.602 367.247 405.537 367.326 405.489 367.414C405.442 367.503 405.412 367.6 405.403 367.7C405.386 367.9 405.449 368.1 405.578 368.255C405.708 368.411 405.894 368.51 406.097 368.532L432.124 371.077H432.198C432.398 371.091 432.595 371.027 432.748 370.899C432.901 370.771 432.997 370.589 433.016 370.392H432.966ZM400.309 383.658C400.482 383.545 400.602 383.37 400.643 383.171C400.685 382.971 400.645 382.763 400.533 382.593L387.668 363.392C387.55 363.226 387.372 363.112 387.171 363.074C386.97 363.035 386.762 363.074 386.59 363.184C386.418 363.296 386.298 363.471 386.256 363.671C386.214 363.87 386.254 364.078 386.367 364.249L399.231 383.45C399.305 383.554 399.403 383.64 399.517 383.7C399.632 383.76 399.759 383.791 399.888 383.792C400.056 383.801 400.222 383.754 400.359 383.658H400.309ZM429.831 390.082C429.828 389.881 429.746 389.688 429.603 389.545C429.46 389.401 429.266 389.318 429.062 389.311L398.463 389.03C398.259 389.03 398.064 389.11 397.92 389.252C397.775 389.394 397.694 389.587 397.694 389.789C397.691 389.89 397.709 389.99 397.746 390.085C397.783 390.179 397.839 390.265 397.911 390.337C397.983 390.409 398.069 390.466 398.164 390.504C398.259 390.542 398.36 390.561 398.463 390.56L429.062 390.841C429.167 390.846 429.271 390.83 429.37 390.794C429.468 390.759 429.558 390.704 429.634 390.633C429.711 390.562 429.772 390.477 429.814 390.382C429.856 390.288 429.879 390.186 429.88 390.082H429.831ZM388.771 435.264C388.833 435.129 394.051 420.934 409.741 417.544C409.943 417.5 410.119 417.379 410.231 417.206C410.342 417.034 410.38 416.826 410.336 416.626C410.286 416.43 410.161 416.261 409.988 416.154C409.815 416.047 409.606 416.01 409.406 416.051C392.861 419.624 387.371 434.615 387.309 434.762C387.245 434.956 387.26 435.166 387.35 435.348C387.44 435.531 387.599 435.672 387.792 435.741H388.04C388.205 435.755 388.37 435.717 388.51 435.631C388.651 435.545 388.76 435.416 388.821 435.264H388.771ZM392.254 446.486C392.459 446.47 392.649 446.376 392.784 446.222C392.918 446.068 392.986 445.869 392.973 445.666C391.027 416.81 402.33 369.547 420.461 330.754C432.049 305.96 477.471 257.23 477.955 256.74C478.101 256.596 478.183 256.4 478.183 256.195C478.183 255.991 478.101 255.795 477.955 255.651C477.883 255.58 477.798 255.523 477.705 255.485C477.611 255.446 477.511 255.427 477.409 255.427C477.308 255.427 477.208 255.446 477.114 255.485C477.02 255.523 476.935 255.58 476.864 255.651C476.405 256.14 430.797 305.055 419.11 330.069C400.644 369.804 389.49 416.21 391.473 445.764C391.488 445.959 391.577 446.141 391.721 446.275C391.866 446.408 392.056 446.484 392.254 446.486V446.486ZM429.323 314.869C429.528 314.857 429.719 314.765 429.856 314.614C429.993 314.462 430.064 314.264 430.054 314.062L427.092 264.56C427.087 264.459 427.062 264.36 427.018 264.269C426.974 264.178 426.913 264.097 426.836 264.029C426.76 263.962 426.671 263.911 426.575 263.878C426.478 263.845 426.376 263.831 426.274 263.838C426.069 263.851 425.877 263.942 425.74 264.094C425.603 264.245 425.532 264.443 425.543 264.646L428.554 314.123C428.564 314.318 428.649 314.501 428.792 314.636C428.935 314.77 429.125 314.845 429.323 314.845V314.869ZM420.077 331.133C420.263 331.05 420.408 330.899 420.482 330.711C420.556 330.524 420.553 330.315 420.474 330.13L401.425 287.579C401.343 287.394 401.189 287.249 400.999 287.175C400.808 287.102 400.596 287.106 400.409 287.188C400.221 287.269 400.074 287.42 400 287.608C399.925 287.796 399.93 288.006 400.012 288.191L419.048 330.742C419.108 330.878 419.207 330.995 419.332 331.077C419.457 331.16 419.604 331.205 419.755 331.207C419.883 331.213 420.011 331.188 420.127 331.133H420.077ZM423.374 325.259L468.969 318.822C469.08 318.82 469.188 318.795 469.287 318.748C469.387 318.701 469.475 318.635 469.547 318.552C469.618 318.469 469.671 318.373 469.702 318.268C469.733 318.164 469.742 318.054 469.727 317.947C469.712 317.839 469.674 317.735 469.616 317.643C469.557 317.551 469.48 317.472 469.389 317.411C469.297 317.351 469.194 317.31 469.085 317.291C468.977 317.273 468.865 317.277 468.759 317.305L423.163 323.742C422.959 323.755 422.769 323.847 422.634 323.998C422.499 324.15 422.431 324.348 422.444 324.549C422.457 324.751 422.551 324.938 422.704 325.071C422.858 325.205 423.058 325.272 423.262 325.259H423.374ZM410.373 353.981C410.535 353.856 410.64 353.672 410.666 353.47C410.691 353.269 410.635 353.065 410.509 352.904L385.797 321.551C385.734 321.471 385.656 321.403 385.567 321.353C385.478 321.302 385.38 321.269 385.278 321.256C385.176 321.243 385.072 321.25 384.973 321.277C384.874 321.303 384.781 321.348 384.7 321.41C384.618 321.472 384.55 321.549 384.499 321.637C384.448 321.725 384.415 321.822 384.401 321.923C384.388 322.023 384.395 322.125 384.422 322.223C384.449 322.321 384.495 322.413 384.557 322.493L409.32 353.895C409.391 353.987 409.483 354.061 409.589 354.112C409.694 354.163 409.81 354.189 409.927 354.189C410.112 354.18 410.288 354.106 410.423 353.981H410.373ZM448.991 345.5C448.998 345.298 448.924 345.101 448.784 344.952C448.645 344.803 448.452 344.714 448.247 344.705L414.277 343.004C414.086 343.017 413.907 343.099 413.773 343.234C413.639 343.368 413.56 343.547 413.551 343.736C413.541 343.925 413.603 344.11 413.723 344.257C413.843 344.404 414.014 344.503 414.203 344.534L448.235 346.235C448.44 346.241 448.64 346.168 448.79 346.031C448.941 345.893 449.031 345.703 449.041 345.5H448.991ZM432.966 370.392C432.978 370.291 432.97 370.189 432.941 370.092C432.913 369.994 432.864 369.904 432.8 369.825C432.735 369.746 432.655 369.681 432.565 369.633C432.474 369.586 432.375 369.557 432.272 369.547L406.246 367.014C406.145 367.004 406.043 367.014 405.946 367.043C405.849 367.072 405.758 367.12 405.68 367.183C405.602 367.247 405.537 367.326 405.489 367.414C405.442 367.503 405.412 367.6 405.403 367.7C405.386 367.9 405.449 368.1 405.578 368.255C405.708 368.411 405.894 368.51 406.097 368.532L432.124 371.077H432.198C432.398 371.091 432.595 371.027 432.748 370.899C432.901 370.771 432.997 370.589 433.016 370.392H432.966ZM400.309 383.658C400.482 383.545 400.602 383.37 400.643 383.171C400.685 382.971 400.645 382.763 400.533 382.593L387.668 363.392C387.55 363.226 387.372 363.112 387.171 363.074C386.97 363.035 386.762 363.074 386.59 363.184C386.418 363.296 386.298 363.471 386.256 363.671C386.214 363.87 386.254 364.078 386.367 364.249L399.231 383.45C399.305 383.554 399.403 383.64 399.517 383.7C399.632 383.76 399.759 383.791 399.888 383.792C400.056 383.801 400.222 383.754 400.359 383.658H400.309ZM429.831 390.082C429.828 389.881 429.746 389.688 429.603 389.545C429.46 389.401 429.266 389.318 429.062 389.311L398.463 389.03C398.259 389.03 398.064 389.11 397.92 389.252C397.775 389.394 397.694 389.587 397.694 389.789C397.691 389.89 397.709 389.99 397.746 390.085C397.783 390.179 397.839 390.265 397.911 390.337C397.983 390.409 398.069 390.466 398.164 390.504C398.259 390.542 398.36 390.561 398.463 390.56L429.062 390.841C429.167 390.846 429.271 390.83 429.37 390.794C429.468 390.759 429.558 390.704 429.634 390.633C429.711 390.562 429.772 390.477 429.814 390.382C429.856 390.288 429.879 390.186 429.88 390.082H429.831ZM388.771 435.264C388.833 435.129 394.051 420.934 409.741 417.544C409.943 417.5 410.119 417.379 410.231 417.206C410.342 417.034 410.38 416.826 410.336 416.626C410.286 416.43 410.161 416.261 409.988 416.154C409.815 416.047 409.606 416.01 409.406 416.051C392.861 419.624 387.371 434.615 387.309 434.762C387.245 434.956 387.26 435.166 387.35 435.348C387.44 435.531 387.599 435.672 387.792 435.741H388.04C388.205 435.755 388.37 435.717 388.51 435.631C388.651 435.545 388.76 435.416 388.821 435.264H388.771Z" fill="#8AA4DF"/>
<path opacity="0.2" d="M429.335 314.111L426.323 264.633ZM419.804 330.436L400.768 287.885ZM468.932 318.063L423.312 324.525ZM409.939 353.369L385.239 322.077ZM414.277 343.775L448.309 345.464ZM406.221 367.773L432.247 370.318ZM399.938 383.021L387.011 363.82ZM398.45 389.801L429.05 390.082ZM392.254 446.486C392.459 446.47 392.649 446.376 392.784 446.222C392.918 446.068 392.986 445.869 392.973 445.666C391.027 416.81 402.33 369.547 420.461 330.754C432.049 305.96 477.471 257.23 477.955 256.74C478.101 256.596 478.183 256.4 478.183 256.195C478.183 255.991 478.101 255.795 477.955 255.651C477.883 255.58 477.798 255.523 477.705 255.485C477.611 255.446 477.511 255.427 477.409 255.427C477.308 255.427 477.208 255.446 477.114 255.485C477.02 255.523 476.935 255.58 476.864 255.651C476.405 256.14 430.797 305.055 419.11 330.069C400.644 369.804 389.49 416.21 391.473 445.764C391.488 445.959 391.577 446.141 391.721 446.275C391.866 446.408 392.056 446.484 392.254 446.486V446.486ZM429.323 314.869C429.528 314.857 429.719 314.765 429.856 314.614C429.993 314.462 430.064 314.264 430.054 314.062L427.092 264.56C427.087 264.459 427.062 264.36 427.018 264.269C426.974 264.178 426.913 264.097 426.836 264.029C426.76 263.962 426.671 263.911 426.575 263.878C426.478 263.845 426.376 263.831 426.274 263.838C426.069 263.851 425.877 263.942 425.74 264.094C425.603 264.245 425.532 264.443 425.543 264.646L428.554 314.123C428.564 314.318 428.649 314.501 428.792 314.636C428.935 314.77 429.125 314.845 429.323 314.845V314.869ZM420.077 331.133C420.263 331.05 420.408 330.899 420.482 330.711C420.556 330.524 420.553 330.315 420.474 330.13L401.425 287.579C401.343 287.394 401.189 287.249 400.999 287.175C400.808 287.102 400.596 287.106 400.409 287.188C400.221 287.269 400.074 287.42 400 287.608C399.925 287.796 399.93 288.006 400.012 288.191L419.048 330.742C419.108 330.878 419.207 330.995 419.332 331.077C419.457 331.16 419.604 331.205 419.755 331.207C419.883 331.213 420.011 331.188 420.127 331.133H420.077ZM423.374 325.259L468.969 318.822C469.08 318.82 469.188 318.795 469.287 318.748C469.387 318.701 469.475 318.635 469.547 318.552C469.618 318.469 469.671 318.373 469.702 318.268C469.733 318.164 469.742 318.054 469.727 317.947C469.712 317.839 469.674 317.735 469.616 317.643C469.557 317.551 469.48 317.472 469.389 317.411C469.297 317.351 469.194 317.31 469.085 317.291C468.977 317.273 468.865 317.277 468.759 317.305L423.163 323.742C422.959 323.755 422.769 323.847 422.634 323.998C422.499 324.15 422.431 324.348 422.444 324.549C422.457 324.751 422.551 324.938 422.704 325.071C422.858 325.205 423.058 325.272 423.262 325.259H423.374ZM410.373 353.981C410.535 353.856 410.64 353.672 410.666 353.47C410.691 353.269 410.635 353.065 410.509 352.904L385.797 321.551C385.67 321.389 385.483 321.283 385.278 321.256C385.072 321.23 384.864 321.285 384.7 321.41C384.536 321.535 384.428 321.72 384.401 321.923C384.375 322.126 384.431 322.331 384.557 322.493L409.32 353.895C409.391 353.987 409.483 354.061 409.589 354.112C409.694 354.163 409.81 354.189 409.927 354.189C410.112 354.18 410.288 354.106 410.423 353.981H410.373ZM448.991 345.5C448.998 345.298 448.924 345.101 448.784 344.952C448.645 344.803 448.452 344.714 448.247 344.705L414.277 343.004C414.086 343.017 413.907 343.099 413.773 343.234C413.639 343.368 413.56 343.547 413.551 343.736C413.541 343.925 413.603 344.11 413.723 344.257C413.843 344.404 414.014 344.503 414.203 344.534L448.235 346.235C448.44 346.241 448.64 346.168 448.79 346.031C448.941 345.893 449.031 345.703 449.041 345.5H448.991ZM432.966 370.392C432.978 370.291 432.97 370.189 432.941 370.092C432.913 369.994 432.864 369.904 432.8 369.825C432.735 369.746 432.655 369.681 432.565 369.633C432.474 369.586 432.375 369.557 432.272 369.547L406.246 367.014C406.145 367.004 406.043 367.014 405.946 367.043C405.849 367.072 405.758 367.12 405.68 367.183C405.602 367.247 405.537 367.326 405.489 367.414C405.442 367.503 405.412 367.6 405.403 367.7C405.386 367.9 405.449 368.1 405.578 368.255C405.708 368.411 405.894 368.51 406.097 368.532L432.124 371.077H432.198C432.398 371.091 432.595 371.027 432.748 370.899C432.901 370.771 432.997 370.589 433.016 370.392H432.966ZM400.309 383.658C400.482 383.545 400.602 383.37 400.643 383.171C400.685 382.971 400.645 382.763 400.533 382.593L387.668 363.392C387.55 363.226 387.372 363.112 387.171 363.074C386.97 363.035 386.762 363.074 386.59 363.184C386.418 363.296 386.298 363.471 386.256 363.671C386.214 363.87 386.254 364.078 386.367 364.249L399.231 383.45C399.305 383.554 399.403 383.64 399.517 383.7C399.632 383.76 399.759 383.791 399.888 383.792C400.056 383.801 400.222 383.754 400.359 383.658H400.309ZM429.831 390.082C429.828 389.881 429.746 389.688 429.603 389.545C429.46 389.401 429.266 389.318 429.062 389.311L398.463 389.03C398.259 389.03 398.064 389.11 397.92 389.252C397.775 389.394 397.694 389.587 397.694 389.789C397.691 389.89 397.709 389.99 397.746 390.085C397.783 390.179 397.839 390.265 397.911 390.337C397.983 390.409 398.069 390.466 398.164 390.504C398.259 390.542 398.36 390.561 398.463 390.56L429.062 390.841C429.167 390.846 429.271 390.83 429.37 390.794C429.468 390.759 429.558 390.704 429.634 390.633C429.711 390.562 429.772 390.477 429.814 390.382C429.856 390.288 429.879 390.186 429.88 390.082H429.831ZM388.771 435.264C388.833 435.129 394.051 420.934 409.741 417.544C409.943 417.5 410.119 417.379 410.231 417.206C410.342 417.034 410.38 416.826 410.336 416.626C410.286 416.43 410.161 416.261 409.988 416.154C409.815 416.047 409.606 416.01 409.406 416.051C392.861 419.624 387.371 434.615 387.309 434.762C387.245 434.956 387.26 435.166 387.35 435.348C387.44 435.531 387.599 435.672 387.792 435.741H388.04C388.205 435.755 388.37 435.717 388.51 435.631C388.651 435.545 388.76 435.416 388.821 435.264H388.771ZM392.254 446.486C392.459 446.47 392.649 446.376 392.784 446.222C392.918 446.068 392.986 445.869 392.973 445.666C391.027 416.81 402.33 369.547 420.461 330.754C432.049 305.96 477.471 257.23 477.955 256.74C478.101 256.596 478.183 256.4 478.183 256.195C478.183 255.991 478.101 255.795 477.955 255.651C477.883 255.58 477.798 255.523 477.705 255.485C477.611 255.446 477.511 255.427 477.409 255.427C477.308 255.427 477.208 255.446 477.114 255.485C477.02 255.523 476.935 255.58 476.864 255.651C476.405 256.14 430.797 305.055 419.11 330.069C400.644 369.804 389.49 416.21 391.473 445.764C391.488 445.959 391.577 446.141 391.721 446.275C391.866 446.408 392.056 446.484 392.254 446.486V446.486ZM429.323 314.869C429.528 314.857 429.719 314.765 429.856 314.614C429.993 314.462 430.064 314.264 430.054 314.062L427.092 264.56C427.087 264.459 427.062 264.36 427.018 264.269C426.974 264.178 426.913 264.097 426.836 264.029C426.76 263.962 426.671 263.911 426.575 263.878C426.478 263.845 426.376 263.831 426.274 263.838C426.069 263.851 425.877 263.942 425.74 264.094C425.603 264.245 425.532 264.443 425.543 264.646L428.554 314.123C428.564 314.318 428.649 314.501 428.792 314.636C428.935 314.77 429.125 314.845 429.323 314.845V314.869ZM420.077 331.133C420.263 331.05 420.408 330.899 420.482 330.711C420.556 330.524 420.553 330.315 420.474 330.13L401.425 287.579C401.343 287.394 401.189 287.249 400.999 287.175C400.808 287.102 400.596 287.106 400.409 287.188C400.221 287.269 400.074 287.42 400 287.608C399.925 287.796 399.93 288.006 400.012 288.191L419.048 330.742C419.108 330.878 419.207 330.995 419.332 331.077C419.457 331.16 419.604 331.205 419.755 331.207C419.883 331.213 420.011 331.188 420.127 331.133H420.077ZM423.374 325.259L468.969 318.822C469.08 318.82 469.188 318.795 469.287 318.748C469.387 318.701 469.475 318.635 469.547 318.552C469.618 318.469 469.671 318.373 469.702 318.268C469.733 318.164 469.742 318.054 469.727 317.947C469.712 317.839 469.674 317.735 469.616 317.643C469.557 317.551 469.48 317.472 469.389 317.411C469.297 317.351 469.194 317.31 469.085 317.291C468.977 317.273 468.865 317.277 468.759 317.305L423.163 323.742C422.959 323.755 422.769 323.847 422.634 323.998C422.499 324.15 422.431 324.348 422.444 324.549C422.457 324.751 422.551 324.938 422.704 325.071C422.858 325.205 423.058 325.272 423.262 325.259H423.374ZM410.373 353.981C410.535 353.856 410.64 353.672 410.666 353.47C410.691 353.269 410.635 353.065 410.509 352.904L385.797 321.551C385.734 321.471 385.656 321.403 385.567 321.353C385.478 321.302 385.38 321.269 385.278 321.256C385.176 321.243 385.072 321.25 384.973 321.277C384.874 321.303 384.781 321.348 384.7 321.41C384.618 321.472 384.55 321.549 384.499 321.637C384.448 321.725 384.415 321.822 384.401 321.923C384.388 322.023 384.395 322.125 384.422 322.223C384.449 322.321 384.495 322.413 384.557 322.493L409.32 353.895C409.391 353.987 409.483 354.061 409.589 354.112C409.694 354.163 409.81 354.189 409.927 354.189C410.112 354.18 410.288 354.106 410.423 353.981H410.373ZM448.991 345.5C448.998 345.298 448.924 345.101 448.784 344.952C448.645 344.803 448.452 344.714 448.247 344.705L414.277 343.004C414.086 343.017 413.907 343.099 413.773 343.234C413.639 343.368 413.56 343.547 413.551 343.736C413.541 343.925 413.603 344.11 413.723 344.257C413.843 344.404 414.014 344.503 414.203 344.534L448.235 346.235C448.44 346.241 448.64 346.168 448.79 346.031C448.941 345.893 449.031 345.703 449.041 345.5H448.991ZM432.966 370.392C432.978 370.291 432.97 370.189 432.941 370.092C432.913 369.994 432.864 369.904 432.8 369.825C432.735 369.746 432.655 369.681 432.565 369.633C432.474 369.586 432.375 369.557 432.272 369.547L406.246 367.014C406.145 367.004 406.043 367.014 405.946 367.043C405.849 367.072 405.758 367.12 405.68 367.183C405.602 367.247 405.537 367.326 405.489 367.414C405.442 367.503 405.412 367.6 405.403 367.7C405.386 367.9 405.449 368.1 405.578 368.255C405.708 368.411 405.894 368.51 406.097 368.532L432.124 371.077H432.198C432.398 371.091 432.595 371.027 432.748 370.899C432.901 370.771 432.997 370.589 433.016 370.392H432.966ZM400.309 383.658C400.482 383.545 400.602 383.37 400.643 383.171C400.685 382.971 400.645 382.763 400.533 382.593L387.668 363.392C387.55 363.226 387.372 363.112 387.171 363.074C386.97 363.035 386.762 363.074 386.59 363.184C386.418 363.296 386.298 363.471 386.256 363.671C386.214 363.87 386.254 364.078 386.367 364.249L399.231 383.45C399.305 383.554 399.403 383.64 399.517 383.7C399.632 383.76 399.759 383.791 399.888 383.792C400.056 383.801 400.222 383.754 400.359 383.658H400.309ZM429.831 390.082C429.828 389.881 429.746 389.688 429.603 389.545C429.46 389.401 429.266 389.318 429.062 389.311L398.463 389.03C398.259 389.03 398.064 389.11 397.92 389.252C397.775 389.394 397.694 389.587 397.694 389.789C397.691 389.89 397.709 389.99 397.746 390.085C397.783 390.179 397.839 390.265 397.911 390.337C397.983 390.409 398.069 390.466 398.164 390.504C398.259 390.542 398.36 390.561 398.463 390.56L429.062 390.841C429.167 390.846 429.271 390.83 429.37 390.794C429.468 390.759 429.558 390.704 429.634 390.633C429.711 390.562 429.772 390.477 429.814 390.382C429.856 390.288 429.879 390.186 429.88 390.082H429.831ZM388.771 435.264C388.833 435.129 394.051 420.934 409.741 417.544C409.943 417.5 410.119 417.379 410.231 417.206C410.342 417.034 410.38 416.826 410.336 416.626C410.286 416.43 410.161 416.261 409.988 416.154C409.815 416.047 409.606 416.01 409.406 416.051C392.861 419.624 387.371 434.615 387.309 434.762C387.245 434.956 387.26 435.166 387.35 435.348C387.44 435.531 387.599 435.672 387.792 435.741H388.04C388.205 435.755 388.37 435.717 388.51 435.631C388.651 435.545 388.76 435.416 388.821 435.264H388.771Z" fill="black"/>
<path d="M412.492 424.911H377.406V432.082H380.468L386.801 471.206H403.098L409.431 432.082H412.492V424.911Z" fill="#8AA4DF"/>
<path opacity="0.3" d="M412.492 424.911H377.406V432.082H380.468L386.801 471.206H403.098L409.431 432.082H412.492V424.911Z" fill="white"/>
<path d="M96.6069 208.058L55.7951 194.903L52.1638 185.431L43.8726 185.174L28.8269 182.359L30.6364 185.431L49.5736 199.003L54.246 201.303L96.9291 223.319L96.6069 208.058Z" fill="white" stroke="#263238" stroke-width="1.00396" stroke-miterlimit="10"/>
<path d="M52.1639 185.431L48.2723 183.13L40.5016 185.945L41.7905 187.475L52.1639 185.431Z" fill="white" stroke="#263238" stroke-width="1.00396" stroke-linejoin="round"/>
<path d="M96.6069 208.058L55.7951 194.903L52.1638 185.431L43.8726 185.174L28.8269 182.359L30.6364 185.431L49.5736 199.003L54.246 201.303L96.9291 223.319L96.6069 208.058Z" fill="white"/>
<path opacity="0.5" d="M96.6069 208.058L55.7951 194.903L52.1638 185.431L43.8726 185.174L28.8269 182.359L30.6364 185.431L49.5736 199.003L54.246 201.303L96.9291 223.319L96.6069 208.058Z" fill="#8AA4DF" stroke="#263238" stroke-width="1.00396" stroke-miterlimit="10"/>
<path d="M96.6069 208.058L55.7951 194.903L52.1638 185.431L43.8726 185.174L28.8269 182.359L30.6364 185.431L49.5736 199.003L54.246 201.303L96.9291 223.319L96.6069 208.058Z" stroke="#263238" stroke-width="1.00396" stroke-miterlimit="10"/>
<path d="M52.1639 185.431L48.2723 183.13L40.5016 185.945L41.7905 187.475L52.1639 185.431Z" fill="white"/>
<path opacity="0.5" d="M52.1639 185.431L48.2723 183.13L40.5016 185.945L41.7905 187.475L52.1639 185.431Z" fill="#8AA4DF" stroke="#263238" stroke-width="1.00396" stroke-linejoin="round"/>
<path d="M52.1639 185.431L48.2723 183.13L40.5016 185.945L41.7905 187.475L52.1639 185.431Z" stroke="#263238" stroke-width="1.00396" stroke-linejoin="round"/>
<path d="M105.27 122.676C105.27 122.676 104.638 128.183 106.212 131.719C107.786 135.256 116.523 147.237 116.523 147.237L100.214 160.148C100.214 160.148 93.4468 146.686 92.1578 144.508C90.8689 142.33 89.3197 132.955 93.5211 126.237C97.7225 119.518 103.771 117.707 105.27 122.676Z" fill="white"/>
<g style="mix-blend-mode:multiply" opacity="0.5">
<path d="M96.892 140.372L103.969 154.861L100.201 160.16L93.0872 147.616L96.892 140.372Z" fill="#8AA4DF"/>
</g>
<path d="M105.27 122.676C105.27 122.676 104.638 128.183 106.212 131.719C107.786 135.256 116.523 147.237 116.523 147.237L100.214 160.148C100.214 160.148 93.4468 146.686 92.1578 144.508C90.8689 142.33 89.3197 132.955 93.5211 126.237C97.7225 119.518 103.771 117.707 105.27 122.676Z" stroke="#263238" stroke-width="1.00396" stroke-miterlimit="10"/>
<path d="M110.327 112.592C109.323 106.473 102.221 94.0273 90.9555 94.5046C83.6433 94.8227 80.2227 96.279 77.05 98.0535C74.4638 99.5581 72.0532 101.339 69.8618 103.365C64.3591 109.887 62.4257 111.674 63.4915 116.667C63.4041 118.659 63.7201 120.647 64.421 122.517C66.1066 126.959 67.2592 129.859 68.7216 131.976C68.2754 134.045 67.1104 139.503 67.0485 140.751C66.9865 141.999 70.7665 141.13 72.6751 140.653C76.2196 148.485 82.7138 153.919 84.734 154.543C88.2537 155.632 93.8184 149.917 96.768 145.487C99.7177 141.057 97.4869 136.076 97.4993 134.094C97.5117 132.111 104.13 127.754 106.584 126.372C109.038 124.989 111.318 118.699 110.327 112.592Z" fill="white"/>
<g style="mix-blend-mode:multiply" opacity="0.5">
<path d="M63.541 116.667C63.4536 118.659 63.7696 120.647 64.4706 122.517C66.1561 126.959 67.3087 129.859 68.7711 131.977C68.3249 134.045 67.1599 139.503 67.098 140.751C67.036 141.999 70.816 141.13 72.7246 140.653C76.2692 148.485 82.7633 153.919 84.7835 154.543C88.3032 155.632 93.8679 149.917 96.8176 145.487C97.5545 144.381 98.0329 143.127 98.218 141.816C98.0569 141.241 97.9454 140.886 97.9454 140.886C97.9454 140.886 96.2846 147.188 92.988 146.368C89.6913 145.548 84.6472 139.025 81.8338 136.774C79.0205 134.522 80.1731 131.56 79.6154 128.207C79.0577 124.854 70.7293 121.905 70.1716 119.984C69.6138 118.062 71.5596 110.108 71.5596 110.108C71.5596 110.108 74.72 105.947 74.0383 107.66C73.5565 109.146 73.3818 110.712 73.5244 112.265C73.6671 113.819 74.1242 115.328 74.8687 116.704C75.3911 117.789 76.2199 118.703 77.2554 119.335C78.2909 119.966 79.4891 120.289 80.706 120.265L83.73 105.47L77.3474 100.256L69.9113 103.316C64.359 109.887 62.4628 111.674 63.541 116.667Z" fill="#8AA4DF"/>
</g>
<path d="M110.327 112.592C109.323 106.473 102.221 94.0273 90.9555 94.5046C83.6433 94.8227 80.2227 96.279 77.05 98.0535C74.4638 99.5581 72.0532 101.339 69.8618 103.365C64.3591 109.887 62.4257 111.674 63.4915 116.667C63.4041 118.659 63.7201 120.647 64.421 122.517C66.1066 126.959 67.2592 129.859 68.7216 131.976C68.2754 134.045 67.1104 139.503 67.0485 140.751C66.9865 141.999 70.7665 141.13 72.6751 140.653C76.2196 148.485 82.7138 153.919 84.734 154.543C88.2537 155.632 93.8184 149.917 96.768 145.487C99.7177 141.057 97.4869 136.076 97.4993 134.094C97.5117 132.111 104.13 127.754 106.584 126.372C109.038 124.989 111.318 118.699 110.327 112.592Z" stroke="#263238" stroke-miterlimit="10"/>
<path d="M70.2584 128.281L71.4978 131.781C71.4978 131.781 74.1624 132.65 77.4095 129.15" stroke="#263238" stroke-miterlimit="10" stroke-linecap="round"/>
<path d="M79.4171 144.63C79.4171 144.63 82.3668 144.337 83.5565 140.249" stroke="#263238" stroke-miterlimit="10" stroke-linecap="round"/>
<path d="M68.1886 125.356C68.1886 125.356 69.0685 122.725 74.3853 122.725" stroke="#263238" stroke-miterlimit="10" stroke-linecap="round"/>
<path d="M95.442 89.6339C91.5787 89.0854 87.6827 88.791 83.7798 88.7528C83.7798 88.7528 72.1051 82.1077 60.889 89.1934C49.6729 96.279 55.0641 108.688 55.0641 111.784C55.0641 114.88 51.47 114.893 53.7132 118.882C55.9564 122.872 63.5412 120.669 63.5412 120.669C63.6214 119.164 64.0241 117.693 64.7227 116.354C65.4213 115.014 66.3999 113.836 67.5939 112.898C71.6342 109.802 74.8565 109.129 76.195 110.022C76.195 110.022 75.3026 116.667 76.6411 119.323C76.6411 119.323 81.1276 121.538 82.4785 121.538C83.8294 121.538 81.5985 123.41 86.0726 125.074C86.8877 125.363 87.7596 125.462 88.6197 125.362C89.4799 125.262 90.3049 124.967 91.03 124.499C91.6868 121.807 93.1245 117.756 95.8015 118.699C99.7302 120.081 103.312 129.627 97.9951 132.882C104.39 134.032 112.136 122.859 112.595 112.678C113.053 102.496 102.085 90.7843 95.442 89.6339Z" fill="#263238"/>
<path d="M76.3932 105.653C76.3932 105.653 79.6899 103.903 83.7301 107.648C87.7704 111.393 95.6279 116.398 106.038 113.644" stroke="white" stroke-width="0.5" stroke-linecap="round" stroke-linejoin="round"/>
<path d="M75.9346 102.655C75.9346 102.655 78.2026 99.1549 81.995 99.1549C85.7874 99.1549 94.6487 104.405 101.725 104.405" stroke="white" stroke-width="0.5" stroke-linecap="round" stroke-linejoin="round"/>
<path d="M73.3568 109.398C73.3568 109.398 69.0562 104.16 65.016 108.407C60.9757 112.653 63.5411 116.667 63.5411 116.667" stroke="white" stroke-width="0.5" stroke-linecap="round" stroke-linejoin="round"/>
<path d="M56.167 112.898C58.6314 110.703 60.1634 107.669 60.4551 104.405C60.9633 98.9101 68.5605 94.1619 73.3568 98.6653" stroke="white" stroke-width="0.5" stroke-linecap="round" stroke-linejoin="round"/>
<path d="M63.9998 92.9137C63.9998 92.9137 71.597 85.669 77.9176 94.9084" stroke="white" stroke-width="0.5" stroke-linecap="round" stroke-linejoin="round"/>
<path d="M125.831 449.117C125.831 449.117 130.503 456.289 129.983 460.902L129.474 465.516C129.474 465.516 112.334 470.154 108.703 470.154C105.072 470.154 85.8493 468.355 85.8493 468.355L85.0189 465.1C84.9608 464.859 84.9882 464.607 85.0965 464.384C85.2049 464.161 85.3875 463.982 85.6138 463.876L102.754 455.983L108.158 450.145L125.831 449.117Z" fill="white" stroke="#263238" stroke-width="1.00396" stroke-miterlimit="10"/>
<path d="M111.306 466.544C115.953 466.899 124.777 464.096 129.896 462.31L129.536 465.516C129.536 465.516 112.334 470.154 108.703 470.154C105.072 470.154 85.8494 468.355 85.8494 468.355L85.2545 466.03C88.3281 466.042 105.158 466.079 111.306 466.544Z" fill="#8AA4DF" stroke="#263238" stroke-width="1.00396" stroke-miterlimit="10"/>
<path d="M102.779 455.983L77.8308 466.703C77.8308 466.703 75.6992 471.977 77.8308 473.03C79.9625 474.082 126.438 473.03 126.438 473.03C126.438 473.03 129.648 464.696 124.579 459.103C119.51 453.511 102.779 455.983 102.779 455.983Z" fill="white" stroke="#263238" stroke-width="1.00396" stroke-miterlimit="10"/>
<path d="M126.438 473.03C126.438 473.03 79.9626 474.082 77.8309 473.03C76.8023 472.516 76.7651 471.035 77.0006 469.628H127.256C127.092 470.785 126.818 471.924 126.438 473.03Z" fill="#8AA4DF" stroke="#263238" stroke-width="1.00396" stroke-miterlimit="10"/>
<path d="M90.9803 269.712C90.9803 269.712 84.4613 298.238 81.995 316.081C79.5287 333.924 78.0787 369.67 78.5992 373.77C79.1197 377.869 105.072 446.56 105.072 446.56L107.662 452.678L125.831 449.093C125.831 449.093 117.527 422.953 114.416 408.598C111.306 394.243 104.502 370.661 104.502 366.562C104.502 362.462 120.613 284.165 121.766 279.025C122.918 273.885 128.148 265.992 128.148 265.992L93.3599 265.294L90.9803 269.712Z" fill="#8AA4DF" stroke="#263238" stroke-width="1.00396" stroke-miterlimit="10"/>
<path d="M90.9803 269.712C90.9803 269.712 87.1632 295.766 88.7371 313.878C90.3111 331.99 93.6945 370.551 93.6945 376.291C93.6945 382.03 103.076 416.308 103.609 427.077C104.44 442.631 103.275 450.329 103.275 450.329L102.717 455.97C102.717 455.97 113.66 457.512 116.052 458.185C118.815 458.888 121.666 459.193 124.517 459.091C124.517 459.091 128.495 441.799 128.495 427.065C128.495 412.331 125.186 382.006 123.538 369.719C121.89 357.432 127.083 310.035 130.032 301.188C132.982 292.34 139.426 273.604 135.089 264.034C130.751 254.464 90.9803 269.712 90.9803 269.712Z" fill="#8AA4DF" stroke="#263238" stroke-width="1.00396" stroke-miterlimit="10"/>
<path d="M139.91 259.237L139.513 270.887C139.513 270.887 132.449 272.27 122.931 273.898C115.073 275.244 95.3428 273.543 88.6999 272.906C88.0945 272.853 87.5348 272.566 87.1426 272.108C86.7503 271.65 86.5573 271.057 86.6054 270.459L87.2498 259.934L139.91 259.237Z" fill="#263238"/>
<path d="M112.297 143.101C112.297 143.101 101.143 155.008 96.9415 162.412C92.7401 169.816 91.0794 181.16 89.5054 190.093C87.9315 199.027 92.1948 220.002 90.9927 229.634L87.1879 259.971C87.1879 259.971 86.3699 262.027 89.1088 264.279C91.8478 266.53 105.22 267.35 117.304 267.95C121.716 268.17 134.89 265.368 137.047 265.233C139.65 265.074 139.736 261.807 139.848 259.237C140.368 247.158 142.574 214.961 144.024 200.936C147.011 172.337 130.664 144.728 112.297 143.101Z" fill="white" stroke="#263238" stroke-width="1.00396" stroke-miterlimit="10"/>
<g style="mix-blend-mode:multiply">
<path d="M142.661 217.2C143.157 210.849 143.653 205.085 144.086 200.936C144.21 199.712 144.285 198.489 144.347 197.265L114.714 202.16L89.2576 193.594C89.2603 198.795 89.5583 203.992 90.1499 209.16L115.123 216.062L142.661 217.2Z" fill="#8AA4DF"/>
</g>
<g style="mix-blend-mode:multiply">
<path d="M111.194 144.3C109.509 146.148 106.162 149.905 102.977 153.894L121.791 172.777L127.987 170.33L111.194 144.3Z" fill="#8AA4DF"/>
</g>
<path d="M112.297 143.101C112.297 143.101 101.143 155.008 96.9417 162.412C95.6959 164.662 94.6867 167.032 93.9301 169.485L116.362 143.896C115.037 143.5 113.675 143.233 112.297 143.101V143.101Z" fill="#263238"/>
<g style="mix-blend-mode:multiply">
<path d="M90.3729 185.272L114.714 193.177L144.272 189.824C143.809 182.553 142.173 175.402 139.426 168.641L115.594 178.076L94.2893 168.543C92.5472 174.011 91.2378 179.604 90.3729 185.272V185.272Z" fill="#8AA4DF"/>
</g>
<g style="mix-blend-mode:multiply">
<path d="M132.276 247.158C119.93 249.205 107.263 248.183 95.4173 244.184L89.4808 242.177L87.6342 256.863L94.401 258.735C107.265 262.286 120.71 263.309 133.973 261.745L139.439 261.097C139.723 260.502 139.884 259.857 139.91 259.2C140.059 255.932 140.319 251.184 140.654 245.738L132.276 247.158Z" fill="#8AA4DF"/>
</g>
<g style="mix-blend-mode:multiply">
<path d="M135.584 227.162C123.238 229.216 110.568 228.19 98.7262 224.176L91.1662 221.618C91.3537 224.284 91.3164 226.961 91.0546 229.621L90.1747 236.683L97.7099 238.763C110.569 242.318 124.01 243.345 137.27 241.786L140.988 241.345C141.298 236.45 141.657 231.237 142.041 226.085L135.584 227.162Z" fill="#8AA4DF"/>
</g>
<path d="M19.3103 175.411L43.2736 194.436L44.3064 193.167L20.3431 174.142L19.3103 175.411Z" fill="#263238"/>
<path d="M123.835 156.305C123.835 156.305 132.622 162.216 132.821 176.179C132.907 182.298 132.263 188.013 130.838 198.036C129.412 208.058 120.564 240.696 113.673 244.661C106.782 248.627 96.0864 241.137 96.0864 241.137L44.3559 207.226L31.8509 197.253L25.6542 185.7L27.6 182.029L42.8563 193.581L34.6395 186.079L36.2506 184.06L39.225 186.104L47.9005 189.31L49.7967 201.548L52.4737 203.359L101.961 221.214C101.961 221.214 101.341 194.915 101.8 189.885C102.258 184.856 102.89 172.214 108.344 163.048" fill="white"/>
<g style="mix-blend-mode:multiply" opacity="0.5">
<path d="M101.614 201.34C101.614 210.42 101.924 221.214 101.924 221.214L52.4862 203.433L49.8092 201.621L47.913 189.384L39.2375 186.177L36.2755 184.097L34.6643 186.116L42.8564 193.581L27.6 182.029L25.7534 185.639L31.9502 197.191L44.4552 207.226L47.6031 209.294L115.953 231.041L101.614 201.34Z" fill="#8AA4DF"/>
</g>
<path d="M123.835 156.305C123.835 156.305 132.622 162.216 132.821 176.179C132.907 182.298 132.263 188.013 130.838 198.036C129.412 208.058 120.564 240.696 113.673 244.661C106.782 248.627 96.0864 241.137 96.0864 241.137L44.3559 207.226L31.8509 197.253L25.6542 185.7L27.6 182.029L42.8563 193.581L34.6395 186.079L36.2506 184.06L39.225 186.104L47.9005 189.31L49.7967 201.548L52.4737 203.359L101.961 221.214C101.961 221.214 101.341 194.915 101.8 189.885C102.258 184.856 102.89 172.214 108.344 163.048" stroke="#263238" stroke-width="1.00396" stroke-miterlimit="10"/>
<path d="M101.961 221.214L120.849 234.675L125.744 226.109C125.744 226.109 129.128 223.478 129.623 221.495C130.119 219.513 129.487 216.294 129.995 214.312C130.503 212.329 133.032 210.469 133.267 205.672C133.502 200.875 133.267 196.873 133.267 196.873C133.267 196.873 137.357 180.267 136.911 173.046C136.465 165.826 129.413 153.062 123.761 152.781C118.11 152.499 110.76 153.344 105.059 161.861C99.3584 170.378 100.523 195.246 99.6311 196.8C98.7388 198.354 99.9781 206.027 99.9781 206.027C99.4828 206.392 99.0719 206.857 98.7727 207.39C98.4735 207.924 98.293 208.515 98.243 209.123C98.1439 211.118 100.325 216.025 100.325 216.025L101.961 221.214Z" fill="white" stroke="#263238" stroke-width="1.00396" stroke-miterlimit="10"/>
<g style="mix-blend-mode:multiply">
<path d="M100.127 190.412C100.166 192.547 100.004 194.682 99.6434 196.787C98.8502 198.183 99.755 204.485 99.9532 205.77C110.577 209.028 121.81 209.865 132.808 208.218C133.045 207.366 133.186 206.492 133.23 205.611C133.478 200.826 133.23 196.812 133.23 196.812C133.23 196.812 133.589 195.331 134.085 193.079C122.695 193.794 111.259 192.896 100.127 190.412V190.412Z" fill="#8AA4DF"/>
</g>
<g style="mix-blend-mode:multiply">
<path d="M104.291 163.219C102.519 166.732 101.527 172.006 100.957 177.354C112.208 181.594 124.339 183.052 136.291 181.601C136.768 178.77 136.979 175.903 136.923 173.034C136.708 170.767 136.166 168.541 135.312 166.426C124.876 166.666 114.451 165.589 104.291 163.219V163.219Z" fill="#8AA4DF"/>
</g>
<path d="M100.325 216.16L101.924 221.214L120.811 234.676L125.707 226.109C125.707 226.109 129.09 223.478 129.586 221.496C129.674 221.151 129.728 220.798 129.747 220.443C119.794 220.273 109.904 218.834 100.325 216.16V216.16Z" fill="#263238"/>
<path d="M113.995 458.026C113.995 458.026 114.416 447.428 116.474 431.935C118.531 416.443 113.586 394.439 112.756 390.768C111.925 387.096 113.177 378.946 112.347 376.082C111.516 373.219 107.501 361.006 109.868 346.834C112.235 332.663 114.156 295.203 114.156 295.203C114.156 295.203 108.195 290.418 106.447 284.189C104.7 277.96 106.038 276.002 106.038 276.002" stroke="#263238" stroke-width="1.00396" stroke-miterlimit="10"/>
<path d="M116.759 276.578L114.466 289.109" stroke="#263238" stroke-width="1.00396" stroke-miterlimit="10"/>
</svg>
