<svg width="97" height="22" viewBox="0 0 97 22" fill="none" xmlns="http://www.w3.org/2000/svg">
<path d="M2.75376 20.0046C1.5113 20.0044 0.504072 18.9972 0.503742 17.7547L0.502441 3.7502C0.502121 2.50751 1.5094 1.49986 2.75209 1.49986L3.49944 1.499L3.50001 0.75C3.50001 0.3703 3.78216 0.05651 4.14824 0.00685L4.25001 0C4.6297 0 4.9435 0.28215 4.99316 0.64823L5.00001 0.75L4.99944 1.499H8.0014L8.0019 0.75C8.0019 0.3703 8.2841 0.05651 8.6502 0.00685L8.7519 0C9.1316 0 9.4454 0.28215 9.4951 0.64823L9.5019 0.75L9.5014 1.499H12.4994L12.5 0.75C12.5 0.3703 12.7822 0.05651 13.1482 0.00685L13.25 0C13.6297 0 13.9435 0.28215 13.9932 0.64823L14 0.75L13.9994 1.499L14.7486 1.49986C15.991 1.50029 16.9982 2.50734 16.9986 3.7499L17 14.7499C17 14.8094 16.9929 14.8682 16.9793 14.9251L16.9502 15.0188L16.9052 15.115L16.8848 15.1471C16.8562 15.1951 16.8208 15.2398 16.7803 15.2803L12.2756 19.7849C12.2494 19.8112 12.2211 19.8356 12.1912 19.8577L12.2756 19.7849C12.2433 19.8173 12.2083 19.8464 12.1712 19.872L12.0834 19.9241L11.9666 19.9712L11.8535 19.9968L11.7998 20.0026L11.7453 20.0046H2.75376ZM14.7484 2.99993H2.742C2.33251 3.00545 2.00244 3.3391 2.00244 3.74993L2.00374 17.7544C2.00385 18.1687 2.33973 18.5046 2.75388 18.5046L10.9944 18.504L10.9953 16.25C10.9953 15.0591 11.9205 14.0844 13.0913 14.0052L13.2453 14H15.4994L15.4986 3.75027C15.4985 3.33596 15.1626 3.0001 14.7484 2.99993ZM14.4384 15.5H13.2453C12.8656 15.5 12.5518 15.7822 12.5022 16.1482L12.4953 16.25L12.4944 17.444L14.4384 15.5ZM4.25019 14H8.2484C8.6626 14 8.9984 14.3358 8.9984 14.75C8.9984 15.1297 8.7163 15.4435 8.3502 15.4932L8.2484 15.5H4.25019C3.83597 15.5 3.50019 15.1642 3.50019 14.75C3.50019 14.3703 3.78234 14.0565 4.14842 14.0068L4.25019 14H8.2484H4.25019ZM4.25019 10H13.2484C13.6626 10 13.9984 10.3358 13.9984 10.75C13.9984 11.1297 13.7163 11.4435 13.3502 11.4932L13.2484 11.5H4.25019C3.83597 11.5 3.50019 11.1642 3.50019 10.75C3.50019 10.3703 3.78234 10.0565 4.14842 10.0068L4.25019 10H13.2484H4.25019ZM4.25019 6H13.2484C13.6626 6 13.9984 6.33579 13.9984 6.75C13.9984 7.1297 13.7163 7.44349 13.3502 7.49315L13.2484 7.5H4.25019C3.83597 7.5 3.50019 7.16421 3.50019 6.75C3.50019 6.3703 3.78234 6.05651 4.14842 6.00685L4.25019 6H13.2484H4.25019Z" fill="#212121"/>
<path d="M35.9716 5.09091V16H34.6932L28.7486 7.43466H28.642V16H27.321V5.09091H28.5994L34.5653 13.6776H34.6719V5.09091H35.9716ZM41.7684 16.1705C41.0297 16.1705 40.3817 15.9947 39.8241 15.6431C39.2702 15.2915 38.8369 14.7997 38.5244 14.1676C38.2155 13.5355 38.061 12.7969 38.061 11.9517C38.061 11.0994 38.2155 10.3555 38.5244 9.71982C38.8369 9.08416 39.2702 8.59055 39.8241 8.23899C40.3817 7.88743 41.0297 7.71165 41.7684 7.71165C42.507 7.71165 43.1533 7.88743 43.7073 8.23899C44.2648 8.59055 44.6981 9.08416 45.007 9.71982C45.3195 10.3555 45.4758 11.0994 45.4758 11.9517C45.4758 12.7969 45.3195 13.5355 45.007 14.1676C44.6981 14.7997 44.2648 15.2915 43.7073 15.6431C43.1533 15.9947 42.507 16.1705 41.7684 16.1705ZM41.7684 15.0412C42.3295 15.0412 42.7911 14.8974 43.1533 14.6097C43.5155 14.3221 43.7836 13.9439 43.9577 13.4751C44.1317 13.0064 44.2187 12.4986 44.2187 11.9517C44.2187 11.4048 44.1317 10.8952 43.9577 10.4229C43.7836 9.95064 43.5155 9.56889 43.1533 9.2777C42.7911 8.98651 42.3295 8.84091 41.7684 8.84091C41.2073 8.84091 40.7456 8.98651 40.3834 9.2777C40.0212 9.56889 39.7531 9.95064 39.5791 10.4229C39.4051 10.8952 39.3181 11.4048 39.3181 11.9517C39.3181 12.4986 39.4051 13.0064 39.5791 13.4751C39.7531 13.9439 40.0212 14.3221 40.3834 14.6097C40.7456 14.8974 41.2073 15.0412 41.7684 15.0412ZM50.9529 7.81818V8.88352H46.7129V7.81818H50.9529ZM47.9487 5.85795H49.2058V13.6562C49.2058 14.0114 49.2573 14.2777 49.3603 14.4553C49.4668 14.6293 49.6017 14.7464 49.7651 14.8068C49.932 14.8636 50.1078 14.892 50.2924 14.892C50.4309 14.892 50.5446 14.8849 50.6333 14.8707C50.7221 14.853 50.7931 14.8388 50.8464 14.8281L51.1021 15.9574C51.0169 15.9893 50.8979 16.0213 50.7452 16.0533C50.5925 16.0888 50.399 16.1065 50.1646 16.1065C49.8095 16.1065 49.4615 16.0302 49.1206 15.8775C48.7832 15.7248 48.5027 15.4922 48.2789 15.1797C48.0588 14.8672 47.9487 14.473 47.9487 13.9972V5.85795ZM56.1864 16.1705C55.3981 16.1705 54.718 15.9964 54.1463 15.6484C53.5781 15.2969 53.1396 14.8068 52.8306 14.1783C52.5252 13.5462 52.3725 12.8111 52.3725 11.973C52.3725 11.1349 52.5252 10.3963 52.8306 9.7571C53.1396 9.11435 53.5692 8.61364 54.1197 8.25497C54.6737 7.89276 55.32 7.71165 56.0586 7.71165C56.4847 7.71165 56.9055 7.78267 57.321 7.92472C57.7365 8.06676 58.1147 8.29759 58.4556 8.61719C58.7965 8.93324 59.0682 9.35227 59.2706 9.87429C59.473 10.3963 59.5742 11.0391 59.5742 11.8026V12.3352H53.2674V11.2486H58.2958C58.2958 10.7869 58.2035 10.375 58.0188 10.0128C57.8377 9.65057 57.5785 9.3647 57.2411 9.15518C56.9073 8.94567 56.5131 8.84091 56.0586 8.84091C55.5579 8.84091 55.1246 8.9652 54.7589 9.21378C54.3967 9.45881 54.1179 9.77841 53.9226 10.1726C53.7273 10.5668 53.6296 10.9893 53.6296 11.4403V12.1648C53.6296 12.7827 53.7362 13.3065 53.9492 13.7362C54.1658 14.1623 54.4659 14.4872 54.8494 14.7109C55.233 14.9311 55.6786 15.0412 56.1864 15.0412C56.5167 15.0412 56.815 14.995 57.0813 14.9027C57.3512 14.8068 57.5838 14.6648 57.7791 14.4766C57.9744 14.2848 58.1254 14.0469 58.2319 13.7628L59.4464 14.1037C59.3185 14.5156 59.1037 14.8778 58.8018 15.1903C58.5 15.4993 58.1271 15.7408 57.6832 15.9148C57.2393 16.0852 56.7404 16.1705 56.1864 16.1705ZM67.282 9.65057L66.1527 9.97017C66.0817 9.78196 65.9769 9.59908 65.8384 9.42152C65.7035 9.24041 65.5188 9.09126 65.2844 8.97408C65.0501 8.85689 64.75 8.7983 64.3842 8.7983C63.8835 8.7983 63.4663 8.91371 63.1325 9.14453C62.8022 9.3718 62.6371 9.66122 62.6371 10.0128C62.6371 10.3253 62.7507 10.5721 62.978 10.7532C63.2053 10.9343 63.5604 11.0852 64.0433 11.206L65.2578 11.5043C65.9893 11.6818 66.5344 11.9535 66.8931 12.3192C67.2518 12.6815 67.4311 13.1484 67.4311 13.7202C67.4311 14.1889 67.2962 14.608 67.0263 14.9773C66.7599 15.3466 66.3871 15.6378 65.9077 15.8509C65.4283 16.0639 64.8707 16.1705 64.2351 16.1705C63.4006 16.1705 62.7099 15.9893 62.163 15.6271C61.6161 15.2649 61.2699 14.7358 61.1243 14.0398L62.3175 13.7415C62.4311 14.1818 62.646 14.5121 62.962 14.7322C63.2816 14.9524 63.6989 15.0625 64.2138 15.0625C64.7997 15.0625 65.2649 14.9382 65.6094 14.6896C65.9574 14.4375 66.1314 14.1357 66.1314 13.7841C66.1314 13.5 66.032 13.2621 65.8331 13.0703C65.6342 12.875 65.3288 12.7294 64.9169 12.6335L63.5533 12.3139C62.804 12.1364 62.2536 11.8612 61.902 11.4883C61.554 11.1119 61.38 10.6413 61.38 10.0767C61.38 9.61506 61.5096 9.20668 61.7688 8.85156C62.0316 8.49645 62.3885 8.21768 62.8395 8.01527C63.294 7.81286 63.8089 7.71165 64.3842 7.71165C65.1939 7.71165 65.8295 7.8892 66.2912 8.24432C66.7564 8.59943 67.0866 9.06818 67.282 9.65057Z" fill="black"/>
</svg>
