<svg width="22" height="23" viewBox="0 0 22 23" fill="none" xmlns="http://www.w3.org/2000/svg">
<path d="M10.9957 0C11.4729 0 11.8675 0.370657 11.93 0.851797L11.9387 0.985557L11.9402 10.5147H21.0573C21.5779 10.5147 22 10.9561 22 11.5005C22 11.9995 21.6453 12.412 21.1852 12.4773L21.0573 12.4862H11.9402L11.9427 22.014C11.9428 22.5584 11.5208 23 11.0002 23C10.5229 23 10.1283 22.6294 10.0659 22.1482L10.0572 22.0144L10.0547 12.4862H0.942744C0.422073 12.4862 0 12.0449 0 11.5005C0 11.0014 0.35466 10.589 0.81482 10.5236L0.942744 10.5147H10.0547L10.0532 0.985951C10.053 0.441539 10.475 0 10.9957 0Z" fill="#191847"/>
<path d="M10.9957 0C11.4729 0 11.8675 0.370657 11.93 0.851797L11.9387 0.985557L11.9402 10.5147H21.0573C21.5779 10.5147 22 10.9561 22 11.5005C22 11.9995 21.6453 12.412 21.1852 12.4773L21.0573 12.4862H11.9402L11.9427 22.014C11.9428 22.5584 11.5208 23 11.0002 23C10.5229 23 10.1283 22.6294 10.0659 22.1482L10.0572 22.0144L10.0547 12.4862H0.942744C0.422073 12.4862 0 12.0449 0 11.5005C0 11.0014 0.35466 10.589 0.81482 10.5236L0.942744 10.5147H10.0547L10.0532 0.985951C10.053 0.441539 10.475 0 10.9957 0Z" fill="black" fill-opacity="0.2"/>
</svg>
