<svg width="26" height="26" viewBox="0 0 26 26" fill="none" xmlns="http://www.w3.org/2000/svg">
<path d="M10.4722 0C16.2559 0 20.9445 4.68858 20.9445 10.4722C20.9445 12.9739 20.0673 15.2705 18.6037 17.0716L25.6827 24.1507C26.1058 24.5738 26.1058 25.2596 25.6827 25.6827C25.2982 26.0673 24.6963 26.1023 24.2722 25.7875L24.1507 25.6827L17.0716 18.6037C15.2705 20.0672 12.9739 20.9445 10.4722 20.9445C4.68859 20.9445 0 16.2559 0 10.4722C0 4.68858 4.68859 0 10.4722 0ZM10.4722 2.16667C5.88519 2.16667 2.16667 5.88519 2.16667 10.4722C2.16667 15.0592 5.88519 18.7778 10.4722 18.7778C15.0592 18.7778 18.7778 15.0592 18.7778 10.4722C18.7778 5.88519 15.0592 2.16667 10.4722 2.16667Z" fill="#212121"/>
</svg>
