<svg width="541" height="386" viewBox="0 0 541 386" fill="none" xmlns="http://www.w3.org/2000/svg">
<path d="M91.4723 72.7743C121.682 9.74352 228.951 18.6389 270.349 62.9566C311.746 107.274 325.206 135.688 362.546 119.149C399.886 102.609 447.504 107.02 450.188 159.607C452.871 212.195 409.212 274.377 339.748 292.783C270.284 311.189 270.327 376.276 178.422 363.14C128.314 355.983 127.178 302.855 134.255 258.919C141.331 214.983 56.4371 145.867 91.4723 72.7743Z" fill="#8AA4DF"/>
<path opacity="0.9" d="M91.4723 72.7743C121.682 9.74352 228.951 18.6389 270.349 62.9566C311.746 107.274 325.206 135.688 362.546 119.149C399.886 102.609 447.504 107.02 450.188 159.607C452.871 212.195 409.212 274.377 339.748 292.783C270.284 311.189 270.327 376.276 178.422 363.14C128.314 355.983 127.178 302.855 134.255 258.919C141.331 214.983 56.4371 145.867 91.4723 72.7743Z" fill="white"/>
<path d="M407.914 196.768C407.914 188.636 403.586 181.289 396.607 176.009C396.837 174.939 396.953 173.848 396.953 172.754C396.953 161.929 385.722 153.119 371.743 152.875C367.523 142.4 354.853 134.798 339.878 134.798C327.976 134.798 317.47 139.633 311.573 146.895C310.074 146.695 308.563 146.592 307.05 146.588C292.8 146.588 281.233 155.494 281.233 166.488C281.239 168.355 281.576 170.206 282.229 171.959C273.151 176.635 267.167 184.597 267.167 193.651C267.167 202.366 272.718 210.074 281.233 214.856C281.233 214.951 281.233 215.036 281.233 215.132C281.233 225.798 292.129 234.502 305.806 235C313.38 242.221 324.903 246.843 337.865 246.843C346.391 246.904 354.784 244.776 362.21 240.673C363.375 240.792 364.545 240.852 365.716 240.853C379.977 240.853 391.532 231.947 391.532 220.963V220.751C401.422 215.513 407.914 206.745 407.914 196.768Z" fill="#8AA4DF"/>
<path d="M230.098 168.418C230.098 169.807 228.453 170.931 226.43 170.931C224.407 170.931 222.762 169.807 222.762 168.418C222.762 167.029 224.407 165.905 226.43 165.905C228.453 165.905 230.098 167.029 230.098 168.418Z" fill="#8AA4DF"/>
<path d="M253.826 177.048C261.84 177.048 268.336 172.615 268.336 167.146C268.336 161.677 261.84 157.243 253.826 157.243C245.813 157.243 239.317 161.677 239.317 167.146C239.317 172.615 245.813 177.048 253.826 177.048Z" fill="#8AA4DF"/>
<path opacity="0.7" d="M407.914 196.768C407.914 188.636 403.586 181.289 396.607 176.009C396.837 174.939 396.953 173.848 396.953 172.754C396.953 161.929 385.722 153.119 371.743 152.875C367.523 142.4 354.853 134.798 339.878 134.798C327.976 134.798 317.47 139.633 311.573 146.895C310.074 146.695 308.563 146.592 307.05 146.588C292.8 146.588 281.233 155.494 281.233 166.488C281.239 168.355 281.576 170.206 282.229 171.959C273.151 176.635 267.167 184.597 267.167 193.651C267.167 202.366 272.718 210.074 281.233 214.856C281.233 214.951 281.233 215.036 281.233 215.132C281.233 225.798 292.129 234.502 305.806 235C313.38 242.221 324.903 246.843 337.865 246.843C346.391 246.904 354.784 244.776 362.21 240.673C363.375 240.792 364.545 240.852 365.716 240.853C379.977 240.853 391.532 231.947 391.532 220.963V220.751C401.422 215.513 407.914 206.745 407.914 196.768Z" fill="white"/>
<path opacity="0.7" d="M230.098 168.418C230.098 169.807 228.453 170.931 226.43 170.931C224.407 170.931 222.762 169.807 222.762 168.418C222.762 167.029 224.407 165.905 226.43 165.905C228.453 165.905 230.098 167.029 230.098 168.418Z" fill="white"/>
<path opacity="0.7" d="M253.826 177.048C261.84 177.048 268.336 172.615 268.336 167.146C268.336 161.677 261.84 157.243 253.826 157.243C245.813 157.243 239.317 161.677 239.317 167.146C239.317 172.615 245.813 177.048 253.826 177.048Z" fill="white"/>
<path d="M312.276 95.8132C312.276 88.2113 306.769 81.6697 298.881 78.7541C299.149 77.6098 299.287 76.4399 299.292 75.2659C299.292 66.1585 291.426 58.5884 281.017 56.9239C273.908 47.562 261.541 41.3597 247.475 41.3597C233.409 41.3597 221.215 47.4454 214.074 56.6588C202.583 57.5706 193.678 65.5436 193.678 75.2765C193.684 77.0344 193.988 78.7792 194.576 80.4398C188.668 83.8114 184.784 89.4412 184.784 95.8238C184.784 104.783 192.358 112.268 202.572 114.092C204.119 123.157 213.511 130.143 224.894 130.143C232.478 135.359 241.528 138.137 250.793 138.094C260.058 138.05 269.081 135.187 276.613 129.9C286.492 128.649 294.25 122.107 295.548 113.88C305.124 111.738 312.276 104.475 312.276 95.8132Z" fill="#8AA4DF"/>
<path d="M224.169 153.988C230.234 153.988 235.151 150.428 235.151 146.036C235.151 141.645 230.234 138.085 224.169 138.085C218.103 138.085 213.186 141.645 213.186 146.036C213.186 150.428 218.103 153.988 224.169 153.988Z" fill="#8AA4DF"/>
<path d="M211.444 157.285C211.444 158.674 209.8 159.798 207.776 159.798C205.753 159.798 204.108 158.674 204.108 157.285C204.108 155.897 205.753 154.794 207.744 154.794C209.735 154.794 211.444 155.854 211.444 157.285Z" fill="#8AA4DF"/>
<path opacity="0.7" d="M312.276 95.8132C312.276 88.2113 306.769 81.6697 298.881 78.7541C299.149 77.6098 299.287 76.4399 299.292 75.2659C299.292 66.1585 291.426 58.5884 281.017 56.9239C273.908 47.562 261.541 41.3597 247.475 41.3597C233.409 41.3597 221.215 47.4454 214.074 56.6588C202.583 57.5706 193.678 65.5436 193.678 75.2765C193.684 77.0344 193.988 78.7792 194.576 80.4398C188.668 83.8114 184.784 89.4412 184.784 95.8238C184.784 104.783 192.358 112.268 202.572 114.092C204.119 123.157 213.511 130.143 224.894 130.143C232.478 135.359 241.528 138.137 250.793 138.094C260.058 138.05 269.081 135.187 276.613 129.9C286.492 128.649 294.25 122.107 295.548 113.88C305.124 111.738 312.276 104.475 312.276 95.8132Z" fill="white"/>
<path opacity="0.7" d="M224.169 153.988C230.234 153.988 235.151 150.428 235.151 146.036C235.151 141.645 230.234 138.085 224.169 138.085C218.103 138.085 213.186 141.645 213.186 146.036C213.186 150.428 218.103 153.988 224.169 153.988Z" fill="white"/>
<path opacity="0.7" d="M211.444 157.285C211.444 158.674 209.8 159.798 207.776 159.798C205.753 159.798 204.108 158.674 204.108 157.285C204.108 155.897 205.753 154.794 207.744 154.794C209.735 154.794 211.444 155.854 211.444 157.285Z" fill="white"/>
<path d="M168.943 151.868C173.82 151.868 177.773 149.005 177.773 145.474C177.773 141.944 173.82 139.081 168.943 139.081C164.067 139.081 160.114 141.944 160.114 145.474C160.114 149.005 164.067 151.868 168.943 151.868Z" fill="#8AA4DF"/>
<path d="M186.548 155.165C186.548 156.554 184.903 157.678 182.88 157.678C180.856 157.678 179.201 156.554 179.201 155.165C179.201 153.776 180.845 152.673 182.858 152.673C184.871 152.673 186.548 153.734 186.548 155.165Z" fill="#8AA4DF"/>
<path opacity="0.7" d="M168.943 151.868C173.82 151.868 177.773 149.005 177.773 145.474C177.773 141.944 173.82 139.081 168.943 139.081C164.067 139.081 160.114 141.944 160.114 145.474C160.114 149.005 164.067 151.868 168.943 151.868Z" fill="white"/>
<path opacity="0.7" d="M186.548 155.165C186.548 156.554 184.903 157.678 182.88 157.678C180.856 157.678 179.201 156.554 179.201 155.165C179.201 153.776 180.845 152.673 182.858 152.673C184.871 152.673 186.548 153.734 186.548 155.165Z" fill="white"/>
<path d="M161.272 119.244C160.774 114.59 157.853 110.646 153.547 108.038C153.617 107.41 153.617 106.778 153.547 106.15C152.897 99.9586 145.973 95.5481 137.933 96.2478C134.882 90.512 127.178 86.9072 118.62 87.766C111.792 88.4551 106.101 91.8267 103.169 96.3221C102.318 96.3199 101.469 96.373 100.626 96.4811C92.4785 97.3081 86.4085 103.065 87.0685 109.352C87.1871 110.418 87.4947 111.455 87.9774 112.416C83.0651 115.597 80.1221 120.527 80.6739 125.701C81.2041 130.684 84.8396 134.766 90.0008 136.971C90.0061 137.024 90.0061 137.077 90.0008 137.13C90.65 143.237 97.4016 147.574 105.257 147.065C110.722 151.045 117.544 152.804 124.3 151.974C129.17 151.519 133.833 149.823 137.825 147.054C138.496 147.054 139.167 147.054 139.849 146.959C147.996 146.121 154.066 140.364 153.406 134.077C153.4 134.038 153.4 133.999 153.406 133.96C158.686 130.334 161.878 124.938 161.272 119.244Z" fill="#8AA4DF"/>
<path opacity="0.7" d="M161.272 119.244C160.774 114.59 157.853 110.646 153.547 108.038C153.617 107.41 153.617 106.778 153.547 106.15C152.897 99.9586 145.973 95.5481 137.933 96.2478C134.882 90.512 127.178 86.9072 118.62 87.766C111.792 88.4551 106.101 91.8267 103.169 96.3221C102.318 96.3199 101.469 96.373 100.626 96.4811C92.4785 97.3081 86.4085 103.065 87.0685 109.352C87.1871 110.418 87.4947 111.455 87.9774 112.416C83.0651 115.597 80.1221 120.527 80.6739 125.701C81.2041 130.684 84.8396 134.766 90.0008 136.971C90.0061 137.024 90.0061 137.077 90.0008 137.13C90.65 143.237 97.4016 147.574 105.257 147.065C110.722 151.045 117.544 152.804 124.3 151.974C129.17 151.519 133.833 149.823 137.825 147.054C138.496 147.054 139.167 147.054 139.849 146.959C147.996 146.121 154.066 140.364 153.406 134.077C153.4 134.038 153.4 133.999 153.406 133.96C158.686 130.334 161.878 124.938 161.272 119.244Z" fill="white"/>
<path d="M340.397 223.38C339.521 226.614 334.306 228.056 328.733 226.561C323.161 225.066 319.363 221.334 320.229 218.079C321.094 214.824 326.32 213.414 331.893 214.898C337.465 216.383 341.263 220.157 340.397 223.38Z" fill="#263238"/>
<path d="M347.647 213.817C348.326 213.451 348.837 212.844 349.075 212.121C349.93 208.94 343.751 204.614 335.279 202.409C326.807 200.204 319.244 200.988 318.389 204.158C318.237 204.887 318.372 205.644 318.768 206.279C318.524 206.552 318.343 206.874 318.238 207.222C318.083 207.955 318.23 208.717 318.649 209.343C318.385 209.615 318.192 209.946 318.086 210.308C317.942 211.044 318.101 211.807 318.53 212.428C318.254 212.699 318.052 213.035 317.946 213.403C317.869 213.769 317.871 214.147 317.951 214.512C318.031 214.877 318.188 215.221 318.411 215.524C318.116 215.79 317.903 216.132 317.794 216.51C317.08 219.139 322.22 222.755 329.263 224.589C336.307 226.423 342.594 225.766 343.329 223.136C343.439 222.759 343.439 222.359 343.329 221.981C343.677 221.828 343.988 221.605 344.244 221.328C344.499 221.05 344.692 220.724 344.812 220.369C344.909 219.997 344.909 219.607 344.812 219.235C345.48 218.916 345.993 218.352 346.24 217.666C346.332 217.3 346.332 216.918 346.24 216.552C346.924 216.209 347.441 215.614 347.679 214.898C347.75 214.54 347.738 214.171 347.647 213.817V213.817Z" fill="#263238"/>
<path opacity="0.3" d="M347.647 213.817C348.326 213.451 348.837 212.844 349.075 212.121C349.93 208.94 343.751 204.614 335.279 202.409C326.807 200.204 319.244 200.988 318.389 204.158C318.237 204.887 318.372 205.644 318.768 206.279C318.524 206.552 318.343 206.874 318.238 207.222C318.083 207.955 318.23 208.717 318.649 209.343C318.385 209.615 318.192 209.946 318.086 210.308C317.942 211.044 318.101 211.807 318.53 212.428C318.254 212.699 318.052 213.035 317.946 213.403C317.869 213.769 317.871 214.147 317.951 214.512C318.031 214.877 318.188 215.221 318.411 215.524C318.116 215.79 317.903 216.132 317.794 216.51C317.08 219.139 322.22 222.755 329.263 224.589C336.307 226.423 342.594 225.766 343.329 223.136C343.439 222.759 343.439 222.359 343.329 221.981C343.677 221.828 343.988 221.605 344.244 221.328C344.499 221.05 344.692 220.724 344.812 220.369C344.909 219.997 344.909 219.607 344.812 219.235C345.48 218.916 345.993 218.352 346.24 217.666C346.332 217.3 346.332 216.918 346.24 216.552C346.924 216.209 347.441 215.614 347.679 214.898C347.75 214.54 347.738 214.171 347.647 213.817V213.817Z" fill="white"/>
<path d="M367.967 189.018C369.199 184.522 369.249 179.793 368.113 175.272C366.976 170.752 364.689 166.587 361.466 163.167C358.243 159.746 354.188 157.181 349.68 155.711C345.171 154.241 340.357 153.914 335.685 154.76C331.012 155.606 326.635 157.598 322.961 160.55C319.287 163.502 316.435 167.318 314.673 171.641C312.91 175.965 312.294 180.655 312.881 185.275C313.469 189.895 315.241 194.294 318.032 198.062C318.486 198.663 318.78 199.366 318.888 200.106C318.996 200.846 318.913 201.601 318.649 202.303L318.584 202.515C317.719 205.696 323.994 210.138 332.596 212.375C341.198 214.612 348.88 213.817 349.746 210.604C349.752 210.534 349.752 210.463 349.746 210.392C349.882 209.655 350.201 208.962 350.674 208.374C351.148 207.787 351.762 207.322 352.462 207.021C356.248 205.336 359.603 202.846 362.285 199.732C364.967 196.618 366.908 192.958 367.967 189.018V189.018Z" fill="#8AA4DF"/>
<path opacity="0.3" d="M367.967 189.018C369.199 184.522 369.249 179.793 368.113 175.272C366.976 170.752 364.689 166.587 361.466 163.167C358.243 159.746 354.188 157.181 349.68 155.711C345.171 154.241 340.357 153.914 335.685 154.76C331.012 155.606 326.635 157.598 322.961 160.55C319.287 163.502 316.435 167.318 314.673 171.641C312.91 175.965 312.294 180.655 312.881 185.275C313.469 189.895 315.241 194.294 318.032 198.062C318.486 198.663 318.78 199.366 318.888 200.106C318.996 200.846 318.913 201.601 318.649 202.303L318.584 202.515C317.719 205.696 323.994 210.138 332.596 212.375C341.198 214.612 348.88 213.817 349.746 210.604C349.752 210.534 349.752 210.463 349.746 210.392C349.882 209.655 350.201 208.962 350.674 208.374C351.148 207.787 351.762 207.322 352.462 207.021C356.248 205.336 359.603 202.846 362.285 199.732C364.967 196.618 366.908 192.958 367.967 189.018V189.018Z" fill="white"/>
<path d="M338.579 209.237H338.45C338.368 209.202 338.303 209.137 338.268 209.056C338.234 208.975 338.233 208.884 338.266 208.802C338.482 208.304 343.373 197.14 350.774 194.245L346.749 193.185C346.685 193.169 346.628 193.136 346.584 193.089C346.54 193.042 346.51 192.983 346.5 192.92L345.991 189.453L341.23 194.924C341.188 194.971 341.134 195.006 341.073 195.025C341.011 195.043 340.946 195.045 340.884 195.03C340.825 195.012 340.771 194.979 340.73 194.934C340.688 194.89 340.659 194.835 340.646 194.775L339.261 187.661L334.695 192.4C334.656 192.444 334.604 192.476 334.546 192.491C334.488 192.506 334.427 192.504 334.37 192.485C334.311 192.473 334.256 192.445 334.212 192.403C334.168 192.362 334.137 192.31 334.122 192.252L332.564 185.954L330.335 188.721C330.296 188.773 330.242 188.811 330.18 188.832C330.118 188.853 330.051 188.855 329.988 188.838L325.682 187.661C326.98 190.015 330.854 198.051 328.625 206.268C328.615 206.311 328.596 206.351 328.57 206.386C328.543 206.421 328.51 206.451 328.471 206.472C328.433 206.494 328.39 206.508 328.346 206.513C328.301 206.518 328.257 206.514 328.214 206.501C328.171 206.49 328.131 206.471 328.096 206.445C328.061 206.419 328.032 206.386 328.01 206.348C327.987 206.311 327.973 206.27 327.967 206.227C327.962 206.184 327.964 206.14 327.976 206.098C330.54 196.641 324.73 187.407 324.73 187.311C324.693 187.256 324.673 187.192 324.673 187.126C324.673 187.06 324.693 186.995 324.73 186.94C324.771 186.888 324.826 186.849 324.89 186.826C324.953 186.804 325.021 186.799 325.087 186.813L329.988 188.085L332.499 184.904C332.537 184.855 332.589 184.817 332.648 184.795C332.707 184.772 332.772 184.766 332.834 184.777C332.895 184.792 332.952 184.822 332.997 184.865C333.043 184.908 333.076 184.962 333.094 185.021L334.673 191.382L339.272 186.622C339.313 186.576 339.366 186.543 339.425 186.526C339.485 186.509 339.548 186.51 339.607 186.527C339.667 186.544 339.72 186.577 339.762 186.622C339.804 186.667 339.833 186.722 339.845 186.781L341.22 193.885L346.002 188.382C346.045 188.336 346.099 188.301 346.16 188.283C346.221 188.264 346.286 188.262 346.348 188.276C346.411 188.296 346.467 188.332 346.511 188.38C346.555 188.429 346.585 188.488 346.597 188.552L347.181 192.527L352.072 193.789C352.143 193.808 352.207 193.849 352.252 193.907C352.297 193.964 352.321 194.035 352.321 194.107C352.322 194.181 352.298 194.253 352.253 194.312C352.208 194.372 352.144 194.415 352.072 194.436C344.39 196.556 338.991 208.834 338.937 208.961C338.923 209.043 338.879 209.116 338.813 209.167C338.747 209.218 338.663 209.243 338.579 209.237V209.237Z" fill="#263238"/>
<path opacity="0.4" d="M353.63 164.983C354.864 170.92 348.826 177.122 340.159 178.851C331.492 180.579 323.464 177.165 322.241 171.238C321.019 165.311 327.035 159.098 335.701 157.37C344.368 155.642 352.397 159.035 353.63 164.983Z" fill="white"/>
<path opacity="0.4" d="M346.824 183.908C347.311 186.293 344.898 188.785 341.414 189.474C337.93 190.163 334.717 188.806 334.219 186.421C333.721 184.035 336.145 181.544 339.629 180.854C343.113 180.165 346.327 181.533 346.824 183.908Z" fill="white"/>
<path d="M222.762 81.8499L220.522 83.6841L223.714 88.2219L226.257 86.833C227.629 88.1151 229.232 89.1361 230.985 89.8441L230.726 92.6855L236.255 93.6821L237.055 90.9361C238.949 90.8944 240.818 90.5023 242.563 89.7804L244.435 91.9751L249.066 88.8475L247.648 86.3559C248.957 85.0114 249.999 83.4403 250.721 81.7227L253.621 81.9772L254.638 76.5594L251.835 75.7748C251.798 73.9186 251.398 72.0866 250.656 70.3782L252.896 68.544L249.704 63.9956L247.161 65.3951C245.791 64.1103 244.187 63.0889 242.433 62.3841L242.693 59.5426L237.164 58.546L236.363 61.2814C234.469 61.3267 232.6 61.7224 230.856 62.4477L228.984 60.253L224.353 63.4337L225.77 65.9252C224.464 67.2678 223.423 68.8349 222.697 70.5478L219.797 70.304L218.78 75.7218L221.583 76.5064C221.627 78.3447 222.027 80.158 222.762 81.8499V81.8499ZM229.254 74.757C229.533 73.3187 230.241 71.9934 231.287 70.948C232.333 69.9026 233.671 69.1838 235.133 68.8819C236.595 68.58 238.116 68.7087 239.503 69.2516C240.891 69.7946 242.084 70.7276 242.932 71.9332C243.779 73.1388 244.244 74.5632 244.268 76.0272C244.291 77.4911 243.872 78.9291 243.064 80.1603C242.255 81.3915 241.093 82.3609 239.724 82.9464C238.354 83.5319 236.839 83.7074 235.367 83.4509C234.38 83.2771 233.438 82.9142 232.594 82.383C231.75 81.8518 231.021 81.1628 230.449 80.3552C229.877 79.5477 229.473 78.6375 229.261 77.6769C229.048 76.7163 229.031 75.724 229.211 74.757H229.254Z" fill="#8AA4DF"/>
<path opacity="0.6" d="M263.781 100.722L267.763 101.443L268.336 99.471C269.694 99.4406 271.033 99.16 272.285 98.644L273.638 100.213L276.97 97.976L275.942 96.1736C276.872 95.2119 277.606 94.0857 278.106 92.8551L280.195 93.0353L280.93 89.1337L278.918 88.5824C278.885 87.2477 278.595 85.9311 278.063 84.7019L279.675 83.3872L277.382 80.1217L275.553 81.1183C274.568 80.2071 273.415 79.4876 272.155 78.9979L272.339 76.9622L268.368 76.2413L267.795 78.2133C266.433 78.2392 265.089 78.5199 263.835 79.0403L262.536 77.3969L259.204 79.6446L260.232 81.447C259.3 82.4069 258.565 83.5336 258.068 84.7655L255.98 84.5853L255.244 88.4763L257.256 89.0383C257.289 90.3729 257.579 91.6895 258.111 92.9187L256.434 94.2758L258.728 97.5413L260.556 96.5447C261.547 97.4488 262.699 98.1675 263.954 98.6652L263.781 100.722ZM262.699 87.8402C262.896 86.7974 263.405 85.8353 264.16 85.0756C264.916 84.3158 265.884 83.7926 266.943 83.5719C268.001 83.3512 269.103 83.443 270.109 83.8357C271.114 84.2283 271.978 84.9043 272.592 85.778C273.206 86.6518 273.541 87.6842 273.556 88.7448C273.571 89.8053 273.265 90.8465 272.676 91.7366C272.088 92.6267 271.243 93.3259 270.249 93.7458C269.255 94.1656 268.156 94.2874 267.092 94.0956C265.667 93.8378 264.404 93.0368 263.58 91.8682C262.757 90.6995 262.44 89.2587 262.699 87.8614V87.8402Z" fill="#8AA4DF"/>
<path opacity="0.5" d="M233.203 109.607C233.248 111.193 233.593 112.756 234.221 114.219L232.305 115.788L235.032 119.679L237.196 118.481C238.361 119.584 239.731 120.459 241.232 121.057L241.005 123.485L245.744 124.344L246.426 122.001C248.044 121.957 249.64 121.619 251.132 121.004L252.734 122.881L256.705 120.209L255.482 118.089C256.606 116.941 257.498 115.596 258.111 114.123L260.589 114.346L261.465 109.702L259.074 109.034C259.039 107.448 258.697 105.884 258.068 104.422L260.005 102.842L257.267 98.9514L255.103 100.149C253.926 99.0327 252.541 98.1473 251.024 97.5413L251.24 95.1134L246.501 94.2546L245.82 96.5977C244.201 96.6412 242.605 96.9791 241.113 97.5943L239.512 95.7177L235.541 98.3895L236.763 100.51C235.643 101.66 234.751 103.005 234.134 104.475L231.656 104.253L230.78 108.896L233.203 109.607ZM239.695 108.154C239.93 106.918 240.532 105.778 241.427 104.878C242.322 103.977 243.469 103.357 244.724 103.095C245.979 102.833 247.284 102.94 248.476 103.405C249.668 103.869 250.693 104.669 251.422 105.703C252.15 106.738 252.55 107.961 252.569 109.218C252.589 110.474 252.229 111.709 251.533 112.765C250.838 113.821 249.839 114.652 248.662 115.152C247.485 115.652 246.184 115.8 244.922 115.576C244.083 115.422 243.284 115.107 242.569 114.65C241.855 114.193 241.239 113.603 240.758 112.912C240.277 112.222 239.939 111.446 239.764 110.627C239.589 109.809 239.581 108.965 239.739 108.144L239.695 108.154Z" fill="#8AA4DF"/>
<path d="M125.209 113.498C124.971 111.261 122.861 109.935 119.712 110.254C118.423 110.313 117.17 110.688 116.066 111.343C114.963 111.999 114.044 112.914 113.394 114.007L109.174 111.886C111.132 108.61 114.584 106.405 119.712 105.885C125.707 105.27 129.981 107.55 130.468 112.141C131.16 118.661 124.246 119.965 124.755 124.683L119.572 125.213C118.944 119.308 125.631 117.495 125.209 113.498ZM119.593 131.723C119.519 131.098 119.635 130.466 119.927 129.906C120.219 129.346 120.674 128.883 121.234 128.576C121.794 128.269 122.435 128.132 123.075 128.182C123.715 128.232 124.325 128.467 124.829 128.857C125.333 129.247 125.707 129.774 125.905 130.372C126.103 130.971 126.116 131.613 125.941 132.219C125.766 132.824 125.412 133.365 124.924 133.773C124.435 134.181 123.834 134.438 123.197 134.512C122.771 134.572 122.338 134.548 121.923 134.439C121.508 134.33 121.119 134.139 120.782 133.878C120.445 133.617 120.166 133.291 119.961 132.921C119.757 132.55 119.632 132.143 119.593 131.723V131.723Z" fill="#8AA4DF"/>
<path d="M297.528 348.297H310.653L312.817 385.628H306.195L297.528 348.297Z" fill="#263238"/>
<path d="M230.401 348.297H243.526L245.69 385.628H239.068L230.401 348.297Z" fill="#263238"/>
<path d="M162.332 348.297H149.208L147.033 385.628H153.666L162.332 348.297Z" fill="#263238"/>
<path d="M229.46 348.297H216.324L214.16 385.628H220.793L229.46 348.297Z" fill="#263238"/>
<path opacity="0.3" d="M297.528 348.297H310.653L312.817 385.628H306.195L297.528 348.297Z" fill="white"/>
<path opacity="0.2" d="M229.46 348.297H216.324L214.16 385.628H220.793L229.46 348.297Z" fill="white"/>
<path opacity="0.3" d="M230.401 348.297H243.526L245.69 385.628H239.068L230.401 348.297Z" fill="white"/>
<path opacity="0.2" d="M162.332 348.297H149.208L147.033 385.628H153.666L162.332 348.297Z" fill="white"/>
<path d="M238.722 249.441L245.928 313.383C246.171 315.133 246.022 316.913 245.491 318.601C244.96 320.288 244.06 321.842 242.854 323.154C241.648 324.466 240.165 325.504 238.508 326.197C236.85 326.89 235.059 327.221 233.258 327.166H150.084C148.137 327.135 146.265 326.42 144.81 325.152C143.355 323.883 142.412 322.145 142.153 320.254L133.4 242.645C133.282 241.767 133.36 240.874 133.629 240.029C133.898 239.184 134.351 238.406 134.957 237.749C135.563 237.093 136.308 236.573 137.14 236.227C137.971 235.88 138.87 235.715 139.773 235.743H222.946C226.809 235.812 230.52 237.23 233.412 239.741C236.304 242.252 238.187 245.691 238.722 249.441V249.441Z" fill="#8AA4DF"/>
<path opacity="0.6" d="M238.722 249.441L245.928 313.383C246.171 315.133 246.022 316.913 245.491 318.601C244.96 320.288 244.06 321.842 242.854 323.154C241.648 324.466 240.165 325.504 238.508 326.197C236.85 326.89 235.059 327.221 233.258 327.166H150.084C148.137 327.135 146.265 326.42 144.81 325.152C143.355 323.883 142.412 322.145 142.153 320.254L133.4 242.645C133.282 241.767 133.36 240.874 133.629 240.029C133.898 239.184 134.351 238.406 134.957 237.749C135.563 237.093 136.308 236.573 137.14 236.227C137.971 235.88 138.87 235.715 139.773 235.743H222.946C226.809 235.812 230.52 237.23 233.412 239.741C236.304 242.252 238.187 245.691 238.722 249.441V249.441Z" fill="white"/>
<path opacity="0.1" d="M162.938 249.441L170.144 313.383C170.388 315.133 170.238 316.913 169.708 318.601C169.177 320.288 168.277 321.842 167.071 323.154C165.865 324.466 164.382 325.504 162.724 326.197C161.067 326.89 159.275 327.221 157.474 327.166H150.084C148.137 327.135 146.265 326.42 144.81 325.152C143.355 323.883 142.412 322.145 142.153 320.254L133.4 242.645C133.282 241.767 133.36 240.874 133.629 240.029C133.898 239.184 134.351 238.406 134.957 237.749C135.563 237.093 136.308 236.573 137.14 236.227C137.971 235.88 138.87 235.715 139.773 235.743H147.152C151.017 235.81 154.731 237.226 157.625 239.737C160.519 242.249 162.403 245.689 162.938 249.441Z" fill="black"/>
<path d="M319.266 326.477V347.332C319.266 348.738 318.696 350.086 317.681 351.08C316.667 352.075 315.291 352.633 313.856 352.633H149.576C148.141 352.633 146.765 352.075 145.75 351.08C144.736 350.086 144.166 348.738 144.166 347.332V326.477C144.166 325.071 144.736 323.723 145.75 322.729C146.765 321.735 148.141 321.176 149.576 321.176H313.888C315.317 321.184 316.685 321.747 317.693 322.74C318.7 323.733 319.266 325.077 319.266 326.477Z" fill="#8AA4DF"/>
<path opacity="0.6" d="M319.266 326.477V347.332C319.266 348.738 318.696 350.086 317.681 351.08C316.667 352.075 315.291 352.633 313.856 352.633H149.576C148.141 352.633 146.765 352.075 145.75 351.08C144.736 350.086 144.166 348.738 144.166 347.332V326.477C144.166 325.071 144.736 323.723 145.75 322.729C146.765 321.735 148.141 321.176 149.576 321.176H313.888C315.317 321.184 316.685 321.747 317.693 322.74C318.7 323.733 319.266 325.077 319.266 326.477Z" fill="white"/>
<path opacity="0.1" d="M221.81 326.477V347.332C221.81 348.738 221.24 350.086 220.225 351.08C219.211 352.075 217.835 352.633 216.4 352.633H149.532C148.098 352.633 146.722 352.075 145.707 351.08C144.692 350.086 144.122 348.738 144.122 347.332V326.477C144.122 325.071 144.692 323.723 145.707 322.729C146.722 321.735 148.098 321.176 149.532 321.176H216.4C217.835 321.176 219.211 321.735 220.225 322.729C221.24 323.723 221.81 325.071 221.81 326.477Z" fill="black"/>
<path d="M262.45 375.195L255.32 372.417L258.1 362.249L260.675 352.919L269.678 354.87L265.847 365.632L262.45 375.195Z" fill="#EBB376"/>
<path opacity="0.2" d="M265.761 365.854L258.025 362.44L260.632 353.015L269.656 354.923L265.761 365.854Z" fill="black"/>
<path d="M208.566 283.58C208.566 283.58 268.076 275.713 284.609 286.061C301.142 296.409 269.126 359.419 269.126 359.419L259.107 357.298C259.107 357.298 266.616 307.34 266.053 305.251C265.49 303.163 237.477 316.755 199.088 318.07L208.566 283.58Z" fill="#263238"/>
<path opacity="0.5" d="M208.566 283.58C208.566 283.58 268.076 275.713 284.609 286.061C301.142 296.409 269.126 359.419 269.126 359.419L259.107 357.298C259.107 357.298 266.616 307.34 266.053 305.251C265.49 303.163 237.477 316.755 199.088 318.07L208.566 283.58Z" fill="white"/>
<path d="M326.591 372.078L321.083 377.294L312.763 370.625L305.135 364.497L310.653 357.266L319.093 365.101L326.591 372.078Z" fill="#EBB376"/>
<path d="M315.944 373.965C315.673 373.18 325.682 370.222 325.682 370.222C325.682 370.222 333.938 373.997 340.257 373.202C346.575 372.406 344.639 377.018 338.147 379.393L322.079 385.288C317.448 386.985 318.855 382.076 315.944 373.965Z" fill="#2E353A"/>
<path d="M328.928 371.081C328.149 371.081 327.478 371.028 327.208 371.007H327.099H327.045C327.006 370.974 326.979 370.929 326.97 370.88C326.97 370.774 326.97 368.261 328.052 367.232C328.216 367.076 328.414 366.957 328.631 366.884C328.848 366.811 329.079 366.785 329.307 366.808C329.826 366.808 330.14 367.042 330.248 367.37C330.41 367.89 329.88 368.664 329.231 369.374C329.934 368.965 330.74 368.759 331.557 368.78C331.709 368.799 331.855 368.85 331.986 368.929C332.117 369.007 332.229 369.112 332.315 369.236C332.445 369.378 332.529 369.555 332.556 369.744C332.583 369.933 332.552 370.125 332.466 370.297C332.033 370.964 330.313 371.081 328.928 371.081ZM327.987 370.54C329.664 370.604 331.676 370.54 332.001 369.936C332.001 369.936 332.12 369.745 331.871 369.395C331.822 369.332 331.76 369.278 331.689 369.238C331.619 369.198 331.541 369.172 331.46 369.162C330.594 369.056 329.004 369.936 327.998 370.583L327.987 370.54ZM329.144 367.19C328.866 367.191 328.598 367.297 328.398 367.487C327.805 368.263 327.493 369.211 327.511 370.18C328.755 369.12 329.88 367.837 329.729 367.391C329.729 367.254 329.415 367.211 329.253 367.201L329.144 367.19Z" fill="#577AFA"/>
<path opacity="0.2" d="M319.255 365.271L312.904 370.774L305.211 364.571L310.685 357.298L319.255 365.271Z" fill="black"/>
<path d="M225.446 291.118C225.446 291.118 224.591 279.583 224.19 277.229C223.862 274.897 223.378 272.587 222.741 270.317C220.122 262.63 185.141 271.674 185.141 271.674L184.146 276.975C184.146 276.975 168.359 306.142 178.909 316.649C182.155 319.83 188.409 321.272 194.825 321.229C194.825 321.229 214.442 322.151 250.916 320.487C250.916 320.487 263.759 339.221 308.262 369.014L315.522 361.592C315.522 361.592 265.198 304.923 263.532 303.608C249.001 292.03 225.446 291.118 225.446 291.118Z" fill="#263238"/>
<path opacity="0.6" d="M225.446 291.118C225.446 291.118 224.591 279.583 224.19 277.229C223.862 274.897 223.378 272.587 222.741 270.317C220.122 262.63 185.141 271.674 185.141 271.674L184.146 276.975C184.146 276.975 168.175 305.951 178.909 316.649C182.155 319.83 188.409 321.272 194.825 321.229C194.825 321.229 214.442 322.151 250.916 320.487C250.916 320.487 263.759 339.221 308.262 369.014L315.522 361.592C315.522 361.592 265.198 304.923 263.532 303.608C249.001 292.03 225.446 291.118 225.446 291.118Z" fill="white"/>
<path d="M304.94 367.848L313.856 358.231L318.173 362.568L309.809 371.336L304.94 367.848Z" fill="#263238"/>
<path d="M258.555 354.128L271.171 358.136L268.909 363.766L257.321 359.906L258.555 354.128Z" fill="#263238"/>
<path d="M270.284 376.563C268.764 376.346 267.298 375.861 265.956 375.131C265.922 375.112 265.893 375.087 265.869 375.057V375.057V375.004C265.856 374.976 265.849 374.945 265.849 374.914C265.849 374.883 265.856 374.852 265.869 374.824C265.869 374.718 266.854 372.375 268.282 371.855C268.496 371.772 268.726 371.736 268.956 371.749C269.185 371.762 269.41 371.823 269.613 371.929C270.067 372.163 270.294 372.459 270.262 372.799C270.262 373.339 269.418 373.859 268.542 374.272C269.347 374.162 270.169 374.275 270.911 374.601C271.044 374.673 271.16 374.772 271.251 374.89C271.342 375.009 271.407 375.145 271.441 375.29C271.497 375.475 271.501 375.672 271.451 375.859C271.402 376.046 271.301 376.216 271.16 376.35C270.901 376.517 270.592 376.591 270.284 376.563V376.563ZM266.843 374.993C268.358 375.683 270.273 376.329 270.781 375.937C270.781 375.937 270.965 375.799 270.879 375.396C270.859 375.318 270.823 375.245 270.772 375.181C270.722 375.117 270.659 375.064 270.587 375.025C269.84 374.569 268.022 374.781 266.843 374.993ZM268.801 372.247C268.668 372.246 268.535 372.272 268.412 372.322C267.571 372.812 266.915 373.556 266.54 374.442C268.109 373.912 269.645 373.159 269.688 372.703C269.688 372.555 269.461 372.406 269.321 372.332C269.156 372.265 268.979 372.236 268.801 372.247V372.247Z" fill="#577AFA"/>
<path d="M253.87 372.226C253.924 371.399 264.268 372.396 264.268 372.396C264.268 372.396 270.435 378.969 276.581 380.613C282.727 382.256 279.145 385.776 272.253 385.543L255.114 384.97C250.148 384.864 253.372 380.803 253.87 372.226Z" fill="#2E353A"/>
<path d="M216.497 212.322C222.989 215.641 229.59 219.616 236.33 222.172C236.687 222.288 236.623 222.278 236.33 222.299C235.68 222.375 235.052 222.581 234.485 222.904C233.918 223.227 233.425 223.66 233.035 224.176C232.645 224.692 232.367 225.281 232.217 225.906C232.067 226.531 232.05 227.18 232.165 227.812C232.165 227.876 232.262 228.151 232.295 228.151C231.897 227.315 231.423 226.517 230.877 225.766C225.759 218.63 217.028 208.707 211.401 201.773C210.946 201.206 210.717 200.497 210.758 199.777C210.8 199.057 211.108 198.377 211.624 197.864C212.141 197.351 212.831 197.041 213.565 196.991C214.299 196.942 215.026 197.157 215.61 197.595C221.931 202.554 227.957 207.864 233.658 213.499C236.72 216.68 239.988 219.712 242.195 223.773C242.648 224.608 242.917 225.528 242.984 226.473C243.051 227.417 242.915 228.365 242.584 229.254C241.178 232.795 237.12 233.654 233.82 232.88C225.305 230.759 217.958 226.762 210.492 222.617C203.784 218.482 209.497 208.738 216.508 212.322H216.497Z" fill="#EBC0BB"/>
<path d="M215.037 211.58L218.185 222.924L219.917 229.201C221.739 229.938 223.599 230.582 225.489 231.131C230.14 232.645 235.011 233.407 239.912 233.389L237.964 229.466C237.964 229.466 231.407 223.507 222.048 214.623C222.048 214.655 216.227 211.962 215.037 211.58Z" fill="#8AA4DF"/>
<path d="M232.446 224.409L236.428 234.417L241.091 233.336L237.964 229.477L232.446 224.409Z" fill="#8AA4DF"/>
<path opacity="0.6" d="M232.446 224.409L236.428 234.417L241.091 233.336L237.964 229.477L232.446 224.409Z" fill="white"/>
<path opacity="0.2" d="M218.185 222.924L219.916 229.201C221.739 229.937 223.599 230.582 225.489 231.13C224.407 225.267 218.445 221.535 218.445 221.535C218.288 221.983 218.201 222.451 218.185 222.924V222.924Z" fill="black"/>
<path d="M223.033 270.105L184.405 272.299C184.085 263.423 183.232 254.572 181.852 245.794C181.852 245.56 181.776 245.316 181.744 245.083C181.419 243.048 181.073 241.076 180.726 239.199C180.38 237.322 180.045 235.605 179.644 233.898C179.168 231.576 178.671 229.424 178.205 227.473C177.848 225.978 177.502 224.6 177.123 223.348C175.728 217.984 174.678 214.867 174.678 214.867C195.171 203.692 215.513 211.686 215.513 211.686C226.517 225.48 223.033 270.105 223.033 270.105Z" fill="#8AA4DF"/>
<path d="M194.316 206.533C182.198 207.212 181.257 217.082 181.257 217.082L186.775 214.368L204.087 224.334L207.506 213.107L212.7 213.753C212.7 213.753 204.844 205.95 194.316 206.533Z" fill="#8AA4DF"/>
<path opacity="0.6" d="M194.316 206.533C182.198 207.212 181.257 217.082 181.257 217.082L186.775 214.368L204.087 224.334L207.506 213.107L212.7 213.753C212.7 213.753 204.844 205.95 194.316 206.533Z" fill="white"/>
<path d="M203.492 223.709L187.078 211.272C190.648 207.244 188.084 196.874 186.169 191.245L198.569 199.886C198.038 204.381 198.504 209.099 205.223 210.244C205.223 210.244 203.47 223.709 203.492 223.709Z" fill="#EEC1BB"/>
<path opacity="0.2" d="M191.222 194.765L198.569 199.886C198.424 200.939 198.377 202.004 198.428 203.066C195.896 202.854 192.12 200.384 191.514 197.86C191.223 196.855 191.124 195.805 191.222 194.765V194.765Z" fill="black"/>
<path d="M187.738 162.088C183.312 162.746 172.882 168.503 175.241 181.946C177.599 195.39 191.298 197.85 197.714 193.492C204.13 189.135 195.214 160.996 187.738 162.088Z" fill="#263238"/>
<path d="M193.148 162.534C199.261 161.282 211.834 168.64 205.764 178.437C198.168 190.746 171.724 166.944 193.148 162.534Z" fill="#263238"/>
<path d="M209.183 188.244C209.183 188.764 209.183 189.304 209.183 189.771C209.139 191.325 208.747 192.85 208.035 194.239C207.322 195.628 206.307 196.846 205.061 197.807C201.003 200.903 194.652 201.126 189.285 197.203C183.648 193.079 182.858 189.167 180.543 180.038C179.945 177.961 179.927 175.766 180.49 173.68C181.053 171.595 182.176 169.695 183.743 168.179C185.31 166.663 187.263 165.587 189.398 165.062C191.534 164.537 193.774 164.583 195.885 165.195C205.169 167.591 209.14 179.72 209.183 188.244Z" fill="#EEC1BB"/>
<path d="M188.268 172.903C183.464 179.784 194.587 186.686 183.875 186.908C173.163 187.131 176.636 172.065 182.793 168.322C188.95 164.58 188.268 172.903 188.268 172.903Z" fill="#263238"/>
<path d="M194.327 179.805C194.489 180.579 195.03 181.151 195.539 181.088C196.048 181.024 196.329 180.335 196.167 179.561C196.004 178.787 195.463 178.214 194.955 178.278C194.446 178.342 194.165 179.02 194.327 179.805Z" fill="#263238"/>
<path d="M203.925 178.691C204.087 179.476 204.628 180.049 205.136 179.985C205.645 179.921 205.926 179.232 205.764 178.458C205.602 177.684 205.061 177.112 204.552 177.175C204.044 177.239 203.762 177.918 203.925 178.691Z" fill="#263238"/>
<path d="M204.336 177.25L206.099 176.465C206.099 176.465 205.439 178.045 204.336 177.25Z" fill="#263238"/>
<path d="M201.977 180.504C203.039 182.189 204.32 183.732 205.786 185.095C205.436 185.429 205.015 185.682 204.552 185.834C204.089 185.987 203.597 186.035 203.113 185.975L201.977 180.504Z" fill="#D4827D"/>
<path d="M180.121 188.997C180.557 189.785 181.157 190.475 181.882 191.023C182.607 191.571 183.44 191.964 184.33 192.178C186.558 192.623 187.359 190.11 186.494 187.693C185.714 185.509 183.605 182.657 181.484 183.314C179.363 183.971 178.887 186.898 180.121 188.997Z" fill="#EEC1BB"/>
<path d="M192.596 176.677C192.656 176.677 192.716 176.664 192.77 176.638C192.825 176.612 192.872 176.575 192.91 176.529C193.256 176.082 193.711 175.728 194.232 175.496C194.753 175.265 195.325 175.164 195.896 175.203C195.955 175.212 196.016 175.209 196.074 175.194C196.132 175.178 196.186 175.152 196.233 175.115C196.28 175.078 196.318 175.032 196.346 174.979C196.374 174.927 196.39 174.87 196.394 174.811C196.401 174.687 196.36 174.565 196.28 174.469C196.2 174.373 196.086 174.31 195.961 174.292C195.239 174.23 194.513 174.348 193.85 174.633C193.186 174.918 192.606 175.362 192.163 175.924C192.109 175.998 192.078 176.085 192.073 176.176C192.069 176.266 192.09 176.356 192.135 176.435C192.181 176.514 192.248 176.579 192.33 176.622C192.411 176.665 192.504 176.684 192.596 176.677V176.677Z" fill="#263238"/>
<path d="M207.03 175.012C207.088 175.015 207.145 175.006 207.199 174.986C207.253 174.966 207.302 174.935 207.344 174.896C207.387 174.853 207.422 174.803 207.445 174.748C207.469 174.692 207.481 174.633 207.481 174.572C207.481 174.512 207.469 174.453 207.445 174.397C207.422 174.342 207.387 174.291 207.344 174.249C206.826 173.707 206.188 173.288 205.479 173.025C204.77 172.762 204.008 172.662 203.254 172.733C203.194 172.743 203.137 172.765 203.087 172.797C203.036 172.83 202.993 172.873 202.96 172.923C202.928 172.973 202.906 173.029 202.897 173.087C202.888 173.146 202.892 173.206 202.907 173.263C202.938 173.382 203.013 173.485 203.116 173.554C203.22 173.622 203.346 173.651 203.47 173.634C204.071 173.583 204.676 173.668 205.238 173.881C205.801 174.094 206.306 174.43 206.716 174.864C206.8 174.948 206.911 175.001 207.03 175.012V175.012Z" fill="#263238"/>
<path d="M194.76 178.352L196.513 177.568C196.513 177.568 195.842 179.179 194.76 178.352Z" fill="#263238"/>
<path d="M202.897 189.866C201.15 189.807 199.486 189.12 198.222 187.937C198.197 187.913 198.176 187.884 198.162 187.852C198.148 187.82 198.14 187.786 198.14 187.751C198.14 187.716 198.148 187.682 198.162 187.65C198.176 187.618 198.197 187.589 198.222 187.566C198.248 187.54 198.278 187.52 198.311 187.506C198.345 187.492 198.381 187.484 198.417 187.484C198.454 187.484 198.49 187.492 198.523 187.506C198.556 187.52 198.587 187.54 198.612 187.566C199.793 188.641 201.329 189.265 202.94 189.326C203.013 189.331 203.08 189.364 203.129 189.417C203.177 189.471 203.203 189.54 203.2 189.612C203.198 189.649 203.189 189.685 203.173 189.718C203.157 189.751 203.134 189.781 203.105 189.804C203.077 189.828 203.044 189.846 203.008 189.857C202.972 189.868 202.934 189.871 202.897 189.866V189.866Z" fill="#263238"/>
<path d="M198.071 166.032C198.071 166.032 196.556 174.832 185.011 175.479L177.253 182.466C177.253 182.466 173.596 172.489 184.297 164.103C194.998 155.716 206.889 167.951 196.199 172.701C196.221 172.701 200.246 168.757 198.071 166.032Z" fill="#263238"/>
<path d="M178.833 170.263C178.833 170.263 174.959 163.244 168.013 166.234C160.439 169.478 158.372 184.714 161.694 194.765C165.016 204.816 172.07 204.71 172.07 204.71C172.07 204.71 168.76 200.744 168.76 188.679C168.76 188.679 169.182 193.98 170.253 196.641C170.253 196.641 169.614 183.303 170.999 178.077C172.384 172.85 176.972 175.882 176.972 175.882L178.833 170.263Z" fill="#263238"/>
<path d="M184.513 273.116L196.534 272.395V275.745L183.756 276.434L184.513 273.116Z" fill="#263238"/>
<path d="M224.039 274.25L197.984 275.66V272.31L223.563 270.773L224.039 274.25Z" fill="#263238"/>
<path d="M210.59 275.745C210.218 275.749 209.86 275.614 209.586 275.368C209.313 275.122 209.146 274.783 209.118 274.42L208.923 272.299C208.907 272.109 208.929 271.917 208.989 271.735C209.048 271.554 209.144 271.385 209.27 271.239C209.405 271.086 209.57 270.962 209.757 270.874C209.943 270.787 210.145 270.738 210.352 270.73L213.727 270.497C213.923 270.483 214.12 270.508 214.306 270.57C214.491 270.632 214.663 270.73 214.809 270.857C214.964 270.99 215.089 271.153 215.177 271.336C215.264 271.518 215.312 271.716 215.318 271.918L215.437 274.112C215.458 274.497 215.323 274.874 215.062 275.162C214.8 275.45 214.434 275.625 214.041 275.65L210.741 275.841L210.59 275.745ZM209.995 272.162L210.189 274.282C210.2 274.385 210.251 274.48 210.332 274.547C210.413 274.614 210.517 274.649 210.622 274.642L213.922 274.452C214.027 274.444 214.125 274.396 214.196 274.319C214.266 274.242 214.304 274.142 214.301 274.038L214.182 271.833C214.174 271.726 214.124 271.627 214.041 271.557C214.003 271.521 213.957 271.494 213.906 271.477C213.856 271.461 213.802 271.455 213.749 271.462L210.373 271.695C210.319 271.697 210.266 271.71 210.217 271.734C210.169 271.758 210.126 271.792 210.092 271.833C210.028 271.915 209.994 272.016 209.995 272.119V272.162Z" fill="white"/>
<path opacity="0.5" d="M304.94 367.848L313.856 358.231L318.173 362.568L309.809 371.336L304.94 367.848Z" fill="white"/>
<path opacity="0.4" d="M258.555 354.128L271.171 358.136L268.909 363.766L257.321 359.906L258.555 354.128Z" fill="white"/>
<path opacity="0.2" d="M209.183 188.244C209.183 188.764 209.183 189.304 209.183 189.771C209.139 191.325 208.747 192.85 208.035 194.239C207.322 195.628 206.307 196.846 205.061 197.807C203.881 191.701 205.786 190.439 209.183 188.244Z" fill="black"/>
<path d="M213.154 188.308L215.664 189.888C216.128 190.185 216.513 190.587 216.787 191.058C217.062 191.53 217.218 192.059 217.244 192.602L217.482 197.733C217.529 198.747 217.328 199.758 216.895 200.68C216.462 201.602 215.81 202.409 214.993 203.034L213.976 203.819C209.648 201.465 206.705 195.782 206.705 195.782L205.688 194.245C205.471 193.937 205.318 193.59 205.239 193.224C205.159 192.858 205.155 192.481 205.225 192.113C205.295 191.745 205.44 191.395 205.649 191.082C205.859 190.769 206.129 190.5 206.446 190.29L209.518 188.276C210.063 187.936 210.696 187.758 211.341 187.763C211.986 187.769 212.616 187.958 213.154 188.308V188.308Z" fill="#EEC1BB"/>
<path opacity="0.2" d="M232.446 232.827C232.446 232.827 236.06 228.809 238.938 228.798C240.117 228.901 241.263 229.24 242.303 229.795C242.303 229.795 240.864 232.594 238.256 232.975C236.319 233.094 234.375 233.044 232.446 232.827Z" fill="black"/>
<path d="M243.234 236.994L241.751 239.528C241.475 239.997 241.088 240.394 240.623 240.688C240.158 240.981 239.629 241.161 239.079 241.213L233.853 241.722C232.825 241.825 231.788 241.686 230.826 241.318C229.865 240.949 229.007 240.361 228.324 239.602L227.48 238.648C229.644 234.269 235.292 231.12 235.292 231.12L236.796 230.06C237.099 229.83 237.445 229.662 237.815 229.564C238.185 229.467 238.571 229.443 238.951 229.493C239.33 229.544 239.696 229.667 240.026 229.858C240.357 230.048 240.645 230.3 240.875 230.6L243.039 233.495C243.408 233.999 243.623 234.596 243.658 235.216C243.692 235.836 243.545 236.453 243.234 236.994V236.994Z" fill="#EEC1BB"/>
<path opacity="0.2" d="M198.569 248.974C193.635 249.854 186.753 247.373 181.744 245.083C181.419 243.048 181.073 241.075 180.726 239.199C180.38 237.322 180.045 235.605 179.644 233.898C179.168 231.576 178.671 229.424 178.205 227.473C177.848 225.978 177.502 224.6 177.123 223.348C178.53 221.8 180.607 221.069 183.669 221.854C196.589 225.172 207.203 247.426 198.569 248.974Z" fill="black"/>
<path opacity="0.2" d="M178.238 227.505C178.714 229.455 179.201 231.608 179.688 233.919C180.034 235.594 180.38 237.365 180.77 239.22C182.105 233.454 181.703 227.432 179.612 221.885L178.238 227.505Z" fill="black"/>
<path d="M182.771 220.401C187.684 225.543 196.415 235.329 201.328 239.687C202.551 240.081 203.844 240.222 205.126 240.1C208.821 239.858 212.493 239.341 216.108 238.552C221.161 237.492 226.344 236.262 231.397 234.958C232.111 234.773 232.87 234.853 233.529 235.182C234.188 235.511 234.699 236.066 234.967 236.741C235.235 237.416 235.239 238.164 234.98 238.843C234.72 239.521 234.215 240.082 233.561 240.418C228.726 242.941 223.715 245.124 218.564 246.949C211.845 249.07 201.944 252.579 195.279 248.561C187.067 242.836 180.402 235.562 173.769 228.268C168.781 222.267 177.329 214.824 182.826 220.401H182.771Z" fill="#EBC0BB"/>
<path d="M190.107 246.112L198.59 237.248L187.327 222.087C187.327 222.087 179.396 210.636 174.765 214.93C166.628 222.5 174.105 233.124 190.107 246.112Z" fill="#8AA4DF"/>
<path d="M198.125 235.87L187.933 246.854L192.996 248.974L200.549 238.382L198.125 235.87Z" fill="#8AA4DF"/>
<path opacity="0.6" d="M198.125 235.87L187.933 246.854L192.996 248.974L200.549 238.382L198.125 235.87Z" fill="white"/>
</svg>
